<mxfile host="app.diagrams.net" agent="Mozilla/5.0 (Macintosh; Intel Mac OS X 10_15_7) AppleWebKit/537.36 (KHTML, like Gecko) Chrome/128.0.0.0 Safari/537.36" version="24.7.12" pages="4">
  <diagram name="Page-1" id="0783ab3e-0a74-02c8-0abd-f7b4e66b4bec">
    <mxGraphModel dx="1424" dy="964" grid="1" gridSize="10" guides="1" tooltips="1" connect="1" arrows="1" fold="1" page="1" pageScale="1" pageWidth="850" pageHeight="1100" background="#ffffff" math="0" shadow="0">
      <root>
        <mxCell id="0" />
        <mxCell id="1" parent="0" />
        <mxCell id="V6kkqUvpd2kyLeAWoMDx-1" value="" style="shape=or;whiteSpace=wrap;html=1;fillColor=#FF9933;fillStyle=solid;opacity=60;strokeWidth=2;" parent="1" vertex="1">
          <mxGeometry x="450" y="1430" width="240" height="350" as="geometry" />
        </mxCell>
        <mxCell id="1c1d494c118603dd-1" value="&lt;font style=&quot;font-size: 29px;&quot;&gt;stability package&lt;/font&gt;" style="swimlane;html=1;childLayout=stackLayout;startSize=60;rounded=0;shadow=0;comic=0;labelBackgroundColor=none;strokeWidth=1;fontFamily=Times New Roman;fontSize=29;align=center;" parent="1" vertex="1">
          <mxGeometry x="70" y="30" width="1040" height="750" as="geometry" />
        </mxCell>
        <mxCell id="1c1d494c118603dd-3" value="&lt;font style=&quot;font-size: 22px;&quot;&gt;First level&lt;/font&gt;" style="swimlane;html=1;startSize=40;fontFamily=Times New Roman;fontSize=22;" parent="1c1d494c118603dd-1" vertex="1">
          <mxGeometry y="60" width="290" height="690" as="geometry" />
        </mxCell>
        <mxCell id="UKQ700S80o_2FQXmhF7d-86" value="output can be loaded for" style="edgeStyle=orthogonalEdgeStyle;rounded=0;orthogonalLoop=1;jettySize=auto;html=1;fontFamily=Times New Roman;" parent="1c1d494c118603dd-3" source="UKQ700S80o_2FQXmhF7d-19" target="UKQ700S80o_2FQXmhF7d-82" edge="1">
          <mxGeometry relative="1" as="geometry" />
        </mxCell>
        <mxCell id="UKQ700S80o_2FQXmhF7d-19" value="&lt;b style=&quot;color: rgb(19, 19, 0); caret-color: rgb(19, 19, 0); text-wrap: nowrap; font-size: 16px;&quot;&gt;Pedestal_stability&lt;/b&gt;" style="swimlane;fontStyle=0;childLayout=stackLayout;horizontal=1;startSize=30;horizontalStack=0;resizeParent=1;resizeParentMax=0;resizeLast=0;collapsible=1;marginBottom=0;whiteSpace=wrap;html=1;fillColor=#ffe6cc;strokeColor=#d79b00;fontFamily=Times New Roman;" parent="1c1d494c118603dd-3" vertex="1">
          <mxGeometry x="23.750000000000004" y="230" width="242.5" height="160" as="geometry" />
        </mxCell>
        <mxCell id="UKQ700S80o_2FQXmhF7d-20" value="&lt;span style=&quot;caret-color: rgb(19, 19, 0); color: rgb(19, 19, 0); text-wrap: nowrap; background-color: rgb(255, 255, 255); font-size: 14px;&quot;&gt;&lt;font style=&quot;font-size: 14px;&quot;&gt;input :&amp;nbsp;&lt;/font&gt;&lt;/span&gt;&lt;font style=&quot;font-size: 14px;&quot; color=&quot;#131300&quot;&gt;&lt;span style=&quot;caret-color: rgb(19, 19, 0); text-wrap: nowrap; font-size: 14px;&quot;&gt;shot, time_start, time_interval&lt;font face=&quot;Times New Roman&quot;&gt;,&amp;nbsp;&lt;br&gt;&lt;/font&gt;&lt;/span&gt;&lt;/font&gt;&lt;code style=&quot;caret-color: rgb(0, 0, 0);&quot;&gt;&lt;font face=&quot;mNuG_Pi1vFsUI2TzOWnY&quot;&gt;fullana, balloo&lt;/font&gt;&lt;/code&gt;" style="text;strokeColor=default;fillColor=none;align=left;verticalAlign=middle;spacingLeft=4;spacingRight=4;overflow=hidden;points=[[0,0.5],[1,0.5]];portConstraint=eastwest;rotatable=0;whiteSpace=wrap;html=1;fontFamily=Times New Roman;fontSize=14;" parent="UKQ700S80o_2FQXmhF7d-19" vertex="1">
          <mxGeometry y="30" width="242.5" height="40" as="geometry" />
        </mxCell>
        <mxCell id="UKQ700S80o_2FQXmhF7d-21" value="&lt;div style=&quot;font-size: 14px;&quot;&gt;output : the CHEASE package&#39;s output&lt;/div&gt;&lt;div style=&quot;font-size: 14px;&quot;&gt;&lt;/div&gt;&lt;div style=&quot;font-size: 14px;&quot;&gt;&lt;/div&gt;" style="text;strokeColor=default;fillColor=none;align=left;verticalAlign=middle;spacingLeft=4;spacingRight=4;overflow=hidden;points=[[0,0.5],[1,0.5]];portConstraint=eastwest;rotatable=0;whiteSpace=wrap;html=1;fontFamily=Times New Roman;fontSize=14;" parent="UKQ700S80o_2FQXmhF7d-19" vertex="1">
          <mxGeometry y="70" width="242.5" height="50" as="geometry" />
        </mxCell>
        <mxCell id="UKQ700S80o_2FQXmhF7d-22" value="&lt;div style=&quot;font-size: 14px;&quot;&gt;function: main funtion&lt;/div&gt;" style="text;strokeColor=default;fillColor=none;align=left;verticalAlign=middle;spacingLeft=4;spacingRight=4;overflow=hidden;points=[[0,0.5],[1,0.5]];portConstraint=eastwest;rotatable=0;whiteSpace=wrap;html=1;fontFamily=Times New Roman;fontSize=14;" parent="UKQ700S80o_2FQXmhF7d-19" vertex="1">
          <mxGeometry y="120" width="242.5" height="40" as="geometry" />
        </mxCell>
        <mxCell id="UKQ700S80o_2FQXmhF7d-82" value="&lt;code style=&quot;caret-color: rgb(0, 0, 0); text-align: start;&quot;&gt;&lt;font style=&quot;font-size: 16px;&quot; face=&quot;Times New Roman&quot;&gt;&lt;b&gt;pedestal_stability_plot&lt;/b&gt;&lt;/font&gt;&lt;/code&gt;" style="swimlane;fontStyle=0;childLayout=stackLayout;horizontal=1;startSize=30;horizontalStack=0;resizeParent=1;resizeParentMax=0;resizeLast=0;collapsible=1;marginBottom=0;whiteSpace=wrap;html=1;fillColor=#d5e8d4;strokeColor=#82b366;fontFamily=Times New Roman;" parent="1c1d494c118603dd-3" vertex="1">
          <mxGeometry x="15.620000000000003" y="520" width="258.75" height="150" as="geometry" />
        </mxCell>
        <mxCell id="UKQ700S80o_2FQXmhF7d-83" value="&lt;div style=&quot;font-size: 14px;&quot;&gt;&lt;font style=&quot;font-size: 14px;&quot; color=&quot;#131300&quot;&gt;&lt;span style=&quot;caret-color: rgb(19, 19, 0); text-wrap: nowrap; font-size: 14px;&quot;&gt;input : shot, time_start&lt;/span&gt;&lt;/font&gt;&lt;/div&gt;" style="text;strokeColor=default;fillColor=none;align=left;verticalAlign=middle;spacingLeft=4;spacingRight=4;overflow=hidden;points=[[0,0.5],[1,0.5]];portConstraint=eastwest;rotatable=0;whiteSpace=wrap;html=1;fontFamily=Times New Roman;fontSize=14;" parent="UKQ700S80o_2FQXmhF7d-82" vertex="1">
          <mxGeometry y="30" width="258.75" height="40" as="geometry" />
        </mxCell>
        <mxCell id="UKQ700S80o_2FQXmhF7d-85" value="output: the pictures for stability analyse" style="text;strokeColor=default;fillColor=none;align=left;verticalAlign=middle;spacingLeft=4;spacingRight=4;overflow=hidden;points=[[0,0.5],[1,0.5]];portConstraint=eastwest;rotatable=0;whiteSpace=wrap;html=1;fontFamily=Times New Roman;fontSize=14;" parent="UKQ700S80o_2FQXmhF7d-82" vertex="1">
          <mxGeometry y="70" width="258.75" height="30" as="geometry" />
        </mxCell>
        <mxCell id="UKQ700S80o_2FQXmhF7d-84" value="&lt;div style=&quot;font-size: 14px;&quot;&gt;&lt;div style=&quot;font-size: 14px;&quot;&gt;function: get the stability analyse picture&lt;br&gt;&lt;/div&gt;&lt;/div&gt;&lt;div style=&quot;font-size: 14px;&quot;&gt;&lt;/div&gt;&lt;div style=&quot;font-size: 14px;&quot;&gt;&lt;/div&gt;" style="text;strokeColor=default;fillColor=none;align=left;verticalAlign=middle;spacingLeft=4;spacingRight=4;overflow=hidden;points=[[0,0.5],[1,0.5]];portConstraint=eastwest;rotatable=0;whiteSpace=wrap;html=1;fontFamily=Times New Roman;fontSize=14;" parent="UKQ700S80o_2FQXmhF7d-82" vertex="1">
          <mxGeometry y="100" width="258.75" height="50" as="geometry" />
        </mxCell>
        <mxCell id="UKQ700S80o_2FQXmhF7d-118" style="edgeStyle=orthogonalEdgeStyle;rounded=0;orthogonalLoop=1;jettySize=auto;html=1;exitX=1;exitY=0.5;exitDx=0;exitDy=0;" parent="UKQ700S80o_2FQXmhF7d-82" source="UKQ700S80o_2FQXmhF7d-85" target="UKQ700S80o_2FQXmhF7d-85" edge="1">
          <mxGeometry relative="1" as="geometry" />
        </mxCell>
        <mxCell id="UKQ700S80o_2FQXmhF7d-87" value="call" style="edgeStyle=orthogonalEdgeStyle;rounded=0;orthogonalLoop=1;jettySize=auto;html=1;exitX=1;exitY=0.5;exitDx=0;exitDy=0;entryX=0;entryY=0.5;entryDx=0;entryDy=0;fillColor=#f8cecc;strokeColor=#FF3333;strokeWidth=2;fontSize=12;fontStyle=1;fontFamily=Times New Roman;" parent="1c1d494c118603dd-1" source="UKQ700S80o_2FQXmhF7d-21" target="UKQ700S80o_2FQXmhF7d-53" edge="1">
          <mxGeometry relative="1" as="geometry" />
        </mxCell>
        <mxCell id="UKQ700S80o_2FQXmhF7d-11" value="&lt;font style=&quot;font-size: 22px;&quot;&gt;Second level&lt;/font&gt;" style="swimlane;html=1;startSize=40;fontFamily=Times New Roman;fontSize=22;" parent="1c1d494c118603dd-1" vertex="1">
          <mxGeometry x="290" y="60" width="320" height="690" as="geometry" />
        </mxCell>
        <mxCell id="UKQ700S80o_2FQXmhF7d-51" value="&lt;code style=&quot;caret-color: rgb(0, 0, 0); text-align: start;&quot;&gt;&lt;b&gt;&lt;font style=&quot;font-size: 16px;&quot; face=&quot;Times New Roman&quot;&gt;tcv_high_res_equil&lt;/font&gt;&lt;/b&gt;&lt;/code&gt;" style="swimlane;fontStyle=0;childLayout=stackLayout;horizontal=1;startSize=30;horizontalStack=0;resizeParent=1;resizeParentMax=0;resizeLast=0;collapsible=1;marginBottom=0;whiteSpace=wrap;html=1;fillColor=#ffe6cc;strokeColor=#d79b00;fontFamily=Times New Roman;" parent="UKQ700S80o_2FQXmhF7d-11" vertex="1">
          <mxGeometry x="26.880000000000003" y="220" width="273.12" height="180" as="geometry" />
        </mxCell>
        <mxCell id="UKQ700S80o_2FQXmhF7d-52" value="&lt;div&gt;&lt;font size=&quot;1&quot; color=&quot;#131300&quot;&gt;&lt;span style=&quot;caret-color: rgb(19, 19, 0); text-wrap: nowrap; font-size: 14px;&quot;&gt;input : shot, [time_start, time_end]&lt;/span&gt;&lt;/font&gt;&lt;/div&gt;" style="text;strokeColor=default;fillColor=none;align=left;verticalAlign=middle;spacingLeft=4;spacingRight=4;overflow=hidden;points=[[0,0.5],[1,0.5]];portConstraint=eastwest;rotatable=0;whiteSpace=wrap;html=1;fontFamily=Times New Roman;" parent="UKQ700S80o_2FQXmhF7d-51" vertex="1">
          <mxGeometry y="30" width="273.12" height="50" as="geometry" />
        </mxCell>
        <mxCell id="UKQ700S80o_2FQXmhF7d-53" value="&lt;div&gt;&lt;div&gt;&lt;font style=&quot;font-size: 14px;&quot;&gt;output :&amp;nbsp;&lt;/font&gt;&lt;span style=&quot;caret-color: rgb(0, 0, 0); background-color: initial;&quot;&gt;CHEASE_out, profiles, shot_info, workdir&lt;/span&gt;&lt;/div&gt;&lt;/div&gt;&lt;div&gt;&lt;/div&gt;&lt;div&gt;&lt;/div&gt;" style="text;strokeColor=default;fillColor=none;align=left;verticalAlign=middle;spacingLeft=4;spacingRight=4;overflow=hidden;points=[[0,0.5],[1,0.5]];portConstraint=eastwest;rotatable=0;whiteSpace=wrap;html=1;fontFamily=Times New Roman;" parent="UKQ700S80o_2FQXmhF7d-51" vertex="1">
          <mxGeometry y="80" width="273.12" height="50" as="geometry" />
        </mxCell>
        <mxCell id="UKQ700S80o_2FQXmhF7d-54" value="&lt;div&gt;&lt;font style=&quot;font-size: 14px;&quot;&gt;function:&amp;nbsp; the main function to run CHEASE package for equilibrium profiles.&lt;/font&gt;&lt;/div&gt;" style="text;strokeColor=default;fillColor=none;align=left;verticalAlign=middle;spacingLeft=4;spacingRight=4;overflow=hidden;points=[[0,0.5],[1,0.5]];portConstraint=eastwest;rotatable=0;whiteSpace=wrap;html=1;fontFamily=Times New Roman;" parent="UKQ700S80o_2FQXmhF7d-51" vertex="1">
          <mxGeometry y="130" width="273.12" height="50" as="geometry" />
        </mxCell>
        <mxCell id="OCc5EwqsKGKzAY990dn--5" value="&lt;b style=&quot;forced-color-adjust: none; font-family: Helvetica; font-style: normal; font-variant-ligatures: normal; font-variant-caps: normal; letter-spacing: normal; orphans: 2; text-align: center; text-indent: 0px; text-transform: none; widows: 2; word-spacing: 0px; -webkit-text-stroke-width: 0px; white-space: nowrap; text-decoration-thickness: initial; text-decoration-style: initial; text-decoration-color: initial;&quot;&gt;&lt;font size=&quot;1&quot; color=&quot;#ff0000&quot; style=&quot;forced-color-adjust: none;&quot; face=&quot;Times New Roman&quot;&gt;&lt;u style=&quot;forced-color-adjust: none; font-size: 16px;&quot;&gt;balloo=True&lt;/u&gt;&lt;/font&gt;&lt;/b&gt;" style="edgeStyle=entityRelationEdgeStyle;fontSize=12;html=1;endArrow=ERzeroToMany;endFill=1;startArrow=ERzeroToMany;rounded=0;entryX=0;entryY=0.5;entryDx=0;entryDy=0;exitX=1;exitY=0.5;exitDx=0;exitDy=0;" edge="1" parent="1c1d494c118603dd-1" source="UKQ700S80o_2FQXmhF7d-53" target="UKQ700S80o_2FQXmhF7d-99">
          <mxGeometry width="100" height="100" relative="1" as="geometry">
            <mxPoint x="590" y="570" as="sourcePoint" />
            <mxPoint x="820" y="400" as="targetPoint" />
            <Array as="points">
              <mxPoint x="810" y="420" />
              <mxPoint x="780" y="400" />
            </Array>
          </mxGeometry>
        </mxCell>
        <mxCell id="OCc5EwqsKGKzAY990dn--6" value="&lt;b&gt;&lt;font size=&quot;1&quot; color=&quot;#ff0000&quot; style=&quot;&quot; face=&quot;Times New Roman&quot;&gt;&lt;u style=&quot;font-size: 16px;&quot;&gt;fullana=True&lt;/u&gt;&lt;/font&gt;&lt;/b&gt;" style="edgeStyle=entityRelationEdgeStyle;fontSize=12;html=1;endArrow=ERzeroToMany;endFill=1;startArrow=ERzeroToMany;rounded=0;entryX=0;entryY=0.5;entryDx=0;entryDy=0;exitX=1;exitY=0.5;exitDx=0;exitDy=0;" edge="1" parent="1c1d494c118603dd-1" source="UKQ700S80o_2FQXmhF7d-53" target="UKQ700S80o_2FQXmhF7d-107">
          <mxGeometry width="100" height="100" relative="1" as="geometry">
            <mxPoint x="590" y="570" as="sourcePoint" />
            <mxPoint x="690" y="470" as="targetPoint" />
          </mxGeometry>
        </mxCell>
        <mxCell id="UKQ700S80o_2FQXmhF7d-12" value="&lt;font style=&quot;font-size: 22px;&quot;&gt;Third level&lt;/font&gt;" style="swimlane;html=1;startSize=40;fontFamily=Times New Roman;fontSize=22;" parent="1c1d494c118603dd-1" vertex="1">
          <mxGeometry x="610" y="60" width="430" height="690" as="geometry" />
        </mxCell>
        <mxCell id="UKQ700S80o_2FQXmhF7d-97" value="&lt;code style=&quot;caret-color: rgb(0, 0, 0); text-align: start;&quot;&gt;&lt;font face=&quot;Times New Roman&quot; style=&quot;font-size: 16px;&quot;&gt;&lt;b&gt;pedestal_ballooning&lt;/b&gt;&lt;/font&gt;&lt;/code&gt;" style="swimlane;fontStyle=0;childLayout=stackLayout;horizontal=1;startSize=30;horizontalStack=0;resizeParent=1;resizeParentMax=0;resizeLast=0;collapsible=1;marginBottom=0;whiteSpace=wrap;html=1;fillColor=#ffe6cc;strokeColor=#d79b00;fontFamily=Times New Roman;" parent="UKQ700S80o_2FQXmhF7d-12" vertex="1">
          <mxGeometry x="130" y="60" width="286.56" height="170" as="geometry" />
        </mxCell>
        <mxCell id="UKQ700S80o_2FQXmhF7d-98" value="&lt;div style=&quot;font-size: 14px;&quot;&gt;&lt;font style=&quot;font-size: 14px;&quot; color=&quot;#131300&quot;&gt;&lt;span style=&quot;caret-color: rgb(19, 19, 0); text-wrap: nowrap; font-size: 14px;&quot;&gt;input :&amp;nbsp;&lt;/span&gt;&lt;/font&gt;&lt;span style=&quot;caret-color: rgb(0, 0, 0); background-color: initial;&quot;&gt;expeq&lt;/span&gt;&lt;/div&gt;" style="text;strokeColor=default;fillColor=none;align=left;verticalAlign=middle;spacingLeft=4;spacingRight=4;overflow=hidden;points=[[0,0.5],[1,0.5]];portConstraint=eastwest;rotatable=0;whiteSpace=wrap;html=1;fontFamily=Times New Roman;fontSize=14;" parent="UKQ700S80o_2FQXmhF7d-97" vertex="1">
          <mxGeometry y="30" width="286.56" height="30" as="geometry" />
        </mxCell>
        <mxCell id="UKQ700S80o_2FQXmhF7d-99" value="&lt;div&gt;&lt;div&gt;&lt;font style=&quot;font-size: 14px;&quot;&gt;output : None&amp;nbsp;&lt;/font&gt;&lt;/div&gt;&lt;/div&gt;&lt;div&gt;&lt;/div&gt;&lt;div&gt;&lt;/div&gt;" style="text;strokeColor=default;fillColor=none;align=left;verticalAlign=middle;spacingLeft=4;spacingRight=4;overflow=hidden;points=[[0,0.5],[1,0.5]];portConstraint=eastwest;rotatable=0;whiteSpace=wrap;html=1;fontFamily=Times New Roman;" parent="UKQ700S80o_2FQXmhF7d-97" vertex="1">
          <mxGeometry y="60" width="286.56" height="50" as="geometry" />
        </mxCell>
        <mxCell id="UKQ700S80o_2FQXmhF7d-100" value="&lt;div style=&quot;font-size: 14px;&quot;&gt;&lt;font style=&quot;font-size: 14px;&quot; face=&quot;Times New Roman&quot;&gt;&lt;font style=&quot;font-size: 14px;&quot;&gt;function: calculate&amp;nbsp;&lt;/font&gt;&lt;span style=&quot;background-color: transparent; color: rgb(29, 28, 29); white-space-collapse: preserve;&quot;&gt;infinity-ballooning mode stability&lt;/span&gt;&lt;/font&gt;&lt;/div&gt;" style="text;strokeColor=default;fillColor=none;align=left;verticalAlign=middle;spacingLeft=4;spacingRight=4;overflow=hidden;points=[[0,0.5],[1,0.5]];portConstraint=eastwest;rotatable=0;whiteSpace=wrap;html=1;fontFamily=Times New Roman;" parent="UKQ700S80o_2FQXmhF7d-97" vertex="1">
          <mxGeometry y="110" width="286.56" height="60" as="geometry" />
        </mxCell>
        <mxCell id="UKQ700S80o_2FQXmhF7d-105" value="&lt;code style=&quot;caret-color: rgb(0, 0, 0); text-align: start;&quot;&gt;&lt;font size=&quot;1&quot; face=&quot;Times New Roman&quot;&gt;&lt;b style=&quot;font-size: 16px;&quot;&gt;tcv_stability_diagram&lt;/b&gt;&lt;/font&gt;&lt;/code&gt;" style="swimlane;fontStyle=0;childLayout=stackLayout;horizontal=1;startSize=30;horizontalStack=0;resizeParent=1;resizeParentMax=0;resizeLast=0;collapsible=1;marginBottom=0;whiteSpace=wrap;html=1;fillColor=#ffe6cc;strokeColor=#d79b00;fontFamily=Times New Roman;" parent="UKQ700S80o_2FQXmhF7d-12" vertex="1">
          <mxGeometry x="130" y="415" width="286.56" height="180" as="geometry" />
        </mxCell>
        <mxCell id="UKQ700S80o_2FQXmhF7d-106" value="&lt;div style=&quot;font-size: 14px;&quot;&gt;&lt;font style=&quot;font-size: 14px;&quot; color=&quot;#131300&quot;&gt;&lt;span style=&quot;caret-color: rgb(19, 19, 0); text-wrap: nowrap; font-size: 14px;&quot;&gt;input :&amp;nbsp;&lt;/span&gt;&lt;/font&gt;&lt;span style=&quot;caret-color: rgb(0, 0, 0); background-color: initial;&quot;&gt;expeq&lt;/span&gt;&lt;/div&gt;" style="text;strokeColor=default;fillColor=none;align=left;verticalAlign=middle;spacingLeft=4;spacingRight=4;overflow=hidden;points=[[0,0.5],[1,0.5]];portConstraint=eastwest;rotatable=0;whiteSpace=wrap;html=1;fontFamily=Times New Roman;fontSize=14;" parent="UKQ700S80o_2FQXmhF7d-105" vertex="1">
          <mxGeometry y="30" width="286.56" height="50" as="geometry" />
        </mxCell>
        <mxCell id="UKQ700S80o_2FQXmhF7d-107" value="&lt;div style=&quot;font-size: 14px;&quot;&gt;&lt;div style=&quot;font-size: 14px;&quot;&gt;output : None&lt;/div&gt;&lt;/div&gt;&lt;div style=&quot;font-size: 14px;&quot;&gt;&lt;/div&gt;&lt;div style=&quot;font-size: 14px;&quot;&gt;&lt;/div&gt;" style="text;strokeColor=default;fillColor=none;align=left;verticalAlign=middle;spacingLeft=4;spacingRight=4;overflow=hidden;points=[[0,0.5],[1,0.5]];portConstraint=eastwest;rotatable=0;whiteSpace=wrap;html=1;fontFamily=Times New Roman;fontSize=14;" parent="UKQ700S80o_2FQXmhF7d-105" vertex="1">
          <mxGeometry y="80" width="286.56" height="50" as="geometry" />
        </mxCell>
        <mxCell id="UKQ700S80o_2FQXmhF7d-108" value="&lt;div style=&quot;font-size: 14px;&quot;&gt;function: Calculate the BALM/KINX stability under different equilibrium profiles from CAXE&lt;/div&gt;" style="text;strokeColor=default;fillColor=none;align=left;verticalAlign=middle;spacingLeft=4;spacingRight=4;overflow=hidden;points=[[0,0.5],[1,0.5]];portConstraint=eastwest;rotatable=0;whiteSpace=wrap;html=1;fontFamily=Times New Roman;fontSize=14;" parent="UKQ700S80o_2FQXmhF7d-105" vertex="1">
          <mxGeometry y="130" width="286.56" height="50" as="geometry" />
        </mxCell>
        <mxCell id="V6kkqUvpd2kyLeAWoMDx-3" value="" style="shape=or;whiteSpace=wrap;html=1;rotation=-180;fillColor=#FF9933;fillStyle=solid;opacity=60;strokeWidth=2;" parent="1" vertex="1">
          <mxGeometry x="360" y="1780" width="90" height="120" as="geometry" />
        </mxCell>
        <mxCell id="V6kkqUvpd2kyLeAWoMDx-4" value="" style="whiteSpace=wrap;html=1;aspect=fixed;dashed=1;strokeWidth=4;perimeterSpacing=1;strokeColor=#FF0000;" parent="1" vertex="1">
          <mxGeometry x="580" y="1400" width="40" height="40" as="geometry" />
        </mxCell>
        <mxCell id="V6kkqUvpd2kyLeAWoMDx-5" value="" style="whiteSpace=wrap;html=1;aspect=fixed;dashed=1;strokeWidth=4;perimeterSpacing=1;strokeColor=#FF0000;" parent="1" vertex="1">
          <mxGeometry x="630" y="1495" width="30" height="30" as="geometry" />
        </mxCell>
        <mxCell id="V6kkqUvpd2kyLeAWoMDx-6" value="" style="whiteSpace=wrap;html=1;aspect=fixed;dashed=1;strokeWidth=4;perimeterSpacing=1;strokeColor=#FF0000;" parent="1" vertex="1">
          <mxGeometry x="670" y="1590" width="30" height="30" as="geometry" />
        </mxCell>
        <mxCell id="V6kkqUvpd2kyLeAWoMDx-8" value="" style="whiteSpace=wrap;html=1;aspect=fixed;dashed=1;strokeWidth=4;perimeterSpacing=1;strokeColor=#FF0000;" parent="1" vertex="1">
          <mxGeometry x="580" y="1770" width="30" height="30" as="geometry" />
        </mxCell>
        <mxCell id="V6kkqUvpd2kyLeAWoMDx-9" value="" style="whiteSpace=wrap;html=1;aspect=fixed;dashed=1;strokeWidth=4;perimeterSpacing=1;strokeColor=#FF0000;" parent="1" vertex="1">
          <mxGeometry x="430" y="1810" width="30" height="30" as="geometry" />
        </mxCell>
        <mxCell id="V6kkqUvpd2kyLeAWoMDx-13" value="Z" style="endArrow=classic;html=1;rounded=0;fontSize=21;fontStyle=1;labelPosition=left;verticalLabelPosition=top;align=right;verticalAlign=bottom;spacingLeft=23;spacingBottom=0;spacingRight=10;" parent="1" edge="1">
          <mxGeometry x="0.0014" width="50" height="50" relative="1" as="geometry">
            <mxPoint x="320" y="2010" as="sourcePoint" />
            <mxPoint x="320" y="1360" as="targetPoint" />
            <mxPoint as="offset" />
          </mxGeometry>
        </mxCell>
        <mxCell id="V6kkqUvpd2kyLeAWoMDx-16" value="R" style="endArrow=classic;html=1;rounded=0;fontSize=21;labelPosition=right;verticalLabelPosition=bottom;align=left;verticalAlign=top;fontStyle=1" parent="1" edge="1">
          <mxGeometry width="50" height="50" relative="1" as="geometry">
            <mxPoint x="240" y="1920" as="sourcePoint" />
            <mxPoint x="720" y="1920" as="targetPoint" />
          </mxGeometry>
        </mxCell>
        <mxCell id="V6kkqUvpd2kyLeAWoMDx-19" value="&lt;p class=&quot;MsoNormal&quot;&gt;&lt;span style=&quot;mso-spacerun:&#39;yes&#39;;font-family:&#39;Times New Roman Regular&#39;;mso-fareast-font-family:宋体;&lt;br/&gt;font-weight:normal;font-size:14.0000pt;mso-font-kerning:0.0000pt;&quot;&gt;Thomson scattering&amp;nbsp;&lt;/span&gt;&lt;span style=&quot;font-family: &amp;quot;Times New Roman Regular&amp;quot;; font-size: 14pt; text-align: justify; background-color: initial;&quot;&gt;receiver&lt;/span&gt;&lt;/p&gt;" style="whiteSpace=wrap;html=1;fillColor=#f5f5f5;strokeColor=#666666;fontColor=#333333;" parent="1" vertex="1">
          <mxGeometry x="770" y="1480" width="180" height="60" as="geometry" />
        </mxCell>
        <mxCell id="V6kkqUvpd2kyLeAWoMDx-20" value="" style="edgeStyle=orthogonalEdgeStyle;rounded=0;orthogonalLoop=1;jettySize=auto;html=1;exitX=0.5;exitY=1;exitDx=0;exitDy=0;jumpStyle=none;" parent="1" source="V6kkqUvpd2kyLeAWoMDx-5" target="V6kkqUvpd2kyLeAWoMDx-19" edge="1">
          <mxGeometry relative="1" as="geometry">
            <Array as="points">
              <mxPoint x="710" y="1526" />
              <mxPoint x="710" y="1510" />
            </Array>
          </mxGeometry>
        </mxCell>
        <mxCell id="V6kkqUvpd2kyLeAWoMDx-21" value="" style="endArrow=classic;html=1;rounded=0;exitX=0.006;exitY=1.002;exitDx=0;exitDy=0;exitPerimeter=0;" parent="1" source="V6kkqUvpd2kyLeAWoMDx-1" target="V6kkqUvpd2kyLeAWoMDx-22" edge="1">
          <mxGeometry width="50" height="50" relative="1" as="geometry">
            <mxPoint x="700" y="1670" as="sourcePoint" />
            <mxPoint x="510" y="1820" as="targetPoint" />
          </mxGeometry>
        </mxCell>
        <mxCell id="V6kkqUvpd2kyLeAWoMDx-22" value="X-point" style="rounded=0;whiteSpace=wrap;html=1;fontSize=21;fillColor=#f5f5f5;strokeColor=#666666;fontColor=#333333;" parent="1" vertex="1">
          <mxGeometry x="530" y="1810" width="120" height="60" as="geometry" />
        </mxCell>
        <mxCell id="V6kkqUvpd2kyLeAWoMDx-26" value="" style="shape=link;html=1;rounded=0;strokeColor=#3333FF;" parent="1" edge="1">
          <mxGeometry width="100" relative="1" as="geometry">
            <mxPoint x="610" y="1910" as="sourcePoint" />
            <mxPoint x="710" y="1820" as="targetPoint" />
          </mxGeometry>
        </mxCell>
        <mxCell id="V6kkqUvpd2kyLeAWoMDx-27" value="" style="shape=link;html=1;rounded=0;strokeColor=#3333FF;" parent="1" edge="1">
          <mxGeometry width="100" relative="1" as="geometry">
            <mxPoint x="710" y="1820" as="sourcePoint" />
            <mxPoint x="720" y="1430" as="targetPoint" />
          </mxGeometry>
        </mxCell>
        <mxCell id="V6kkqUvpd2kyLeAWoMDx-28" value="" style="shape=link;html=1;rounded=0;strokeColor=#3333FF;" parent="1" edge="1">
          <mxGeometry width="100" relative="1" as="geometry">
            <mxPoint x="350" y="1910" as="sourcePoint" />
            <mxPoint x="610" y="1910" as="targetPoint" />
          </mxGeometry>
        </mxCell>
        <mxCell id="V6kkqUvpd2kyLeAWoMDx-29" value="" style="shape=link;html=1;rounded=0;strokeColor=#3333FF;" parent="1" edge="1">
          <mxGeometry width="100" relative="1" as="geometry">
            <mxPoint x="350" y="1910" as="sourcePoint" />
            <mxPoint x="350" y="1340" as="targetPoint" />
          </mxGeometry>
        </mxCell>
        <mxCell id="V6kkqUvpd2kyLeAWoMDx-30" value="" style="shape=link;html=1;rounded=0;strokeColor=#3333FF;" parent="1" edge="1">
          <mxGeometry width="100" relative="1" as="geometry">
            <mxPoint x="350" y="1340" as="sourcePoint" />
            <mxPoint x="600" y="1340" as="targetPoint" />
          </mxGeometry>
        </mxCell>
        <mxCell id="V6kkqUvpd2kyLeAWoMDx-31" value="" style="shape=link;html=1;rounded=0;strokeColor=#3333FF;" parent="1" edge="1">
          <mxGeometry width="100" relative="1" as="geometry">
            <mxPoint x="600" y="1340" as="sourcePoint" />
            <mxPoint x="720" y="1430" as="targetPoint" />
          </mxGeometry>
        </mxCell>
        <mxCell id="V6kkqUvpd2kyLeAWoMDx-32" value="" style="endArrow=classic;html=1;rounded=0;exitX=0.938;exitY=0.737;exitDx=0;exitDy=0;exitPerimeter=0;" parent="1" source="V6kkqUvpd2kyLeAWoMDx-1" target="V6kkqUvpd2kyLeAWoMDx-33" edge="1">
          <mxGeometry width="50" height="50" relative="1" as="geometry">
            <mxPoint x="700" y="1670" as="sourcePoint" />
            <mxPoint x="750" y="1688" as="targetPoint" />
          </mxGeometry>
        </mxCell>
        <mxCell id="V6kkqUvpd2kyLeAWoMDx-33" value="&lt;font style=&quot;font-size: 21px;&quot;&gt;plasma boundary&lt;/font&gt;" style="rounded=0;whiteSpace=wrap;html=1;fillColor=#f5f5f5;strokeColor=#666666;fontColor=#333333;" parent="1" vertex="1">
          <mxGeometry x="760" y="1658" width="180" height="60" as="geometry" />
        </mxCell>
        <mxCell id="V6kkqUvpd2kyLeAWoMDx-46" style="edgeStyle=orthogonalEdgeStyle;rounded=0;orthogonalLoop=1;jettySize=auto;html=1;entryX=0.5;entryY=1;entryDx=0;entryDy=0;" parent="1" source="V6kkqUvpd2kyLeAWoMDx-44" target="V6kkqUvpd2kyLeAWoMDx-45" edge="1">
          <mxGeometry relative="1" as="geometry" />
        </mxCell>
        <mxCell id="V6kkqUvpd2kyLeAWoMDx-44" value="" style="shape=sumEllipse;perimeter=ellipsePerimeter;whiteSpace=wrap;html=1;backgroundOutline=1;" parent="1" vertex="1">
          <mxGeometry x="540" y="1590" width="20" height="20" as="geometry" />
        </mxCell>
        <mxCell id="V6kkqUvpd2kyLeAWoMDx-45" value="plasma center" style="rounded=0;whiteSpace=wrap;html=1;fillColor=#f5f5f5;strokeColor=#666666;fontColor=#333333;" parent="1" vertex="1">
          <mxGeometry x="500" y="1525" width="100" height="40" as="geometry" />
        </mxCell>
        <mxCell id="V6kkqUvpd2kyLeAWoMDx-48" value="" style="whiteSpace=wrap;html=1;aspect=fixed;dashed=1;strokeWidth=4;perimeterSpacing=1;strokeColor=#FF0000;" parent="1" vertex="1">
          <mxGeometry x="630" y="1700" width="30" height="30" as="geometry" />
        </mxCell>
      </root>
    </mxGraphModel>
  </diagram>
  <diagram id="EJhzM35wPNl-HNFCeapX" name="第 2 页">
    <mxGraphModel dx="1740" dy="1178" grid="1" gridSize="10" guides="1" tooltips="1" connect="1" arrows="1" fold="1" page="1" pageScale="1" pageWidth="827" pageHeight="1169" math="1" shadow="0">
      <root>
        <mxCell id="0" />
        <mxCell id="1" parent="0" />
        <mxCell id="1DNohcbgQMekTAIpB6VI-5" style="edgeStyle=orthogonalEdgeStyle;rounded=0;orthogonalLoop=1;jettySize=auto;html=1;entryX=0.5;entryY=0;entryDx=0;entryDy=0;" edge="1" parent="1" source="1DNohcbgQMekTAIpB6VI-1" target="1DNohcbgQMekTAIpB6VI-2">
          <mxGeometry relative="1" as="geometry" />
        </mxCell>
        <mxCell id="1DNohcbgQMekTAIpB6VI-1" value="&lt;p style=&quot;&quot;&gt;&lt;font style=&quot;background-color: initial;&quot;&gt;&lt;font style=&quot;&quot; face=&quot;Tahoma&quot;&gt;&lt;b style=&quot;&quot;&gt;&lt;font style=&quot;font-size: 18px;&quot;&gt;Start&lt;/font&gt;&lt;/b&gt;&lt;br&gt;&lt;span style=&quot;font-size: 14px;&quot;&gt;Initialize&lt;/span&gt;&lt;/font&gt;&lt;span style=&quot;font-size: 14px;&quot;&gt;&amp;nbsp;&lt;/span&gt;&lt;/font&gt;&lt;span style=&quot;font-size: 12px; background-color: initial;&quot;&gt;&amp;nbsp;&lt;/span&gt;&lt;span style=&quot;font-size: 14px; color: rgb(232, 62, 140); font-family: SFMono-Regular, Menlo, Monaco, Consolas, &amp;quot;Liberation Mono&amp;quot;, &amp;quot;Courier New&amp;quot;, monospace; text-align: left; background-color: rgb(255, 255, 255);&quot;&gt;\(\psi\) &lt;/span&gt;&lt;span style=&quot;font-size: 14px; text-align: left; background-color: rgb(255, 255, 255);&quot;&gt;&lt;font face=&quot;Tahoma&quot;&gt;and&lt;/font&gt;&lt;/span&gt;&lt;span style=&quot;font-size: 14px; color: rgb(232, 62, 140); font-family: SFMono-Regular, Menlo, Monaco, Consolas, &amp;quot;Liberation Mono&amp;quot;, &amp;quot;Courier New&amp;quot;, monospace; text-align: left; background-color: rgb(255, 255, 255);&quot;&gt;&amp;nbsp;&lt;/span&gt;&lt;span style=&quot;font-size: 14px; text-align: left; background-color: rgb(255, 255, 255);&quot;&gt;&lt;font style=&quot;&quot; color=&quot;#e83e8c&quot;&gt;&lt;font face=&quot;SFMono-Regular, Menlo, Monaco, Consolas, Liberation Mono, Courier New, monospace&quot;&gt;\(C_{i}(s)\)&lt;br&gt;&lt;/font&gt;&lt;/font&gt;&lt;/span&gt;&lt;span style=&quot;font-size: 14px; font-family: Tahoma; background-color: rgb(255, 255, 255); text-align: left;&quot;&gt;Set coarse equilibrium mesh&lt;/span&gt;&lt;/p&gt;" style="rounded=0;whiteSpace=wrap;html=1;labelBackgroundColor=none;" vertex="1" parent="1">
          <mxGeometry x="50" y="20" width="190" height="80" as="geometry" />
        </mxCell>
        <mxCell id="1DNohcbgQMekTAIpB6VI-8" value="" style="edgeStyle=orthogonalEdgeStyle;rounded=0;orthogonalLoop=1;jettySize=auto;html=1;" edge="1" parent="1" source="1DNohcbgQMekTAIpB6VI-2" target="1DNohcbgQMekTAIpB6VI-7">
          <mxGeometry relative="1" as="geometry" />
        </mxCell>
        <mxCell id="1DNohcbgQMekTAIpB6VI-2" value="&lt;font style=&quot;font-size: 14px;&quot; face=&quot;Tahoma&quot;&gt;Construct and decompose Matrix&lt;/font&gt;" style="whiteSpace=wrap;html=1;labelBackgroundColor=none;" vertex="1" parent="1">
          <mxGeometry x="77.5" y="150" width="135" height="60" as="geometry" />
        </mxCell>
        <mxCell id="1DNohcbgQMekTAIpB6VI-10" value="" style="edgeStyle=orthogonalEdgeStyle;rounded=0;orthogonalLoop=1;jettySize=auto;html=1;" edge="1" parent="1" source="1DNohcbgQMekTAIpB6VI-7" target="1DNohcbgQMekTAIpB6VI-9">
          <mxGeometry relative="1" as="geometry" />
        </mxCell>
        <mxCell id="1DNohcbgQMekTAIpB6VI-7" value="&lt;font style=&quot;font-size: 14px;&quot; face=&quot;Tahoma&quot;&gt;Forward and backward substitution for&lt;/font&gt;&amp;nbsp;&amp;nbsp;&lt;span style=&quot;color: rgb(232, 62, 140); font-family: SFMono-Regular, Menlo, Monaco, Consolas, &amp;quot;Liberation Mono&amp;quot;, &amp;quot;Courier New&amp;quot;, monospace; font-size: 14px; text-align: left; background-color: rgb(255, 255, 255);&quot;&gt;\(\psi\)&lt;/span&gt;" style="whiteSpace=wrap;html=1;labelBackgroundColor=none;" vertex="1" parent="1">
          <mxGeometry x="55.63" y="280" width="178.75" height="50" as="geometry" />
        </mxCell>
        <mxCell id="1DNohcbgQMekTAIpB6VI-12" value="&lt;font face=&quot;Tahoma&quot; style=&quot;font-size: 16px;&quot;&gt;No&lt;/font&gt;" style="edgeStyle=orthogonalEdgeStyle;rounded=0;orthogonalLoop=1;jettySize=auto;html=1;labelPosition=left;verticalLabelPosition=middle;align=right;verticalAlign=middle;spacingLeft=0;labelBorderColor=none;" edge="1" parent="1" source="1DNohcbgQMekTAIpB6VI-9" target="1DNohcbgQMekTAIpB6VI-11">
          <mxGeometry relative="1" as="geometry" />
        </mxCell>
        <mxCell id="1DNohcbgQMekTAIpB6VI-15" value="&lt;font style=&quot;font-size: 16px;&quot; face=&quot;Tahoma&quot;&gt;Yes&lt;/font&gt;" style="edgeStyle=orthogonalEdgeStyle;rounded=0;orthogonalLoop=1;jettySize=auto;html=1;" edge="1" parent="1" source="1DNohcbgQMekTAIpB6VI-9" target="1DNohcbgQMekTAIpB6VI-14">
          <mxGeometry relative="1" as="geometry" />
        </mxCell>
        <mxCell id="1DNohcbgQMekTAIpB6VI-9" value="&lt;font style=&quot;font-size: 14px;&quot; face=&quot;Tahoma&quot;&gt;Converged ?&lt;/font&gt;" style="whiteSpace=wrap;html=1;labelBackgroundColor=none;" vertex="1" parent="1">
          <mxGeometry x="85.01" y="370" width="120" height="40" as="geometry" />
        </mxCell>
        <mxCell id="1DNohcbgQMekTAIpB6VI-13" style="edgeStyle=orthogonalEdgeStyle;rounded=0;orthogonalLoop=1;jettySize=auto;html=1;exitX=0.5;exitY=0;exitDx=0;exitDy=0;" edge="1" parent="1" source="1DNohcbgQMekTAIpB6VI-11">
          <mxGeometry relative="1" as="geometry">
            <mxPoint x="150" y="260" as="targetPoint" />
            <mxPoint x="340.05882352941194" y="320" as="sourcePoint" />
            <Array as="points">
              <mxPoint x="370" y="260" />
            </Array>
          </mxGeometry>
        </mxCell>
        <mxCell id="1DNohcbgQMekTAIpB6VI-11" value="&lt;font style=&quot;font-size: 14px;&quot; face=&quot;Tahoma&quot;&gt;Compute&lt;/font&gt;&amp;nbsp;&amp;nbsp;&lt;span style=&quot;font-size: 14px; text-align: left; background-color: rgb(255, 255, 255);&quot;&gt;&lt;font style=&quot;color: rgb(232, 62, 140);&quot; face=&quot;SFMono-Regular, Menlo, Monaco, Consolas, Liberation Mono, Courier New, monospace&quot;&gt;\(j_{\phi}\)&lt;/font&gt;&lt;br&gt;&lt;font style=&quot;&quot; face=&quot;Tahoma&quot;&gt;Fixed&lt;/font&gt;&lt;/span&gt;&lt;span style=&quot;color: rgb(232, 62, 140); font-family: SFMono-Regular, Menlo, Monaco, Consolas, &amp;quot;Liberation Mono&amp;quot;, &amp;quot;Courier New&amp;quot;, monospace; font-size: 14px; text-align: left; background-color: rgb(255, 255, 255);&quot;&gt;&amp;nbsp;&lt;/span&gt;&lt;span style=&quot;color: rgb(232, 62, 140); font-family: SFMono-Regular, Menlo, Monaco, Consolas, &amp;quot;Liberation Mono&amp;quot;, &amp;quot;Courier New&amp;quot;, monospace; font-size: 14px; text-align: left; background-color: rgb(255, 255, 255);&quot;&gt;\(C_{i}(s)\)&lt;/span&gt;" style="whiteSpace=wrap;html=1;labelBackgroundColor=none;" vertex="1" parent="1">
          <mxGeometry x="310" y="300" width="120" height="60" as="geometry" />
        </mxCell>
        <mxCell id="1DNohcbgQMekTAIpB6VI-18" value="" style="edgeStyle=orthogonalEdgeStyle;rounded=0;orthogonalLoop=1;jettySize=auto;html=1;" edge="1" parent="1" source="1DNohcbgQMekTAIpB6VI-14" target="1DNohcbgQMekTAIpB6VI-17">
          <mxGeometry relative="1" as="geometry" />
        </mxCell>
        <mxCell id="1DNohcbgQMekTAIpB6VI-14" value="&lt;font style=&quot;font-size: 14px;&quot; face=&quot;Tahoma&quot;&gt;Mapping for &lt;br&gt;computation of&lt;/font&gt;&amp;nbsp;&lt;span style=&quot;color: rgb(232, 62, 140); font-family: SFMono-Regular, Menlo, Monaco, Consolas, &amp;quot;Liberation Mono&amp;quot;, &amp;quot;Courier New&amp;quot;, monospace; font-size: 14px; text-align: left; background-color: rgb(255, 255, 255);&quot;&gt;\(C_{i}(s)\)&lt;/span&gt;" style="whiteSpace=wrap;html=1;labelBackgroundColor=none;" vertex="1" parent="1">
          <mxGeometry x="62.510000000000005" y="460" width="164.99" height="60" as="geometry" />
        </mxCell>
        <mxCell id="1DNohcbgQMekTAIpB6VI-20" value="&lt;meta charset=&quot;utf-8&quot;&gt;&lt;span style=&quot;color: rgb(0, 0, 0); font-family: Tahoma; font-size: 16px; font-style: normal; font-variant-ligatures: normal; font-variant-caps: normal; font-weight: 400; letter-spacing: normal; orphans: 2; text-align: right; text-indent: 0px; text-transform: none; widows: 2; word-spacing: 0px; -webkit-text-stroke-width: 0px; white-space: nowrap; background-color: rgb(255, 255, 255); text-decoration-thickness: initial; text-decoration-style: initial; text-decoration-color: initial; display: inline !important; float: none;&quot;&gt;No&lt;/span&gt;" style="edgeStyle=orthogonalEdgeStyle;rounded=0;orthogonalLoop=1;jettySize=auto;html=1;" edge="1" parent="1" source="1DNohcbgQMekTAIpB6VI-17" target="1DNohcbgQMekTAIpB6VI-19">
          <mxGeometry relative="1" as="geometry" />
        </mxCell>
        <mxCell id="1DNohcbgQMekTAIpB6VI-23" value="&lt;meta charset=&quot;utf-8&quot;&gt;&lt;span style=&quot;color: rgb(0, 0, 0); font-family: Tahoma; font-size: 16px; font-style: normal; font-variant-ligatures: normal; font-variant-caps: normal; font-weight: 400; letter-spacing: normal; orphans: 2; text-align: center; text-indent: 0px; text-transform: none; widows: 2; word-spacing: 0px; -webkit-text-stroke-width: 0px; white-space: nowrap; background-color: rgb(255, 255, 255); text-decoration-thickness: initial; text-decoration-style: initial; text-decoration-color: initial; display: inline !important; float: none;&quot;&gt;Yes&lt;/span&gt;" style="edgeStyle=orthogonalEdgeStyle;rounded=0;orthogonalLoop=1;jettySize=auto;html=1;" edge="1" parent="1" source="1DNohcbgQMekTAIpB6VI-17" target="1DNohcbgQMekTAIpB6VI-22">
          <mxGeometry relative="1" as="geometry" />
        </mxCell>
        <mxCell id="1DNohcbgQMekTAIpB6VI-17" value="&lt;span style=&quot;color: rgb(232, 62, 140); font-family: SFMono-Regular, Menlo, Monaco, Consolas, &amp;quot;Liberation Mono&amp;quot;, &amp;quot;Courier New&amp;quot;, monospace; font-size: 14px; font-style: normal; font-variant-ligatures: normal; font-variant-caps: normal; font-weight: 400; letter-spacing: normal; orphans: 2; text-align: left; text-indent: 0px; text-transform: none; widows: 2; word-spacing: 0px; -webkit-text-stroke-width: 0px; white-space: normal; background-color: rgb(255, 255, 255); text-decoration-thickness: initial; text-decoration-style: initial; text-decoration-color: initial; display: inline !important; float: none;&quot;&gt;\(C_{i}(s)\) &lt;/span&gt;&lt;span style=&quot;font-family: SFMono-Regular, Menlo, Monaco, Consolas, &amp;quot;Liberation Mono&amp;quot;, &amp;quot;Courier New&amp;quot;, monospace; font-size: 14px; font-style: normal; font-variant-ligatures: normal; font-variant-caps: normal; font-weight: 400; letter-spacing: normal; orphans: 2; text-align: left; text-indent: 0px; text-transform: none; widows: 2; word-spacing: 0px; -webkit-text-stroke-width: 0px; white-space: normal; background-color: rgb(255, 255, 255); text-decoration-thickness: initial; text-decoration-style: initial; text-decoration-color: initial; float: none; display: inline !important;&quot;&gt;Converged?&lt;/span&gt;" style="whiteSpace=wrap;html=1;labelBackgroundColor=none;" vertex="1" parent="1">
          <mxGeometry x="72.51" y="570" width="145" height="60" as="geometry" />
        </mxCell>
        <mxCell id="1DNohcbgQMekTAIpB6VI-21" style="edgeStyle=orthogonalEdgeStyle;rounded=0;orthogonalLoop=1;jettySize=auto;html=1;exitX=0.5;exitY=0;exitDx=0;exitDy=0;" edge="1" parent="1" source="1DNohcbgQMekTAIpB6VI-19">
          <mxGeometry relative="1" as="geometry">
            <mxPoint x="150" y="240" as="targetPoint" />
            <Array as="points">
              <mxPoint x="460" y="240" />
            </Array>
          </mxGeometry>
        </mxCell>
        <mxCell id="1DNohcbgQMekTAIpB6VI-19" value="Compute&amp;nbsp;&lt;span style=&quot;color: rgb(232, 62, 140); font-family: SFMono-Regular, Menlo, Monaco, Consolas, &amp;quot;Liberation Mono&amp;quot;, &amp;quot;Courier New&amp;quot;, monospace; font-size: 14px; text-align: left; background-color: rgb(255, 255, 255);&quot;&gt;\(C_{i}(s)\)&lt;br&gt;&lt;/span&gt;Fixed&amp;nbsp;&amp;nbsp;&lt;span style=&quot;color: rgb(232, 62, 140); font-family: SFMono-Regular, Menlo, Monaco, Consolas, &amp;quot;Liberation Mono&amp;quot;, &amp;quot;Courier New&amp;quot;, monospace; font-size: 14px; text-align: left; background-color: rgb(255, 255, 255);&quot;&gt;\(\psi\)&lt;/span&gt;&amp;nbsp;" style="whiteSpace=wrap;html=1;labelBackgroundColor=none;" vertex="1" parent="1">
          <mxGeometry x="400" y="410" width="120" height="60" as="geometry" />
        </mxCell>
        <mxCell id="1DNohcbgQMekTAIpB6VI-25" value="" style="edgeStyle=orthogonalEdgeStyle;rounded=0;orthogonalLoop=1;jettySize=auto;html=1;" edge="1" parent="1" source="1DNohcbgQMekTAIpB6VI-22" target="1DNohcbgQMekTAIpB6VI-24">
          <mxGeometry relative="1" as="geometry" />
        </mxCell>
        <mxCell id="1DNohcbgQMekTAIpB6VI-22" value="&lt;font face=&quot;Tahoma&quot; style=&quot;font-size: 14px;&quot;&gt;Balloning optimization or&lt;br&gt;Bootstrap current specification&lt;/font&gt;" style="whiteSpace=wrap;html=1;labelBackgroundColor=none;" vertex="1" parent="1">
          <mxGeometry x="43.76" y="680" width="202.49" height="60" as="geometry" />
        </mxCell>
        <mxCell id="1DNohcbgQMekTAIpB6VI-27" value="&lt;meta charset=&quot;utf-8&quot;&gt;&lt;span style=&quot;color: rgb(0, 0, 0); font-family: Tahoma; font-size: 16px; font-style: normal; font-variant-ligatures: normal; font-variant-caps: normal; font-weight: 400; letter-spacing: normal; orphans: 2; text-align: right; text-indent: 0px; text-transform: none; widows: 2; word-spacing: 0px; -webkit-text-stroke-width: 0px; white-space: nowrap; background-color: rgb(255, 255, 255); text-decoration-thickness: initial; text-decoration-style: initial; text-decoration-color: initial; display: inline !important; float: none;&quot;&gt;No&lt;/span&gt;" style="edgeStyle=orthogonalEdgeStyle;rounded=0;orthogonalLoop=1;jettySize=auto;html=1;" edge="1" parent="1" source="1DNohcbgQMekTAIpB6VI-24" target="1DNohcbgQMekTAIpB6VI-26">
          <mxGeometry relative="1" as="geometry" />
        </mxCell>
        <mxCell id="1DNohcbgQMekTAIpB6VI-30" value="&lt;meta charset=&quot;utf-8&quot;&gt;&lt;span style=&quot;color: rgb(0, 0, 0); font-family: Tahoma; font-size: 16px; font-style: normal; font-variant-ligatures: normal; font-variant-caps: normal; font-weight: 400; letter-spacing: normal; orphans: 2; text-align: center; text-indent: 0px; text-transform: none; widows: 2; word-spacing: 0px; -webkit-text-stroke-width: 0px; white-space: nowrap; background-color: rgb(255, 255, 255); text-decoration-thickness: initial; text-decoration-style: initial; text-decoration-color: initial; display: inline !important; float: none;&quot;&gt;Yes&lt;/span&gt;" style="edgeStyle=orthogonalEdgeStyle;rounded=0;orthogonalLoop=1;jettySize=auto;html=1;" edge="1" parent="1" source="1DNohcbgQMekTAIpB6VI-24" target="1DNohcbgQMekTAIpB6VI-29">
          <mxGeometry relative="1" as="geometry" />
        </mxCell>
        <mxCell id="1DNohcbgQMekTAIpB6VI-24" value="&lt;span style=&quot;color: rgb(232, 62, 140); font-family: SFMono-Regular, Menlo, Monaco, Consolas, &amp;quot;Liberation Mono&amp;quot;, &amp;quot;Courier New&amp;quot;, monospace; font-size: 14px; text-align: left; background-color: rgb(255, 255, 255);&quot;&gt;\(p&#39;\)&lt;/span&gt;&lt;span style=&quot;color: rgb(232, 62, 140); font-family: SFMono-Regular, Menlo, Monaco, Consolas, &amp;quot;Liberation Mono&amp;quot;, &amp;quot;Courier New&amp;quot;, monospace; font-size: 14px; text-align: left; background-color: rgb(255, 255, 255);&quot;&gt;&amp;nbsp;&lt;/span&gt;&lt;font style=&quot;font-size: 14px;&quot; face=&quot;Tahoma&quot;&gt;Converged?&lt;/font&gt;" style="whiteSpace=wrap;html=1;labelBackgroundColor=none;" vertex="1" parent="1">
          <mxGeometry x="67.5" y="780" width="155.01" height="60" as="geometry" />
        </mxCell>
        <mxCell id="1DNohcbgQMekTAIpB6VI-28" style="edgeStyle=orthogonalEdgeStyle;rounded=0;orthogonalLoop=1;jettySize=auto;html=1;exitX=0.5;exitY=0;exitDx=0;exitDy=0;" edge="1" parent="1" source="1DNohcbgQMekTAIpB6VI-26">
          <mxGeometry relative="1" as="geometry">
            <mxPoint x="150" y="220" as="targetPoint" />
            <Array as="points">
              <mxPoint x="555" y="220" />
            </Array>
          </mxGeometry>
        </mxCell>
        <mxCell id="1DNohcbgQMekTAIpB6VI-26" value="&lt;font face=&quot;Tahoma&quot; style=&quot;font-size: 14px;&quot;&gt;Modify&lt;/font&gt;&amp;nbsp;&lt;span style=&quot;color: rgb(232, 62, 140); font-family: SFMono-Regular, Menlo, Monaco, Consolas, &amp;quot;Liberation Mono&amp;quot;, &amp;quot;Courier New&amp;quot;, monospace; font-size: 14px; text-align: left; background-color: rgb(255, 255, 255);&quot;&gt;\(p&#39;\)&lt;/span&gt;&lt;span style=&quot;font-size: 14px; text-align: left; background-color: rgb(255, 255, 255);&quot;&gt;&lt;font face=&quot;Tahoma&quot;&gt;, move centre of equilibrium mesh onto magnetic axis&lt;/font&gt;&lt;/span&gt;" style="whiteSpace=wrap;html=1;labelBackgroundColor=none;" vertex="1" parent="1">
          <mxGeometry x="480" y="490" width="150" height="70" as="geometry" />
        </mxCell>
        <mxCell id="1DNohcbgQMekTAIpB6VI-33" value="&lt;meta charset=&quot;utf-8&quot;&gt;&lt;span style=&quot;color: rgb(0, 0, 0); font-family: Tahoma; font-size: 16px; font-style: normal; font-variant-ligatures: normal; font-variant-caps: normal; font-weight: 400; letter-spacing: normal; orphans: 2; text-align: right; text-indent: 0px; text-transform: none; widows: 2; word-spacing: 0px; -webkit-text-stroke-width: 0px; white-space: nowrap; background-color: rgb(255, 255, 255); text-decoration-thickness: initial; text-decoration-style: initial; text-decoration-color: initial; display: inline !important; float: none;&quot;&gt;No&lt;/span&gt;" style="edgeStyle=orthogonalEdgeStyle;rounded=0;orthogonalLoop=1;jettySize=auto;html=1;" edge="1" parent="1" source="1DNohcbgQMekTAIpB6VI-29" target="1DNohcbgQMekTAIpB6VI-32">
          <mxGeometry relative="1" as="geometry" />
        </mxCell>
        <mxCell id="1DNohcbgQMekTAIpB6VI-35" value="&lt;meta charset=&quot;utf-8&quot;&gt;&lt;span style=&quot;color: rgb(0, 0, 0); font-family: Tahoma; font-size: 16px; font-style: normal; font-variant-ligatures: normal; font-variant-caps: normal; font-weight: 400; letter-spacing: normal; orphans: 2; text-align: center; text-indent: 0px; text-transform: none; widows: 2; word-spacing: 0px; -webkit-text-stroke-width: 0px; white-space: nowrap; background-color: rgb(255, 255, 255); text-decoration-thickness: initial; text-decoration-style: initial; text-decoration-color: initial; display: inline !important; float: none;&quot;&gt;Yes&lt;/span&gt;" style="edgeStyle=orthogonalEdgeStyle;rounded=0;orthogonalLoop=1;jettySize=auto;html=1;" edge="1" parent="1" source="1DNohcbgQMekTAIpB6VI-29" target="1DNohcbgQMekTAIpB6VI-34">
          <mxGeometry relative="1" as="geometry" />
        </mxCell>
        <mxCell id="1DNohcbgQMekTAIpB6VI-29" value="&lt;font style=&quot;font-size: 14px;&quot; face=&quot;Tahoma&quot;&gt;Refined equilibrium mesh ?&lt;/font&gt;" style="whiteSpace=wrap;html=1;labelBackgroundColor=none;" vertex="1" parent="1">
          <mxGeometry x="52.510000000000005" y="900" width="185" height="60" as="geometry" />
        </mxCell>
        <mxCell id="1DNohcbgQMekTAIpB6VI-36" style="edgeStyle=orthogonalEdgeStyle;rounded=0;orthogonalLoop=1;jettySize=auto;html=1;" edge="1" parent="1">
          <mxGeometry relative="1" as="geometry">
            <mxPoint x="149" y="125" as="targetPoint" />
            <mxPoint x="642.0000000000002" y="575" as="sourcePoint" />
            <Array as="points">
              <mxPoint x="642" y="125" />
            </Array>
          </mxGeometry>
        </mxCell>
        <mxCell id="1DNohcbgQMekTAIpB6VI-32" value="&lt;font style=&quot;font-size: 14px;&quot; face=&quot;Tahoma&quot;&gt;Modify equilibrium mesh&lt;/font&gt;" style="whiteSpace=wrap;html=1;labelBackgroundColor=none;" vertex="1" parent="1">
          <mxGeometry x="590" y="580" width="106" height="65" as="geometry" />
        </mxCell>
        <mxCell id="1DNohcbgQMekTAIpB6VI-39" value="" style="edgeStyle=orthogonalEdgeStyle;rounded=0;orthogonalLoop=1;jettySize=auto;html=1;" edge="1" parent="1" source="1DNohcbgQMekTAIpB6VI-34" target="1DNohcbgQMekTAIpB6VI-38">
          <mxGeometry relative="1" as="geometry" />
        </mxCell>
        <mxCell id="1DNohcbgQMekTAIpB6VI-34" value="&lt;font style=&quot;font-size: 14px;&quot; face=&quot;Tahoma&quot;&gt;Fina mappings for stability and wave propagation codes&lt;/font&gt;" style="whiteSpace=wrap;html=1;labelBackgroundColor=none;" vertex="1" parent="1">
          <mxGeometry x="52.51" y="1020" width="187.49" height="60" as="geometry" />
        </mxCell>
        <mxCell id="1DNohcbgQMekTAIpB6VI-38" value="&lt;font style=&quot;font-size: 18px;&quot; face=&quot;Tahoma&quot;&gt;&lt;b&gt;End&lt;/b&gt;&lt;/font&gt;" style="whiteSpace=wrap;html=1;labelBackgroundColor=none;labelBorderColor=none;" vertex="1" parent="1">
          <mxGeometry x="119.39000000000001" y="1110" width="53.74" height="30" as="geometry" />
        </mxCell>
      </root>
    </mxGraphModel>
  </diagram>
  <diagram id="4aPIvkFtGNZA8O-iwaYd" name="第 3 页">
    <mxGraphModel dx="1305" dy="2092" grid="1" gridSize="10" guides="1" tooltips="1" connect="1" arrows="1" fold="1" page="1" pageScale="1" pageWidth="827" pageHeight="1169" math="1" shadow="0">
      <root>
        <mxCell id="0" />
        <mxCell id="1" parent="0" />
        <mxCell id="ODpzh3KOZSOkKFhCwHXW-1" value="&lt;font style=&quot;font-size: 29px;&quot;&gt;CHEASE PART&lt;/font&gt;" style="swimlane;html=1;childLayout=stackLayout;startSize=60;rounded=0;shadow=0;comic=0;labelBackgroundColor=none;strokeWidth=1;fontFamily=Times New Roman;fontSize=29;align=center;" parent="1" vertex="1">
          <mxGeometry x="40" y="-530" width="1540" height="2530" as="geometry" />
        </mxCell>
        <mxCell id="ODpzh3KOZSOkKFhCwHXW-2" value="&lt;font style=&quot;font-size: 22px;&quot;&gt;First level&lt;/font&gt;" style="swimlane;html=1;startSize=40;fontFamily=Times New Roman;fontSize=22;" parent="ODpzh3KOZSOkKFhCwHXW-1" vertex="1">
          <mxGeometry y="60" width="330" height="2470" as="geometry" />
        </mxCell>
        <mxCell id="ODpzh3KOZSOkKFhCwHXW-30" value="&lt;code style=&quot;caret-color: rgb(0, 0, 0); text-align: start;&quot;&gt;&lt;b&gt;&lt;font style=&quot;font-size: 16px;&quot; face=&quot;Times New Roman&quot;&gt;tcv_high_res_equil&lt;/font&gt;&lt;/b&gt;&lt;/code&gt;" style="swimlane;fontStyle=0;childLayout=stackLayout;horizontal=1;startSize=30;horizontalStack=0;resizeParent=1;resizeParentMax=0;resizeLast=0;collapsible=1;marginBottom=0;whiteSpace=wrap;html=1;fillColor=#ffe6cc;strokeColor=#d79b00;fontFamily=Times New Roman;" parent="ODpzh3KOZSOkKFhCwHXW-2" vertex="1">
          <mxGeometry x="28.44" y="110" width="273.12" height="180" as="geometry" />
        </mxCell>
        <mxCell id="ODpzh3KOZSOkKFhCwHXW-31" value="&lt;div&gt;&lt;font size=&quot;1&quot; color=&quot;#131300&quot;&gt;&lt;span style=&quot;caret-color: rgb(19, 19, 0); text-wrap: nowrap; font-size: 14px;&quot;&gt;input : shot, [time_start, time_end]&lt;/span&gt;&lt;/font&gt;&lt;/div&gt;" style="text;strokeColor=default;fillColor=none;align=left;verticalAlign=middle;spacingLeft=4;spacingRight=4;overflow=hidden;points=[[0,0.5],[1,0.5]];portConstraint=eastwest;rotatable=0;whiteSpace=wrap;html=1;fontFamily=Times New Roman;" parent="ODpzh3KOZSOkKFhCwHXW-30" vertex="1">
          <mxGeometry y="30" width="273.12" height="50" as="geometry" />
        </mxCell>
        <mxCell id="ODpzh3KOZSOkKFhCwHXW-32" value="&lt;div&gt;&lt;div&gt;&lt;font style=&quot;font-size: 14px;&quot;&gt;output :&amp;nbsp;&lt;/font&gt;&lt;span style=&quot;caret-color: rgb(0, 0, 0); background-color: initial;&quot;&gt;CHEASE_out, profiles, shot_info, workdir&lt;/span&gt;&lt;/div&gt;&lt;/div&gt;&lt;div&gt;&lt;/div&gt;&lt;div&gt;&lt;/div&gt;" style="text;strokeColor=default;fillColor=none;align=left;verticalAlign=middle;spacingLeft=4;spacingRight=4;overflow=hidden;points=[[0,0.5],[1,0.5]];portConstraint=eastwest;rotatable=0;whiteSpace=wrap;html=1;fontFamily=Times New Roman;" parent="ODpzh3KOZSOkKFhCwHXW-30" vertex="1">
          <mxGeometry y="80" width="273.12" height="50" as="geometry" />
        </mxCell>
        <mxCell id="ODpzh3KOZSOkKFhCwHXW-33" value="&lt;div&gt;&lt;font style=&quot;font-size: 14px;&quot;&gt;function:&amp;nbsp; the main function to run CHEASE package for equilibrium profiles.&lt;/font&gt;&lt;/div&gt;" style="text;strokeColor=default;fillColor=none;align=left;verticalAlign=middle;spacingLeft=4;spacingRight=4;overflow=hidden;points=[[0,0.5],[1,0.5]];portConstraint=eastwest;rotatable=0;whiteSpace=wrap;html=1;fontFamily=Times New Roman;" parent="ODpzh3KOZSOkKFhCwHXW-30" vertex="1">
          <mxGeometry y="130" width="273.12" height="50" as="geometry" />
        </mxCell>
        <mxCell id="ODpzh3KOZSOkKFhCwHXW-14" value="&lt;font style=&quot;font-size: 22px;&quot;&gt;Second level&lt;/font&gt;" style="swimlane;html=1;startSize=40;fontFamily=Times New Roman;fontSize=22;" parent="ODpzh3KOZSOkKFhCwHXW-1" vertex="1">
          <mxGeometry x="330" y="60" width="350" height="2470" as="geometry" />
        </mxCell>
        <mxCell id="ODpzh3KOZSOkKFhCwHXW-15" value="&lt;div style=&quot;text-align: start;&quot;&gt;&lt;span style=&quot;background-color: initial; font-size: 16px;&quot;&gt;&lt;b&gt;tcv_high_res_edge_equil&lt;/b&gt;&lt;/span&gt;&lt;/div&gt;" style="swimlane;fontStyle=0;childLayout=stackLayout;horizontal=1;startSize=30;horizontalStack=0;resizeParent=1;resizeParentMax=0;resizeLast=0;collapsible=1;marginBottom=0;whiteSpace=wrap;html=1;fillColor=#ffe6cc;strokeColor=#d79b00;fontFamily=Times New Roman;" parent="ODpzh3KOZSOkKFhCwHXW-14" vertex="1">
          <mxGeometry x="38.440000000000005" y="110" width="273.12" height="180" as="geometry" />
        </mxCell>
        <mxCell id="ODpzh3KOZSOkKFhCwHXW-16" value="&lt;div&gt;&lt;font size=&quot;1&quot; color=&quot;#131300&quot;&gt;&lt;span style=&quot;caret-color: rgb(19, 19, 0); text-wrap: nowrap; font-size: 14px;&quot;&gt;input :&amp;nbsp;&lt;/span&gt;&lt;/font&gt;&lt;span style=&quot;background-color: initial; font-size: 14px; caret-color: rgb(19, 19, 0); text-wrap: nowrap;&quot;&gt;&lt;font color=&quot;#131300&quot;&gt;profiles, pedestal,workdir,shot_info&lt;/font&gt;&lt;/span&gt;&lt;/div&gt;" style="text;strokeColor=default;fillColor=none;align=left;verticalAlign=middle;spacingLeft=4;spacingRight=4;overflow=hidden;points=[[0,0.5],[1,0.5]];portConstraint=eastwest;rotatable=0;whiteSpace=wrap;html=1;fontFamily=Times New Roman;" parent="ODpzh3KOZSOkKFhCwHXW-15" vertex="1">
          <mxGeometry y="30" width="273.12" height="50" as="geometry" />
        </mxCell>
        <mxCell id="ODpzh3KOZSOkKFhCwHXW-17" value="&lt;div&gt;&lt;div&gt;&lt;font style=&quot;font-size: 14px;&quot;&gt;output :&amp;nbsp;&lt;/font&gt;&lt;span style=&quot;caret-color: rgb(0, 0, 0); background-color: initial;&quot;&gt;CHEASE_out, profiles&lt;/span&gt;&lt;/div&gt;&lt;/div&gt;&lt;div&gt;&lt;/div&gt;&lt;div&gt;&lt;/div&gt;" style="text;strokeColor=default;fillColor=none;align=left;verticalAlign=middle;spacingLeft=4;spacingRight=4;overflow=hidden;points=[[0,0.5],[1,0.5]];portConstraint=eastwest;rotatable=0;whiteSpace=wrap;html=1;fontFamily=Times New Roman;" parent="ODpzh3KOZSOkKFhCwHXW-15" vertex="1">
          <mxGeometry y="80" width="273.12" height="50" as="geometry" />
        </mxCell>
        <mxCell id="ODpzh3KOZSOkKFhCwHXW-18" value="&lt;div&gt;&lt;font style=&quot;font-size: 14px;&quot;&gt;function:&amp;nbsp;The first program running CHEASE for equilibrium profiles.&lt;/font&gt;&lt;/div&gt;" style="text;strokeColor=default;fillColor=none;align=left;verticalAlign=middle;spacingLeft=4;spacingRight=4;overflow=hidden;points=[[0,0.5],[1,0.5]];portConstraint=eastwest;rotatable=0;whiteSpace=wrap;html=1;fontFamily=Times New Roman;" parent="ODpzh3KOZSOkKFhCwHXW-15" vertex="1">
          <mxGeometry y="130" width="273.12" height="50" as="geometry" />
        </mxCell>
        <mxCell id="ODpzh3KOZSOkKFhCwHXW-38" value="&lt;div style=&quot;text-align: start;&quot;&gt;&lt;span style=&quot;background-color: initial; font-size: 16px;&quot;&gt;&lt;b&gt;rerun_chease&lt;/b&gt;&lt;/span&gt;&lt;/div&gt;" style="swimlane;fontStyle=0;childLayout=stackLayout;horizontal=1;startSize=30;horizontalStack=0;resizeParent=1;resizeParentMax=0;resizeLast=0;collapsible=1;marginBottom=0;whiteSpace=wrap;html=1;fillColor=#ffe6cc;strokeColor=#d79b00;fontFamily=Times New Roman;" parent="ODpzh3KOZSOkKFhCwHXW-14" vertex="1">
          <mxGeometry x="33.44" y="400" width="273.12" height="190" as="geometry" />
        </mxCell>
        <mxCell id="ODpzh3KOZSOkKFhCwHXW-39" value="&lt;div&gt;&lt;font size=&quot;1&quot; color=&quot;#131300&quot;&gt;&lt;span style=&quot;caret-color: rgb(19, 19, 0); text-wrap: nowrap; font-size: 14px;&quot;&gt;input :&amp;nbsp;&lt;/span&gt;&lt;/font&gt;&lt;span style=&quot;background-color: initial; font-size: 14px; caret-color: rgb(19, 19, 0); text-wrap: nowrap;&quot;&gt;&lt;font color=&quot;#131300&quot;&gt;workdir&lt;/font&gt;&lt;/span&gt;&lt;/div&gt;" style="text;strokeColor=default;fillColor=none;align=left;verticalAlign=middle;spacingLeft=4;spacingRight=4;overflow=hidden;points=[[0,0.5],[1,0.5]];portConstraint=eastwest;rotatable=0;whiteSpace=wrap;html=1;fontFamily=Times New Roman;" parent="ODpzh3KOZSOkKFhCwHXW-38" vertex="1">
          <mxGeometry y="30" width="273.12" height="50" as="geometry" />
        </mxCell>
        <mxCell id="ODpzh3KOZSOkKFhCwHXW-40" value="&lt;div&gt;&lt;div&gt;&lt;font style=&quot;font-size: 14px;&quot;&gt;output :&amp;nbsp;&lt;/font&gt;&lt;span style=&quot;background-color: initial;&quot;&gt;&lt;font style=&quot;font-size: 14px;&quot;&gt;fname_out, globalsvalues, namelist_struct, namelistfile_eff&lt;/font&gt;&lt;/span&gt;&lt;/div&gt;&lt;/div&gt;&lt;div&gt;&lt;/div&gt;&lt;div&gt;&lt;/div&gt;" style="text;strokeColor=default;fillColor=none;align=left;verticalAlign=middle;spacingLeft=4;spacingRight=4;overflow=hidden;points=[[0,0.5],[1,0.5]];portConstraint=eastwest;rotatable=0;whiteSpace=wrap;html=1;fontFamily=Times New Roman;" parent="ODpzh3KOZSOkKFhCwHXW-38" vertex="1">
          <mxGeometry y="80" width="273.12" height="50" as="geometry" />
        </mxCell>
        <mxCell id="ODpzh3KOZSOkKFhCwHXW-41" value="&lt;div&gt;&lt;font style=&quot;font-size: 14px;&quot;&gt;function:&amp;nbsp; Get a higer&amp;nbsp;&lt;/font&gt;&lt;span style=&quot;background-color: initial; font-size: 14px;&quot;&gt;resolution equilibrium result which will be used (Not here for KINX/BALM)&lt;/span&gt;&lt;/div&gt;" style="text;strokeColor=default;fillColor=none;align=left;verticalAlign=middle;spacingLeft=4;spacingRight=4;overflow=hidden;points=[[0,0.5],[1,0.5]];portConstraint=eastwest;rotatable=0;whiteSpace=wrap;html=1;fontFamily=Times New Roman;" parent="ODpzh3KOZSOkKFhCwHXW-38" vertex="1">
          <mxGeometry y="130" width="273.12" height="60" as="geometry" />
        </mxCell>
        <mxCell id="ODpzh3KOZSOkKFhCwHXW-21" value="&lt;font style=&quot;font-size: 22px;&quot;&gt;Third level&lt;/font&gt;" style="swimlane;html=1;startSize=40;fontFamily=Times New Roman;fontSize=22;" parent="ODpzh3KOZSOkKFhCwHXW-1" vertex="1">
          <mxGeometry x="680" y="60" width="430" height="2470" as="geometry" />
        </mxCell>
        <mxCell id="ODpzh3KOZSOkKFhCwHXW-22" value="&lt;div style=&quot;text-align: start;&quot;&gt;&lt;span style=&quot;background-color: initial; font-size: 16px;&quot;&gt;&lt;b&gt;physical_constants&lt;/b&gt;&lt;/span&gt;&lt;/div&gt;" style="swimlane;fontStyle=0;childLayout=stackLayout;horizontal=1;startSize=30;horizontalStack=0;resizeParent=1;resizeParentMax=0;resizeLast=0;collapsible=1;marginBottom=0;whiteSpace=wrap;html=1;fillColor=#ffe6cc;strokeColor=#d79b00;fontFamily=Times New Roman;" parent="ODpzh3KOZSOkKFhCwHXW-21" vertex="1">
          <mxGeometry x="71.72" y="60" width="286.56" height="140" as="geometry" />
        </mxCell>
        <mxCell id="ODpzh3KOZSOkKFhCwHXW-23" value="&lt;div style=&quot;font-size: 14px;&quot;&gt;&lt;font style=&quot;font-size: 14px;&quot; color=&quot;#131300&quot;&gt;&lt;span style=&quot;caret-color: rgb(19, 19, 0); text-wrap: nowrap; font-size: 14px;&quot;&gt;input :&amp;nbsp;&lt;/span&gt;&lt;/font&gt;&lt;span style=&quot;caret-color: rgb(0, 0, 0); background-color: initial;&quot;&gt;None&lt;/span&gt;&lt;/div&gt;" style="text;strokeColor=default;fillColor=none;align=left;verticalAlign=middle;spacingLeft=4;spacingRight=4;overflow=hidden;points=[[0,0.5],[1,0.5]];portConstraint=eastwest;rotatable=0;whiteSpace=wrap;html=1;fontFamily=Times New Roman;fontSize=14;" parent="ODpzh3KOZSOkKFhCwHXW-22" vertex="1">
          <mxGeometry y="30" width="286.56" height="30" as="geometry" />
        </mxCell>
        <mxCell id="ODpzh3KOZSOkKFhCwHXW-24" value="&lt;div&gt;&lt;div&gt;&lt;font style=&quot;font-size: 14px;&quot;&gt;output : phys&amp;nbsp;&lt;/font&gt;&lt;/div&gt;&lt;/div&gt;&lt;div&gt;&lt;/div&gt;&lt;div&gt;&lt;/div&gt;" style="text;strokeColor=default;fillColor=none;align=left;verticalAlign=middle;spacingLeft=4;spacingRight=4;overflow=hidden;points=[[0,0.5],[1,0.5]];portConstraint=eastwest;rotatable=0;whiteSpace=wrap;html=1;fontFamily=Times New Roman;" parent="ODpzh3KOZSOkKFhCwHXW-22" vertex="1">
          <mxGeometry y="60" width="286.56" height="40" as="geometry" />
        </mxCell>
        <mxCell id="ODpzh3KOZSOkKFhCwHXW-25" value="&lt;div style=&quot;&quot;&gt;&lt;font style=&quot;font-size: 14px;&quot; face=&quot;Times New Roman&quot;&gt;&lt;font style=&quot;font-size: 14px;&quot;&gt;function:&amp;nbsp;&lt;/font&gt;&lt;/font&gt;&lt;span style=&quot;background-color: initial; font-size: 14px;&quot;&gt;set physical constants&lt;/span&gt;&lt;/div&gt;" style="text;strokeColor=default;fillColor=none;align=left;verticalAlign=middle;spacingLeft=4;spacingRight=4;overflow=hidden;points=[[0,0.5],[1,0.5]];portConstraint=eastwest;rotatable=0;whiteSpace=wrap;html=1;fontFamily=Times New Roman;" parent="ODpzh3KOZSOkKFhCwHXW-22" vertex="1">
          <mxGeometry y="100" width="286.56" height="40" as="geometry" />
        </mxCell>
        <mxCell id="ODpzh3KOZSOkKFhCwHXW-26" value="&lt;div style=&quot;text-align: start;&quot;&gt;&lt;span style=&quot;background-color: initial; font-size: 16px;&quot;&gt;&lt;b&gt;conf2exptnz&lt;/b&gt;&lt;/span&gt;&lt;/div&gt;" style="swimlane;fontStyle=0;childLayout=stackLayout;horizontal=1;startSize=30;horizontalStack=0;resizeParent=1;resizeParentMax=0;resizeLast=0;collapsible=1;marginBottom=0;whiteSpace=wrap;html=1;fillColor=#ffe6cc;strokeColor=#d79b00;fontFamily=Times New Roman;" parent="ODpzh3KOZSOkKFhCwHXW-21" vertex="1">
          <mxGeometry x="71.72" y="230" width="286.56" height="190" as="geometry" />
        </mxCell>
        <mxCell id="ODpzh3KOZSOkKFhCwHXW-27" value="&lt;div style=&quot;&quot;&gt;&lt;font style=&quot;font-size: 14px;&quot; color=&quot;#131300&quot;&gt;&lt;span style=&quot;caret-color: rgb(19, 19, 0); text-wrap: nowrap; font-size: 14px;&quot;&gt;input :&amp;nbsp;&lt;/span&gt;&lt;/font&gt;&lt;span style=&quot;background-color: initial;&quot;&gt;shot,time,trialindx,workdir&lt;/span&gt;&lt;/div&gt;" style="text;strokeColor=default;fillColor=none;align=left;verticalAlign=middle;spacingLeft=4;spacingRight=4;overflow=hidden;points=[[0,0.5],[1,0.5]];portConstraint=eastwest;rotatable=0;whiteSpace=wrap;html=1;fontFamily=Times New Roman;fontSize=14;" parent="ODpzh3KOZSOkKFhCwHXW-26" vertex="1">
          <mxGeometry y="30" width="286.56" height="50" as="geometry" />
        </mxCell>
        <mxCell id="ODpzh3KOZSOkKFhCwHXW-28" value="&lt;div style=&quot;font-size: 14px;&quot;&gt;&lt;div style=&quot;font-size: 14px;&quot;&gt;output : exptnz&lt;/div&gt;&lt;/div&gt;&lt;div style=&quot;font-size: 14px;&quot;&gt;&lt;/div&gt;&lt;div style=&quot;font-size: 14px;&quot;&gt;&lt;/div&gt;" style="text;strokeColor=default;fillColor=none;align=left;verticalAlign=middle;spacingLeft=4;spacingRight=4;overflow=hidden;points=[[0,0.5],[1,0.5]];portConstraint=eastwest;rotatable=0;whiteSpace=wrap;html=1;fontFamily=Times New Roman;fontSize=14;" parent="ODpzh3KOZSOkKFhCwHXW-26" vertex="1">
          <mxGeometry y="80" width="286.56" height="50" as="geometry" />
        </mxCell>
        <mxCell id="ODpzh3KOZSOkKFhCwHXW-29" value="&lt;div style=&quot;font-size: 14px;&quot;&gt;function: read the EXPTNZ file from experiment to get the experimental parameters like Te, ne, Zeff, Ti, ni&amp;nbsp;&lt;/div&gt;" style="text;strokeColor=default;fillColor=none;align=left;verticalAlign=middle;spacingLeft=4;spacingRight=4;overflow=hidden;points=[[0,0.5],[1,0.5]];portConstraint=eastwest;rotatable=0;whiteSpace=wrap;html=1;fontFamily=Times New Roman;fontSize=14;" parent="ODpzh3KOZSOkKFhCwHXW-26" vertex="1">
          <mxGeometry y="130" width="286.56" height="60" as="geometry" />
        </mxCell>
        <mxCell id="ODpzh3KOZSOkKFhCwHXW-50" value="&lt;div style=&quot;text-align: start;&quot;&gt;&lt;span style=&quot;font-size: 16px;&quot;&gt;&lt;b&gt;write_exptnz&lt;/b&gt;&lt;/span&gt;&lt;br&gt;&lt;/div&gt;" style="swimlane;fontStyle=0;childLayout=stackLayout;horizontal=1;startSize=30;horizontalStack=0;resizeParent=1;resizeParentMax=0;resizeLast=0;collapsible=1;marginBottom=0;whiteSpace=wrap;html=1;fillColor=#ffe6cc;strokeColor=#d79b00;fontFamily=Times New Roman;" parent="ODpzh3KOZSOkKFhCwHXW-21" vertex="1">
          <mxGeometry x="71.72000000000003" y="450" width="286.56" height="190" as="geometry" />
        </mxCell>
        <mxCell id="ODpzh3KOZSOkKFhCwHXW-51" value="&lt;div style=&quot;&quot;&gt;&lt;font style=&quot;font-size: 14px;&quot; color=&quot;#131300&quot;&gt;&lt;span style=&quot;caret-color: rgb(19, 19, 0); text-wrap: nowrap; font-size: 14px;&quot;&gt;input :&amp;nbsp;&lt;/span&gt;&lt;/font&gt;&lt;span style=&quot;background-color: initial;&quot;&gt;EXPTNZdata,fnamefull,varargin&lt;/span&gt;&lt;/div&gt;" style="text;strokeColor=default;fillColor=none;align=left;verticalAlign=middle;spacingLeft=4;spacingRight=4;overflow=hidden;points=[[0,0.5],[1,0.5]];portConstraint=eastwest;rotatable=0;whiteSpace=wrap;html=1;fontFamily=Times New Roman;fontSize=14;" parent="ODpzh3KOZSOkKFhCwHXW-50" vertex="1">
          <mxGeometry y="30" width="286.56" height="50" as="geometry" />
        </mxCell>
        <mxCell id="ODpzh3KOZSOkKFhCwHXW-52" value="&lt;div style=&quot;font-size: 14px;&quot;&gt;&lt;div style=&quot;font-size: 14px;&quot;&gt;output : EXPTNZdataout, fclose_out&lt;/div&gt;&lt;/div&gt;&lt;div style=&quot;font-size: 14px;&quot;&gt;&lt;/div&gt;&lt;div style=&quot;font-size: 14px;&quot;&gt;&lt;/div&gt;" style="text;strokeColor=default;fillColor=none;align=left;verticalAlign=middle;spacingLeft=4;spacingRight=4;overflow=hidden;points=[[0,0.5],[1,0.5]];portConstraint=eastwest;rotatable=0;whiteSpace=wrap;html=1;fontFamily=Times New Roman;fontSize=14;" parent="ODpzh3KOZSOkKFhCwHXW-50" vertex="1">
          <mxGeometry y="80" width="286.56" height="50" as="geometry" />
        </mxCell>
        <mxCell id="ODpzh3KOZSOkKFhCwHXW-53" value="&lt;div style=&quot;font-size: 14px;&quot;&gt;function:&amp;nbsp;&lt;span style=&quot;background-color: initial;&quot;&gt;write EXPTNZ file from structure, creates EXPTNZ file in current&amp;nbsp;&lt;/span&gt;&lt;span style=&quot;background-color: initial;&quot;&gt;directory.&lt;/span&gt;&lt;/div&gt;" style="text;strokeColor=default;fillColor=none;align=left;verticalAlign=middle;spacingLeft=4;spacingRight=4;overflow=hidden;points=[[0,0.5],[1,0.5]];portConstraint=eastwest;rotatable=0;whiteSpace=wrap;html=1;fontFamily=Times New Roman;fontSize=14;" parent="ODpzh3KOZSOkKFhCwHXW-50" vertex="1">
          <mxGeometry y="130" width="286.56" height="60" as="geometry" />
        </mxCell>
        <mxCell id="ODpzh3KOZSOkKFhCwHXW-46" value="&lt;div style=&quot;text-align: start;&quot;&gt;&lt;span style=&quot;font-size: 16px;&quot;&gt;&lt;b&gt;read_results_for_chease&lt;/b&gt;&lt;/span&gt;&lt;br&gt;&lt;/div&gt;" style="swimlane;fontStyle=0;childLayout=stackLayout;horizontal=1;startSize=30;horizontalStack=0;resizeParent=1;resizeParentMax=0;resizeLast=0;collapsible=1;marginBottom=0;whiteSpace=wrap;html=1;fillColor=#ffe6cc;strokeColor=#d79b00;fontFamily=Times New Roman;" parent="ODpzh3KOZSOkKFhCwHXW-21" vertex="1">
          <mxGeometry x="71.72000000000003" y="670" width="286.56" height="180" as="geometry" />
        </mxCell>
        <mxCell id="ODpzh3KOZSOkKFhCwHXW-47" value="&lt;div style=&quot;&quot;&gt;&lt;font style=&quot;font-size: 14px;&quot; color=&quot;#131300&quot;&gt;&lt;span style=&quot;caret-color: rgb(19, 19, 0); text-wrap: nowrap; font-size: 14px;&quot;&gt;input :&amp;nbsp;&lt;/span&gt;&lt;/font&gt;&lt;span style=&quot;background-color: initial;&quot;&gt;shot, times, liuqe_version, outf, outdir, varargin&lt;/span&gt;&lt;/div&gt;" style="text;strokeColor=default;fillColor=none;align=left;verticalAlign=middle;spacingLeft=4;spacingRight=4;overflow=hidden;points=[[0,0.5],[1,0.5]];portConstraint=eastwest;rotatable=0;whiteSpace=wrap;html=1;fontFamily=Times New Roman;fontSize=14;" parent="ODpzh3KOZSOkKFhCwHXW-46" vertex="1">
          <mxGeometry y="30" width="286.56" height="50" as="geometry" />
        </mxCell>
        <mxCell id="ODpzh3KOZSOkKFhCwHXW-48" value="&lt;div style=&quot;font-size: 14px;&quot;&gt;&lt;div style=&quot;font-size: 14px;&quot;&gt;output : varargout&lt;/div&gt;&lt;/div&gt;&lt;div style=&quot;font-size: 14px;&quot;&gt;&lt;/div&gt;&lt;div style=&quot;font-size: 14px;&quot;&gt;&lt;/div&gt;" style="text;strokeColor=default;fillColor=none;align=left;verticalAlign=middle;spacingLeft=4;spacingRight=4;overflow=hidden;points=[[0,0.5],[1,0.5]];portConstraint=eastwest;rotatable=0;whiteSpace=wrap;html=1;fontFamily=Times New Roman;fontSize=14;" parent="ODpzh3KOZSOkKFhCwHXW-46" vertex="1">
          <mxGeometry y="80" width="286.56" height="40" as="geometry" />
        </mxCell>
        <mxCell id="ODpzh3KOZSOkKFhCwHXW-49" value="&lt;div style=&quot;&quot;&gt;function: read the EXPEQ file experiment to get the initial profiles like pp&#39;, TT&#39; and transform the coordinate system.&lt;/div&gt;" style="text;strokeColor=default;fillColor=none;align=left;verticalAlign=middle;spacingLeft=4;spacingRight=4;overflow=hidden;points=[[0,0.5],[1,0.5]];portConstraint=eastwest;rotatable=0;whiteSpace=wrap;html=1;fontFamily=Times New Roman;fontSize=14;" parent="ODpzh3KOZSOkKFhCwHXW-46" vertex="1">
          <mxGeometry y="120" width="286.56" height="60" as="geometry" />
        </mxCell>
        <mxCell id="CHKLxYgbjbBLdilAysRG-10" style="edgeStyle=orthogonalEdgeStyle;rounded=0;orthogonalLoop=1;jettySize=auto;html=1;entryX=0.5;entryY=0;entryDx=0;entryDy=0;exitX=0.996;exitY=0.095;exitDx=0;exitDy=0;exitPerimeter=0;" parent="ODpzh3KOZSOkKFhCwHXW-21" source="ODpzh3KOZSOkKFhCwHXW-42" target="ODpzh3KOZSOkKFhCwHXW-67" edge="1">
          <mxGeometry relative="1" as="geometry">
            <Array as="points">
              <mxPoint x="357" y="910" />
              <mxPoint x="390" y="910" />
              <mxPoint x="390" y="1450" />
              <mxPoint x="215" y="1450" />
            </Array>
          </mxGeometry>
        </mxCell>
        <mxCell id="ODpzh3KOZSOkKFhCwHXW-42" value="&lt;div style=&quot;text-align: start;&quot;&gt;&lt;span style=&quot;font-size: 16px;&quot;&gt;&lt;b&gt;read_expeq&lt;/b&gt;&lt;/span&gt;&lt;br&gt;&lt;/div&gt;" style="swimlane;fontStyle=0;childLayout=stackLayout;horizontal=1;startSize=30;horizontalStack=0;resizeParent=1;resizeParentMax=0;resizeLast=0;collapsible=1;marginBottom=0;whiteSpace=wrap;html=1;fillColor=#ffe6cc;strokeColor=#d79b00;fontFamily=Times New Roman;" parent="ODpzh3KOZSOkKFhCwHXW-21" vertex="1">
          <mxGeometry x="71.72" y="890" width="286.56" height="150" as="geometry" />
        </mxCell>
        <mxCell id="ODpzh3KOZSOkKFhCwHXW-43" value="&lt;div style=&quot;&quot;&gt;&lt;font style=&quot;font-size: 14px;&quot; color=&quot;#131300&quot;&gt;&lt;span style=&quot;caret-color: rgb(19, 19, 0); text-wrap: nowrap; font-size: 14px;&quot;&gt;input :&amp;nbsp;&lt;/span&gt;&lt;/font&gt;&lt;span style=&quot;background-color: initial;&quot;&gt;varargin&lt;/span&gt;&lt;/div&gt;" style="text;strokeColor=default;fillColor=none;align=left;verticalAlign=middle;spacingLeft=4;spacingRight=4;overflow=hidden;points=[[0,0.5],[1,0.5]];portConstraint=eastwest;rotatable=0;whiteSpace=wrap;html=1;fontFamily=Times New Roman;fontSize=14;" parent="ODpzh3KOZSOkKFhCwHXW-42" vertex="1">
          <mxGeometry y="30" width="286.56" height="40" as="geometry" />
        </mxCell>
        <mxCell id="ODpzh3KOZSOkKFhCwHXW-44" value="&lt;div style=&quot;font-size: 14px;&quot;&gt;&lt;div style=&quot;font-size: 14px;&quot;&gt;output : EXPEQdata&lt;/div&gt;&lt;/div&gt;&lt;div style=&quot;font-size: 14px;&quot;&gt;&lt;/div&gt;&lt;div style=&quot;font-size: 14px;&quot;&gt;&lt;/div&gt;" style="text;strokeColor=default;fillColor=none;align=left;verticalAlign=middle;spacingLeft=4;spacingRight=4;overflow=hidden;points=[[0,0.5],[1,0.5]];portConstraint=eastwest;rotatable=0;whiteSpace=wrap;html=1;fontFamily=Times New Roman;fontSize=14;" parent="ODpzh3KOZSOkKFhCwHXW-42" vertex="1">
          <mxGeometry y="70" width="286.56" height="40" as="geometry" />
        </mxCell>
        <mxCell id="ODpzh3KOZSOkKFhCwHXW-45" value="&lt;div style=&quot;font-size: 14px;&quot;&gt;function: read the file from last step into variable&lt;/div&gt;" style="text;strokeColor=default;fillColor=none;align=left;verticalAlign=middle;spacingLeft=4;spacingRight=4;overflow=hidden;points=[[0,0.5],[1,0.5]];portConstraint=eastwest;rotatable=0;whiteSpace=wrap;html=1;fontFamily=Times New Roman;fontSize=14;" parent="ODpzh3KOZSOkKFhCwHXW-42" vertex="1">
          <mxGeometry y="110" width="286.56" height="40" as="geometry" />
        </mxCell>
        <mxCell id="ODpzh3KOZSOkKFhCwHXW-75" value="&lt;div style=&quot;text-align: start;&quot;&gt;&lt;span style=&quot;font-size: 16px;&quot;&gt;&lt;b&gt;read_namelist_chease&lt;/b&gt;&lt;/span&gt;&lt;br&gt;&lt;/div&gt;" style="swimlane;fontStyle=0;childLayout=stackLayout;horizontal=1;startSize=30;horizontalStack=0;resizeParent=1;resizeParentMax=0;resizeLast=0;collapsible=1;marginBottom=0;whiteSpace=wrap;html=1;fillColor=#ffe6cc;strokeColor=#d79b00;fontFamily=Times New Roman;" parent="ODpzh3KOZSOkKFhCwHXW-21" vertex="1">
          <mxGeometry x="71.72" y="1070" width="286.56" height="170" as="geometry" />
        </mxCell>
        <mxCell id="ODpzh3KOZSOkKFhCwHXW-76" value="&lt;div style=&quot;&quot;&gt;&lt;font style=&quot;font-size: 14px;&quot; color=&quot;#131300&quot;&gt;&lt;span style=&quot;caret-color: rgb(19, 19, 0); text-wrap: nowrap; font-size: 14px;&quot;&gt;input :&amp;nbsp;&lt;/span&gt;&lt;/font&gt;&lt;span style=&quot;background-color: initial;&quot;&gt;varargin&amp;nbsp;&lt;/span&gt;&lt;/div&gt;" style="text;strokeColor=default;fillColor=none;align=left;verticalAlign=middle;spacingLeft=4;spacingRight=4;overflow=hidden;points=[[0,0.5],[1,0.5]];portConstraint=eastwest;rotatable=0;whiteSpace=wrap;html=1;fontFamily=Times New Roman;fontSize=14;" parent="ODpzh3KOZSOkKFhCwHXW-75" vertex="1">
          <mxGeometry y="30" width="286.56" height="40" as="geometry" />
        </mxCell>
        <mxCell id="ODpzh3KOZSOkKFhCwHXW-77" value="&lt;div style=&quot;font-size: 14px;&quot;&gt;&lt;div style=&quot;font-size: 14px;&quot;&gt;output : EXPEQdata&lt;/div&gt;&lt;/div&gt;&lt;div style=&quot;font-size: 14px;&quot;&gt;&lt;/div&gt;&lt;div style=&quot;font-size: 14px;&quot;&gt;&lt;/div&gt;" style="text;strokeColor=default;fillColor=none;align=left;verticalAlign=middle;spacingLeft=4;spacingRight=4;overflow=hidden;points=[[0,0.5],[1,0.5]];portConstraint=eastwest;rotatable=0;whiteSpace=wrap;html=1;fontFamily=Times New Roman;fontSize=14;" parent="ODpzh3KOZSOkKFhCwHXW-75" vertex="1">
          <mxGeometry y="70" width="286.56" height="40" as="geometry" />
        </mxCell>
        <mxCell id="ODpzh3KOZSOkKFhCwHXW-78" value="&lt;div style=&quot;font-size: 14px;&quot;&gt;function: call the subfunction with matched input to read the namelist file as part of initial set for CHEASE calculation&lt;/div&gt;" style="text;strokeColor=default;fillColor=none;align=left;verticalAlign=middle;spacingLeft=4;spacingRight=4;overflow=hidden;points=[[0,0.5],[1,0.5]];portConstraint=eastwest;rotatable=0;whiteSpace=wrap;html=1;fontFamily=Times New Roman;fontSize=14;" parent="ODpzh3KOZSOkKFhCwHXW-75" vertex="1">
          <mxGeometry y="110" width="286.56" height="60" as="geometry" />
        </mxCell>
        <mxCell id="CHKLxYgbjbBLdilAysRG-8" value="re-call" style="edgeStyle=orthogonalEdgeStyle;rounded=0;orthogonalLoop=1;jettySize=auto;html=1;exitX=-0.007;exitY=0.109;exitDx=0;exitDy=0;exitPerimeter=0;" parent="ODpzh3KOZSOkKFhCwHXW-21" source="ODpzh3KOZSOkKFhCwHXW-71" edge="1">
          <mxGeometry relative="1" as="geometry">
            <mxPoint x="72" y="910" as="targetPoint" />
            <Array as="points">
              <mxPoint x="30" y="1287" />
              <mxPoint x="30" y="910" />
            </Array>
          </mxGeometry>
        </mxCell>
        <mxCell id="ODpzh3KOZSOkKFhCwHXW-71" value="&lt;div style=&quot;text-align: start;&quot;&gt;&lt;span style=&quot;font-size: 16px;&quot;&gt;&lt;b&gt;run_chease_expeq&lt;/b&gt;&lt;/span&gt;&lt;br&gt;&lt;/div&gt;" style="swimlane;fontStyle=0;childLayout=stackLayout;horizontal=1;startSize=30;horizontalStack=0;resizeParent=1;resizeParentMax=0;resizeLast=0;collapsible=1;marginBottom=0;whiteSpace=wrap;html=1;fillColor=#ffe6cc;strokeColor=#d79b00;fontFamily=Times New Roman;" parent="ODpzh3KOZSOkKFhCwHXW-21" vertex="1">
          <mxGeometry x="71.72000000000003" y="1270" width="286.56" height="160" as="geometry" />
        </mxCell>
        <mxCell id="ODpzh3KOZSOkKFhCwHXW-72" value="&lt;div style=&quot;&quot;&gt;&lt;font style=&quot;font-size: 14px;&quot; color=&quot;#131300&quot;&gt;&lt;span style=&quot;caret-color: rgb(19, 19, 0); text-wrap: nowrap; font-size: 14px;&quot;&gt;input :&amp;nbsp;&lt;/span&gt;&lt;/font&gt;&lt;span style=&quot;background-color: initial;&quot;&gt;namelistfile,expeqfile,varargin&lt;/span&gt;&lt;/div&gt;" style="text;strokeColor=default;fillColor=none;align=left;verticalAlign=middle;spacingLeft=4;spacingRight=4;overflow=hidden;points=[[0,0.5],[1,0.5]];portConstraint=eastwest;rotatable=0;whiteSpace=wrap;html=1;fontFamily=Times New Roman;fontSize=14;" parent="ODpzh3KOZSOkKFhCwHXW-71" vertex="1">
          <mxGeometry y="30" width="286.56" height="40" as="geometry" />
        </mxCell>
        <mxCell id="ODpzh3KOZSOkKFhCwHXW-73" value="&lt;div style=&quot;font-size: 14px;&quot;&gt;&lt;div style=&quot;font-size: 14px;&quot;&gt;output : fname_out，globalsvalues&lt;/div&gt;&lt;/div&gt;&lt;div style=&quot;font-size: 14px;&quot;&gt;&lt;/div&gt;&lt;div style=&quot;font-size: 14px;&quot;&gt;&lt;/div&gt;" style="text;strokeColor=default;fillColor=none;align=left;verticalAlign=middle;spacingLeft=4;spacingRight=4;overflow=hidden;points=[[0,0.5],[1,0.5]];portConstraint=eastwest;rotatable=0;whiteSpace=wrap;html=1;fontFamily=Times New Roman;fontSize=14;" parent="ODpzh3KOZSOkKFhCwHXW-71" vertex="1">
          <mxGeometry y="70" width="286.56" height="40" as="geometry" />
        </mxCell>
        <mxCell id="ODpzh3KOZSOkKFhCwHXW-74" value="&lt;div style=&quot;font-size: 14px;&quot;&gt;function: set the input of the subfunction to run first CHEASE for getting the coarse mesh result&lt;/div&gt;" style="text;strokeColor=default;fillColor=none;align=left;verticalAlign=middle;spacingLeft=4;spacingRight=4;overflow=hidden;points=[[0,0.5],[1,0.5]];portConstraint=eastwest;rotatable=0;whiteSpace=wrap;html=1;fontFamily=Times New Roman;fontSize=14;" parent="ODpzh3KOZSOkKFhCwHXW-71" vertex="1">
          <mxGeometry y="110" width="286.56" height="50" as="geometry" />
        </mxCell>
        <mxCell id="ODpzh3KOZSOkKFhCwHXW-67" value="&lt;div style=&quot;text-align: start;&quot;&gt;&lt;span style=&quot;font-size: 16px;&quot;&gt;&lt;b&gt;profiles_edgeeq&lt;/b&gt;&lt;/span&gt;&lt;br&gt;&lt;/div&gt;" style="swimlane;fontStyle=0;childLayout=stackLayout;horizontal=1;startSize=30;horizontalStack=0;resizeParent=1;resizeParentMax=0;resizeLast=0;collapsible=1;marginBottom=0;whiteSpace=wrap;html=1;fillColor=#ffe6cc;strokeColor=#d79b00;fontFamily=Times New Roman;" parent="ODpzh3KOZSOkKFhCwHXW-21" vertex="1">
          <mxGeometry x="71.72" y="1460" width="286.56" height="170" as="geometry" />
        </mxCell>
        <mxCell id="ODpzh3KOZSOkKFhCwHXW-68" value="&lt;div style=&quot;&quot;&gt;&lt;font style=&quot;font-size: 14px;&quot; color=&quot;#131300&quot;&gt;&lt;span style=&quot;caret-color: rgb(19, 19, 0); text-wrap: nowrap; font-size: 14px;&quot;&gt;input :&amp;nbsp;&lt;/span&gt;&lt;/font&gt;&lt;span style=&quot;background-color: initial;&quot;&gt;varargin&lt;/span&gt;&lt;/div&gt;" style="text;strokeColor=default;fillColor=none;align=left;verticalAlign=middle;spacingLeft=4;spacingRight=4;overflow=hidden;points=[[0,0.5],[1,0.5]];portConstraint=eastwest;rotatable=0;whiteSpace=wrap;html=1;fontFamily=Times New Roman;fontSize=14;" parent="ODpzh3KOZSOkKFhCwHXW-67" vertex="1">
          <mxGeometry y="30" width="286.56" height="40" as="geometry" />
        </mxCell>
        <mxCell id="ODpzh3KOZSOkKFhCwHXW-69" value="&lt;div style=&quot;font-size: 14px;&quot;&gt;&lt;div style=&quot;font-size: 14px;&quot;&gt;output : profile class&lt;/div&gt;&lt;/div&gt;&lt;div style=&quot;font-size: 14px;&quot;&gt;&lt;/div&gt;&lt;div style=&quot;font-size: 14px;&quot;&gt;&lt;/div&gt;" style="text;strokeColor=default;fillColor=none;align=left;verticalAlign=middle;spacingLeft=4;spacingRight=4;overflow=hidden;points=[[0,0.5],[1,0.5]];portConstraint=eastwest;rotatable=0;whiteSpace=wrap;html=1;fontFamily=Times New Roman;fontSize=14;" parent="ODpzh3KOZSOkKFhCwHXW-67" vertex="1">
          <mxGeometry y="70" width="286.56" height="40" as="geometry" />
        </mxCell>
        <mxCell id="ODpzh3KOZSOkKFhCwHXW-70" value="&lt;div style=&quot;font-size: 14px;&quot;&gt;function: combine the experimental edge profile with the pedestal fitting profile in a initial class for the CHEASE later&lt;/div&gt;" style="text;strokeColor=default;fillColor=none;align=left;verticalAlign=middle;spacingLeft=4;spacingRight=4;overflow=hidden;points=[[0,0.5],[1,0.5]];portConstraint=eastwest;rotatable=0;whiteSpace=wrap;html=1;fontFamily=Times New Roman;fontSize=14;" parent="ODpzh3KOZSOkKFhCwHXW-67" vertex="1">
          <mxGeometry y="110" width="286.56" height="60" as="geometry" />
        </mxCell>
        <mxCell id="CHKLxYgbjbBLdilAysRG-11" value="&lt;div style=&quot;text-align: start;&quot;&gt;&lt;span style=&quot;font-size: 16px;&quot;&gt;&lt;b&gt;default_parameter_set&lt;/b&gt;&lt;/span&gt;&lt;br&gt;&lt;/div&gt;" style="swimlane;fontStyle=0;childLayout=stackLayout;horizontal=1;startSize=30;horizontalStack=0;resizeParent=1;resizeParentMax=0;resizeLast=0;collapsible=1;marginBottom=0;whiteSpace=wrap;html=1;fillColor=#ffe6cc;strokeColor=#d79b00;fontFamily=Times New Roman;" parent="ODpzh3KOZSOkKFhCwHXW-21" vertex="1">
          <mxGeometry x="71.72000000000003" y="1660" width="286.56" height="170" as="geometry" />
        </mxCell>
        <mxCell id="CHKLxYgbjbBLdilAysRG-12" value="&lt;div style=&quot;&quot;&gt;&lt;font style=&quot;font-size: 14px;&quot; color=&quot;#131300&quot;&gt;&lt;span style=&quot;caret-color: rgb(19, 19, 0); text-wrap: nowrap; font-size: 14px;&quot;&gt;input :&amp;nbsp;&lt;/span&gt;&lt;/font&gt;&lt;span style=&quot;background-color: initial;&quot;&gt;driver_type&lt;/span&gt;&lt;/div&gt;" style="text;strokeColor=default;fillColor=none;align=left;verticalAlign=middle;spacingLeft=4;spacingRight=4;overflow=hidden;points=[[0,0.5],[1,0.5]];portConstraint=eastwest;rotatable=0;whiteSpace=wrap;html=1;fontFamily=Times New Roman;fontSize=14;" parent="CHKLxYgbjbBLdilAysRG-11" vertex="1">
          <mxGeometry y="30" width="286.56" height="40" as="geometry" />
        </mxCell>
        <mxCell id="CHKLxYgbjbBLdilAysRG-13" value="&lt;div style=&quot;font-size: 14px;&quot;&gt;&lt;div style=&quot;font-size: 14px;&quot;&gt;output :&amp;nbsp;&lt;span style=&quot;caret-color: rgb(0, 0, 0); background-color: initial;&quot;&gt;simul&lt;/span&gt;&lt;/div&gt;&lt;/div&gt;&lt;div style=&quot;font-size: 14px;&quot;&gt;&lt;/div&gt;&lt;div style=&quot;font-size: 14px;&quot;&gt;&lt;/div&gt;" style="text;strokeColor=default;fillColor=none;align=left;verticalAlign=middle;spacingLeft=4;spacingRight=4;overflow=hidden;points=[[0,0.5],[1,0.5]];portConstraint=eastwest;rotatable=0;whiteSpace=wrap;html=1;fontFamily=Times New Roman;fontSize=14;" parent="CHKLxYgbjbBLdilAysRG-11" vertex="1">
          <mxGeometry y="70" width="286.56" height="40" as="geometry" />
        </mxCell>
        <mxCell id="CHKLxYgbjbBLdilAysRG-14" value="&lt;div style=&quot;font-size: 14px;&quot;&gt;function: set the initial parameter and namelist for the calculation for the EPED-CH &lt;font color=&quot;#ff0000&quot;&gt;like&lt;/font&gt; CHEASE&lt;/div&gt;" style="text;strokeColor=default;fillColor=none;align=left;verticalAlign=middle;spacingLeft=4;spacingRight=4;overflow=hidden;points=[[0,0.5],[1,0.5]];portConstraint=eastwest;rotatable=0;whiteSpace=wrap;html=1;fontFamily=Times New Roman;fontSize=14;" parent="CHKLxYgbjbBLdilAysRG-11" vertex="1">
          <mxGeometry y="110" width="286.56" height="60" as="geometry" />
        </mxCell>
        <mxCell id="CHKLxYgbjbBLdilAysRG-37" style="edgeStyle=orthogonalEdgeStyle;rounded=0;orthogonalLoop=1;jettySize=auto;html=1;entryX=0.5;entryY=0;entryDx=0;entryDy=0;" parent="ODpzh3KOZSOkKFhCwHXW-21" source="CHKLxYgbjbBLdilAysRG-19" target="CHKLxYgbjbBLdilAysRG-15" edge="1">
          <mxGeometry relative="1" as="geometry" />
        </mxCell>
        <mxCell id="CHKLxYgbjbBLdilAysRG-19" value="&lt;div style=&quot;text-align: start;&quot;&gt;&lt;span style=&quot;font-size: 16px;&quot;&gt;&lt;b&gt;parameter_check&lt;/b&gt;&lt;/span&gt;&lt;br&gt;&lt;/div&gt;" style="swimlane;fontStyle=0;childLayout=stackLayout;horizontal=1;startSize=30;horizontalStack=0;resizeParent=1;resizeParentMax=0;resizeLast=0;collapsible=1;marginBottom=0;whiteSpace=wrap;html=1;fillColor=#ffe6cc;strokeColor=#d79b00;fontFamily=Times New Roman;" parent="ODpzh3KOZSOkKFhCwHXW-21" vertex="1">
          <mxGeometry x="71.72000000000003" y="2060" width="286.56" height="170" as="geometry" />
        </mxCell>
        <mxCell id="CHKLxYgbjbBLdilAysRG-20" value="&lt;div style=&quot;&quot;&gt;&lt;font style=&quot;font-size: 14px;&quot; color=&quot;#131300&quot;&gt;&lt;span style=&quot;caret-color: rgb(19, 19, 0); text-wrap: nowrap; font-size: 14px;&quot;&gt;input :&amp;nbsp;&lt;/span&gt;&lt;/font&gt;&lt;span style=&quot;background-color: initial;&quot;&gt;simul&lt;/span&gt;&lt;/div&gt;" style="text;strokeColor=default;fillColor=none;align=left;verticalAlign=middle;spacingLeft=4;spacingRight=4;overflow=hidden;points=[[0,0.5],[1,0.5]];portConstraint=eastwest;rotatable=0;whiteSpace=wrap;html=1;fontFamily=Times New Roman;fontSize=14;" parent="CHKLxYgbjbBLdilAysRG-19" vertex="1">
          <mxGeometry y="30" width="286.56" height="40" as="geometry" />
        </mxCell>
        <mxCell id="CHKLxYgbjbBLdilAysRG-21" value="&lt;div style=&quot;font-size: 14px;&quot;&gt;&lt;div style=&quot;font-size: 14px;&quot;&gt;output : simul&lt;/div&gt;&lt;/div&gt;&lt;div style=&quot;font-size: 14px;&quot;&gt;&lt;/div&gt;&lt;div style=&quot;font-size: 14px;&quot;&gt;&lt;/div&gt;" style="text;strokeColor=default;fillColor=none;align=left;verticalAlign=middle;spacingLeft=4;spacingRight=4;overflow=hidden;points=[[0,0.5],[1,0.5]];portConstraint=eastwest;rotatable=0;whiteSpace=wrap;html=1;fontFamily=Times New Roman;fontSize=14;" parent="CHKLxYgbjbBLdilAysRG-19" vertex="1">
          <mxGeometry y="70" width="286.56" height="40" as="geometry" />
        </mxCell>
        <mxCell id="CHKLxYgbjbBLdilAysRG-22" value="&lt;div style=&quot;font-size: 14px;&quot;&gt;function: check if these simul parameter has the right unit and been set rightly&lt;/div&gt;" style="text;strokeColor=default;fillColor=none;align=left;verticalAlign=middle;spacingLeft=4;spacingRight=4;overflow=hidden;points=[[0,0.5],[1,0.5]];portConstraint=eastwest;rotatable=0;whiteSpace=wrap;html=1;fontFamily=Times New Roman;fontSize=14;" parent="CHKLxYgbjbBLdilAysRG-19" vertex="1">
          <mxGeometry y="110" width="286.56" height="60" as="geometry" />
        </mxCell>
        <mxCell id="CHKLxYgbjbBLdilAysRG-15" value="&lt;div style=&quot;text-align: start;&quot;&gt;&lt;span style=&quot;font-size: 16px;&quot;&gt;&lt;b&gt;chease_loop_for_target_equil&lt;/b&gt;&lt;/span&gt;&lt;br&gt;&lt;/div&gt;" style="swimlane;fontStyle=0;childLayout=stackLayout;horizontal=1;startSize=30;horizontalStack=0;resizeParent=1;resizeParentMax=0;resizeLast=0;collapsible=1;marginBottom=0;whiteSpace=wrap;html=1;fillColor=#ffe6cc;strokeColor=#d79b00;fontFamily=Times New Roman;" parent="ODpzh3KOZSOkKFhCwHXW-21" vertex="1">
          <mxGeometry x="71.72000000000003" y="2270" width="286.56" height="170" as="geometry" />
        </mxCell>
        <mxCell id="CHKLxYgbjbBLdilAysRG-16" value="&lt;div style=&quot;&quot;&gt;&lt;font style=&quot;font-size: 14px;&quot; color=&quot;#131300&quot;&gt;&lt;span style=&quot;caret-color: rgb(19, 19, 0); text-wrap: nowrap; font-size: 14px;&quot;&gt;input :&amp;nbsp;&lt;/span&gt;&lt;/font&gt;&lt;span style=&quot;background-color: initial;&quot;&gt;inputs, params, options, profiles, savedir&lt;/span&gt;&lt;/div&gt;" style="text;strokeColor=default;fillColor=none;align=left;verticalAlign=middle;spacingLeft=4;spacingRight=4;overflow=hidden;points=[[0,0.5],[1,0.5]];portConstraint=eastwest;rotatable=0;whiteSpace=wrap;html=1;fontFamily=Times New Roman;fontSize=14;" parent="CHKLxYgbjbBLdilAysRG-15" vertex="1">
          <mxGeometry y="30" width="286.56" height="40" as="geometry" />
        </mxCell>
        <mxCell id="CHKLxYgbjbBLdilAysRG-17" value="&lt;div style=&quot;font-size: 14px;&quot;&gt;&lt;div style=&quot;font-size: 14px;&quot;&gt;output : CHEASE_out, profiles&lt;/div&gt;&lt;/div&gt;&lt;div style=&quot;font-size: 14px;&quot;&gt;&lt;/div&gt;&lt;div style=&quot;font-size: 14px;&quot;&gt;&lt;/div&gt;" style="text;strokeColor=default;fillColor=none;align=left;verticalAlign=middle;spacingLeft=4;spacingRight=4;overflow=hidden;points=[[0,0.5],[1,0.5]];portConstraint=eastwest;rotatable=0;whiteSpace=wrap;html=1;fontFamily=Times New Roman;fontSize=14;" parent="CHKLxYgbjbBLdilAysRG-15" vertex="1">
          <mxGeometry y="70" width="286.56" height="40" as="geometry" />
        </mxCell>
        <mxCell id="CHKLxYgbjbBLdilAysRG-18" value="&lt;div style=&quot;font-size: 14px;&quot;&gt;function: do the loop to make the equilibrium fit the experimental and pedestal fitting result&lt;/div&gt;" style="text;strokeColor=default;fillColor=none;align=left;verticalAlign=middle;spacingLeft=4;spacingRight=4;overflow=hidden;points=[[0,0.5],[1,0.5]];portConstraint=eastwest;rotatable=0;whiteSpace=wrap;html=1;fontFamily=Times New Roman;fontSize=14;" parent="CHKLxYgbjbBLdilAysRG-15" vertex="1">
          <mxGeometry y="110" width="286.56" height="60" as="geometry" />
        </mxCell>
        <mxCell id="CHKLxYgbjbBLdilAysRG-23" value="&lt;div style=&quot;text-align: start;&quot;&gt;&lt;span style=&quot;font-size: 16px;&quot;&gt;&lt;b&gt;get_eped_parameters_tcv&lt;/b&gt;&lt;/span&gt;&lt;br&gt;&lt;/div&gt;" style="swimlane;fontStyle=0;childLayout=stackLayout;horizontal=1;startSize=30;horizontalStack=0;resizeParent=1;resizeParentMax=0;resizeLast=0;collapsible=1;marginBottom=0;whiteSpace=wrap;html=1;fillColor=#ffe6cc;strokeColor=#d79b00;fontFamily=Times New Roman;" parent="ODpzh3KOZSOkKFhCwHXW-21" vertex="1">
          <mxGeometry x="71.72000000000003" y="1860" width="286.56" height="170" as="geometry" />
        </mxCell>
        <mxCell id="CHKLxYgbjbBLdilAysRG-24" value="&lt;div style=&quot;&quot;&gt;&lt;font style=&quot;font-size: 14px;&quot; color=&quot;#131300&quot;&gt;&lt;span style=&quot;caret-color: rgb(19, 19, 0); text-wrap: nowrap; font-size: 14px;&quot;&gt;input :&amp;nbsp;&lt;/span&gt;&lt;/font&gt;&lt;span style=&quot;background-color: initial;&quot;&gt;shot,time,delta,tped,nped,nverbose&lt;/span&gt;&lt;/div&gt;" style="text;strokeColor=default;fillColor=none;align=left;verticalAlign=middle;spacingLeft=4;spacingRight=4;overflow=hidden;points=[[0,0.5],[1,0.5]];portConstraint=eastwest;rotatable=0;whiteSpace=wrap;html=1;fontFamily=Times New Roman;fontSize=14;" parent="CHKLxYgbjbBLdilAysRG-23" vertex="1">
          <mxGeometry y="30" width="286.56" height="40" as="geometry" />
        </mxCell>
        <mxCell id="CHKLxYgbjbBLdilAysRG-25" value="&lt;div style=&quot;font-size: 14px;&quot;&gt;&lt;div style=&quot;font-size: 14px;&quot;&gt;output :&amp;nbsp;&lt;span style=&quot;caret-color: rgb(0, 0, 0); background-color: initial;&quot;&gt;inputs&lt;/span&gt;&lt;/div&gt;&lt;/div&gt;&lt;div style=&quot;font-size: 14px;&quot;&gt;&lt;/div&gt;&lt;div style=&quot;font-size: 14px;&quot;&gt;&lt;/div&gt;" style="text;strokeColor=default;fillColor=none;align=left;verticalAlign=middle;spacingLeft=4;spacingRight=4;overflow=hidden;points=[[0,0.5],[1,0.5]];portConstraint=eastwest;rotatable=0;whiteSpace=wrap;html=1;fontFamily=Times New Roman;fontSize=14;" parent="CHKLxYgbjbBLdilAysRG-23" vertex="1">
          <mxGeometry y="70" width="286.56" height="40" as="geometry" />
        </mxCell>
        <mxCell id="CHKLxYgbjbBLdilAysRG-26" value="&lt;div style=&quot;font-size: 14px;&quot;&gt;function: provides initial experimental parameters as input to EPED-CH like calculate from TCV nodes&lt;/div&gt;" style="text;strokeColor=default;fillColor=none;align=left;verticalAlign=middle;spacingLeft=4;spacingRight=4;overflow=hidden;points=[[0,0.5],[1,0.5]];portConstraint=eastwest;rotatable=0;whiteSpace=wrap;html=1;fontFamily=Times New Roman;fontSize=14;" parent="CHKLxYgbjbBLdilAysRG-23" vertex="1">
          <mxGeometry y="110" width="286.56" height="60" as="geometry" />
        </mxCell>
        <mxCell id="ODpzh3KOZSOkKFhCwHXW-54" value="&lt;font style=&quot;font-size: 22px;&quot;&gt;Third level&lt;/font&gt;" style="swimlane;html=1;startSize=40;fontFamily=Times New Roman;fontSize=22;" parent="ODpzh3KOZSOkKFhCwHXW-1" vertex="1">
          <mxGeometry x="1110" y="60" width="430" height="2470" as="geometry" />
        </mxCell>
        <mxCell id="ODpzh3KOZSOkKFhCwHXW-63" value="&lt;div style=&quot;text-align: start;&quot;&gt;&lt;b style=&quot;font-size: 16px;&quot;&gt;read_namelist&lt;/b&gt;&lt;br&gt;&lt;/div&gt;" style="swimlane;fontStyle=0;childLayout=stackLayout;horizontal=1;startSize=30;horizontalStack=0;resizeParent=1;resizeParentMax=0;resizeLast=0;collapsible=1;marginBottom=0;whiteSpace=wrap;html=1;fillColor=#ffe6cc;strokeColor=#d79b00;fontFamily=Times New Roman;" parent="ODpzh3KOZSOkKFhCwHXW-54" vertex="1">
          <mxGeometry x="60.00000000000003" y="1060" width="330" height="230" as="geometry" />
        </mxCell>
        <mxCell id="ODpzh3KOZSOkKFhCwHXW-64" value="&lt;div style=&quot;&quot;&gt;&lt;font style=&quot;font-size: 14px;&quot; color=&quot;#131300&quot;&gt;&lt;span style=&quot;caret-color: rgb(19, 19, 0); text-wrap: nowrap; font-size: 14px;&quot;&gt;input :&amp;nbsp;&lt;/span&gt;&lt;/font&gt;&lt;span style=&quot;background-color: initial; caret-color: rgb(19, 19, 0); text-wrap: nowrap;&quot;&gt;&lt;font color=&quot;#131300&quot;&gt;filename, namelist&lt;/font&gt;&lt;/span&gt;&lt;/div&gt;" style="text;strokeColor=default;fillColor=none;align=left;verticalAlign=middle;spacingLeft=4;spacingRight=4;overflow=hidden;points=[[0,0.5],[1,0.5]];portConstraint=eastwest;rotatable=0;whiteSpace=wrap;html=1;fontFamily=Times New Roman;fontSize=14;" parent="ODpzh3KOZSOkKFhCwHXW-63" vertex="1">
          <mxGeometry y="30" width="330" height="50" as="geometry" />
        </mxCell>
        <mxCell id="ODpzh3KOZSOkKFhCwHXW-65" value="&lt;div style=&quot;font-size: 14px;&quot;&gt;&lt;div style=&quot;font-size: 14px;&quot;&gt;output : data&lt;/div&gt;&lt;/div&gt;&lt;div style=&quot;font-size: 14px;&quot;&gt;&lt;/div&gt;&lt;div style=&quot;font-size: 14px;&quot;&gt;&lt;/div&gt;" style="text;strokeColor=default;fillColor=none;align=left;verticalAlign=middle;spacingLeft=4;spacingRight=4;overflow=hidden;points=[[0,0.5],[1,0.5]];portConstraint=eastwest;rotatable=0;whiteSpace=wrap;html=1;fontFamily=Times New Roman;fontSize=14;" parent="ODpzh3KOZSOkKFhCwHXW-63" vertex="1">
          <mxGeometry y="80" width="330" height="40" as="geometry" />
        </mxCell>
        <mxCell id="ODpzh3KOZSOkKFhCwHXW-66" value="&lt;div style=&quot;&quot;&gt;function:&amp;nbsp;&lt;span style=&quot;background-color: initial;&quot;&gt;This function reads a FORTRAN input namelist and returns the values as&amp;nbsp;&lt;/span&gt;&lt;span style=&quot;background-color: initial;&quot;&gt;the fields of a structure. Multidimensional arrays have their indicies&amp;nbsp;&lt;/span&gt;&lt;span style=&quot;background-color: initial;&quot;&gt;scaled and shifted to fit the matlab numbering scheme.&lt;/span&gt;&lt;/div&gt;" style="text;strokeColor=default;fillColor=none;align=left;verticalAlign=middle;spacingLeft=4;spacingRight=4;overflow=hidden;points=[[0,0.5],[1,0.5]];portConstraint=eastwest;rotatable=0;whiteSpace=wrap;html=1;fontFamily=Times New Roman;fontSize=14;" parent="ODpzh3KOZSOkKFhCwHXW-63" vertex="1">
          <mxGeometry y="120" width="330" height="110" as="geometry" />
        </mxCell>
        <mxCell id="CHKLxYgbjbBLdilAysRG-3" value="&lt;div style=&quot;text-align: start;&quot;&gt;&lt;span style=&quot;font-size: 16px;&quot;&gt;&lt;b&gt;run_chease&lt;/b&gt;&lt;/span&gt;&lt;br&gt;&lt;/div&gt;" style="swimlane;fontStyle=0;childLayout=stackLayout;horizontal=1;startSize=30;horizontalStack=0;resizeParent=1;resizeParentMax=0;resizeLast=0;collapsible=1;marginBottom=0;whiteSpace=wrap;html=1;fillColor=#ffe6cc;strokeColor=#d79b00;fontFamily=Times New Roman;" parent="ODpzh3KOZSOkKFhCwHXW-54" vertex="1">
          <mxGeometry x="60" y="1310" width="330" height="200" as="geometry" />
        </mxCell>
        <mxCell id="CHKLxYgbjbBLdilAysRG-4" value="&lt;div style=&quot;&quot;&gt;&lt;font style=&quot;font-size: 14px;&quot; color=&quot;#131300&quot;&gt;&lt;span style=&quot;caret-color: rgb(19, 19, 0); text-wrap: nowrap; font-size: 14px;&quot;&gt;input :&amp;nbsp;&lt;/span&gt;&lt;/font&gt;&lt;span style=&quot;background-color: initial; caret-color: rgb(19, 19, 0); text-wrap: nowrap;&quot;&gt;&lt;font color=&quot;#131300&quot;&gt;namelistfile, inputfile, cocos_in, varargin&lt;/font&gt;&lt;/span&gt;&lt;/div&gt;" style="text;strokeColor=default;fillColor=none;align=left;verticalAlign=middle;spacingLeft=4;spacingRight=4;overflow=hidden;points=[[0,0.5],[1,0.5]];portConstraint=eastwest;rotatable=0;whiteSpace=wrap;html=1;fontFamily=Times New Roman;fontSize=14;" parent="CHKLxYgbjbBLdilAysRG-3" vertex="1">
          <mxGeometry y="30" width="330" height="50" as="geometry" />
        </mxCell>
        <mxCell id="CHKLxYgbjbBLdilAysRG-5" value="&lt;div style=&quot;font-size: 14px;&quot;&gt;&lt;div style=&quot;font-size: 14px;&quot;&gt;output : fname_out, globalsvalues, namelist_struct, namelistfile_eff&lt;/div&gt;&lt;/div&gt;&lt;div style=&quot;font-size: 14px;&quot;&gt;&lt;/div&gt;&lt;div style=&quot;font-size: 14px;&quot;&gt;&lt;/div&gt;" style="text;strokeColor=default;fillColor=none;align=left;verticalAlign=middle;spacingLeft=4;spacingRight=4;overflow=hidden;points=[[0,0.5],[1,0.5]];portConstraint=eastwest;rotatable=0;whiteSpace=wrap;html=1;fontFamily=Times New Roman;fontSize=14;" parent="CHKLxYgbjbBLdilAysRG-3" vertex="1">
          <mxGeometry y="80" width="330" height="60" as="geometry" />
        </mxCell>
        <mxCell id="CHKLxYgbjbBLdilAysRG-6" value="&lt;div style=&quot;&quot;&gt;function: run CHEASE code to calculate the equilibrium&lt;/div&gt;" style="text;strokeColor=default;fillColor=none;align=left;verticalAlign=middle;spacingLeft=4;spacingRight=4;overflow=hidden;points=[[0,0.5],[1,0.5]];portConstraint=eastwest;rotatable=0;whiteSpace=wrap;html=1;fontFamily=Times New Roman;fontSize=14;" parent="CHKLxYgbjbBLdilAysRG-3" vertex="1">
          <mxGeometry y="140" width="330" height="60" as="geometry" />
        </mxCell>
        <mxCell id="CHKLxYgbjbBLdilAysRG-27" value="&lt;div style=&quot;text-align: start;&quot;&gt;&lt;span style=&quot;font-size: 16px;&quot;&gt;&lt;b&gt;profiles_abstract&lt;/b&gt;&lt;/span&gt;&lt;br&gt;&lt;/div&gt;" style="swimlane;fontStyle=0;childLayout=stackLayout;horizontal=1;startSize=30;horizontalStack=0;resizeParent=1;resizeParentMax=0;resizeLast=0;collapsible=1;marginBottom=0;whiteSpace=wrap;html=1;fillColor=#ffe6cc;strokeColor=#d79b00;fontFamily=Times New Roman;" parent="ODpzh3KOZSOkKFhCwHXW-54" vertex="1">
          <mxGeometry x="60" y="1540" width="330" height="200" as="geometry" />
        </mxCell>
        <mxCell id="CHKLxYgbjbBLdilAysRG-28" value="&lt;div style=&quot;&quot;&gt;input: None&lt;/div&gt;" style="text;strokeColor=default;fillColor=none;align=left;verticalAlign=middle;spacingLeft=4;spacingRight=4;overflow=hidden;points=[[0,0.5],[1,0.5]];portConstraint=eastwest;rotatable=0;whiteSpace=wrap;html=1;fontFamily=Times New Roman;fontSize=14;" parent="CHKLxYgbjbBLdilAysRG-27" vertex="1">
          <mxGeometry y="30" width="330" height="50" as="geometry" />
        </mxCell>
        <mxCell id="CHKLxYgbjbBLdilAysRG-29" value="&lt;div style=&quot;font-size: 14px;&quot;&gt;&lt;div style=&quot;font-size: 14px;&quot;&gt;output : basic abstract class for profiles definition&lt;/div&gt;&lt;/div&gt;&lt;div style=&quot;font-size: 14px;&quot;&gt;&lt;/div&gt;&lt;div style=&quot;font-size: 14px;&quot;&gt;&lt;/div&gt;" style="text;strokeColor=default;fillColor=none;align=left;verticalAlign=middle;spacingLeft=4;spacingRight=4;overflow=hidden;points=[[0,0.5],[1,0.5]];portConstraint=eastwest;rotatable=0;whiteSpace=wrap;html=1;fontFamily=Times New Roman;fontSize=14;" parent="CHKLxYgbjbBLdilAysRG-27" vertex="1">
          <mxGeometry y="80" width="330" height="60" as="geometry" />
        </mxCell>
        <mxCell id="CHKLxYgbjbBLdilAysRG-30" value="&lt;div style=&quot;&quot;&gt;function: define some function and properties for the initial profile class defination&lt;/div&gt;" style="text;strokeColor=default;fillColor=none;align=left;verticalAlign=middle;spacingLeft=4;spacingRight=4;overflow=hidden;points=[[0,0.5],[1,0.5]];portConstraint=eastwest;rotatable=0;whiteSpace=wrap;html=1;fontFamily=Times New Roman;fontSize=14;" parent="CHKLxYgbjbBLdilAysRG-27" vertex="1">
          <mxGeometry y="140" width="330" height="60" as="geometry" />
        </mxCell>
        <mxCell id="CHKLxYgbjbBLdilAysRG-36" value="&lt;span style=&quot;color: rgb(0, 4, 102); font-family: NeverMind, sans-serif, &amp;quot;Microsoft YaHei&amp;quot;, &amp;quot;PingFang SC&amp;quot;, &amp;quot;Microsoft JhengHei&amp;quot;, &amp;quot;Apple Color Emoji&amp;quot;, &amp;quot;Segoe UI Emoji&amp;quot;, &amp;quot;Segoe UI Symbol&amp;quot;, &amp;quot;Noto Color Emoji&amp;quot;; font-size: 14px; text-align: left; white-space-collapse: break-spaces; background-color: rgb(255, 255, 255);&quot;&gt;set_ion_parameters&lt;/span&gt;" style="whiteSpace=wrap;html=1;" parent="ODpzh3KOZSOkKFhCwHXW-54" vertex="1">
          <mxGeometry x="31" y="2030" width="120" height="60" as="geometry" />
        </mxCell>
        <mxCell id="CHKLxYgbjbBLdilAysRG-2" style="edgeStyle=orthogonalEdgeStyle;rounded=0;orthogonalLoop=1;jettySize=auto;html=1;entryX=0;entryY=0.5;entryDx=0;entryDy=0;" parent="ODpzh3KOZSOkKFhCwHXW-1" source="ODpzh3KOZSOkKFhCwHXW-77" target="ODpzh3KOZSOkKFhCwHXW-65" edge="1">
          <mxGeometry relative="1" as="geometry" />
        </mxCell>
        <mxCell id="CHKLxYgbjbBLdilAysRG-7" style="edgeStyle=orthogonalEdgeStyle;rounded=0;orthogonalLoop=1;jettySize=auto;html=1;entryX=0;entryY=0.5;entryDx=0;entryDy=0;" parent="ODpzh3KOZSOkKFhCwHXW-1" source="ODpzh3KOZSOkKFhCwHXW-73" target="CHKLxYgbjbBLdilAysRG-5" edge="1">
          <mxGeometry relative="1" as="geometry" />
        </mxCell>
        <mxCell id="CHKLxYgbjbBLdilAysRG-31" style="edgeStyle=orthogonalEdgeStyle;rounded=0;orthogonalLoop=1;jettySize=auto;html=1;entryX=0;entryY=0.5;entryDx=0;entryDy=0;" parent="ODpzh3KOZSOkKFhCwHXW-1" source="ODpzh3KOZSOkKFhCwHXW-69" target="CHKLxYgbjbBLdilAysRG-29" edge="1">
          <mxGeometry relative="1" as="geometry" />
        </mxCell>
        <mxCell id="CHKLxYgbjbBLdilAysRG-41" style="edgeStyle=orthogonalEdgeStyle;rounded=0;orthogonalLoop=1;jettySize=auto;html=1;entryX=1;entryY=0.5;entryDx=0;entryDy=0;" parent="ODpzh3KOZSOkKFhCwHXW-1" source="ODpzh3KOZSOkKFhCwHXW-40" target="CHKLxYgbjbBLdilAysRG-5" edge="1">
          <mxGeometry relative="1" as="geometry">
            <mxPoint x="1520" y="1481.1764705882347" as="targetPoint" />
          </mxGeometry>
        </mxCell>
        <mxCell id="CHKLxYgbjbBLdilAysRG-39" value="" style="edgeStyle=elbowEdgeStyle;elbow=horizontal;endArrow=classic;html=1;curved=0;rounded=0;endSize=8;startSize=8;entryX=0;entryY=0.5;entryDx=0;entryDy=0;" parent="1" target="CHKLxYgbjbBLdilAysRG-30" edge="1">
          <mxGeometry width="50" height="50" relative="1" as="geometry">
            <mxPoint x="940" y="1780" as="sourcePoint" />
            <mxPoint x="1200" y="1530" as="targetPoint" />
            <Array as="points">
              <mxPoint x="1170" y="1660" />
            </Array>
          </mxGeometry>
        </mxCell>
      </root>
    </mxGraphModel>
  </diagram>
  <diagram id="uHjuPChODsO_UHgDLlBx" name="第 4 页">
    <mxGraphModel dx="1305" dy="2092" grid="1" gridSize="10" guides="1" tooltips="1" connect="1" arrows="1" fold="1" page="1" pageScale="1" pageWidth="827" pageHeight="1169" math="0" shadow="0">
      <root>
        <mxCell id="0" />
        <mxCell id="1" parent="0" />
        <mxCell id="PFNKDa208meKvQQs3WgB-1" value="&lt;font style=&quot;font-size: 29px;&quot;&gt;CHEASE PART&lt;/font&gt;" style="swimlane;html=1;childLayout=stackLayout;startSize=60;rounded=0;shadow=0;comic=0;labelBackgroundColor=none;strokeWidth=1;fontFamily=Times New Roman;fontSize=29;align=center;" vertex="1" parent="1">
          <mxGeometry x="40" y="-530" width="1540" height="2440" as="geometry" />
        </mxCell>
        <mxCell id="PFNKDa208meKvQQs3WgB-2" value="&lt;font style=&quot;font-size: 22px;&quot;&gt;First level&lt;/font&gt;" style="swimlane;html=1;startSize=40;fontFamily=Times New Roman;fontSize=22;" vertex="1" parent="PFNKDa208meKvQQs3WgB-1">
          <mxGeometry y="60" width="330" height="2380" as="geometry" />
        </mxCell>
        <mxCell id="PFNKDa208meKvQQs3WgB-3" value="&lt;code style=&quot;caret-color: rgb(0, 0, 0); text-align: start;&quot;&gt;&lt;b&gt;&lt;font style=&quot;font-size: 16px;&quot; face=&quot;Times New Roman&quot;&gt;tcv_high_res_equil&lt;/font&gt;&lt;/b&gt;&lt;/code&gt;" style="swimlane;fontStyle=0;childLayout=stackLayout;horizontal=1;startSize=30;horizontalStack=0;resizeParent=1;resizeParentMax=0;resizeLast=0;collapsible=1;marginBottom=0;whiteSpace=wrap;html=1;fillColor=#d5e8d4;strokeColor=#82b366;fontFamily=Times New Roman;" vertex="1" parent="PFNKDa208meKvQQs3WgB-2">
          <mxGeometry x="28.44" y="60" width="273.12" height="180" as="geometry" />
        </mxCell>
        <mxCell id="PFNKDa208meKvQQs3WgB-4" value="&lt;div&gt;&lt;font size=&quot;1&quot; color=&quot;#131300&quot;&gt;&lt;span style=&quot;caret-color: rgb(19, 19, 0); text-wrap: nowrap; font-size: 14px;&quot;&gt;input : shot, [time_start, time_end]&lt;/span&gt;&lt;/font&gt;&lt;/div&gt;" style="text;strokeColor=default;fillColor=none;align=left;verticalAlign=middle;spacingLeft=4;spacingRight=4;overflow=hidden;points=[[0,0.5],[1,0.5]];portConstraint=eastwest;rotatable=0;whiteSpace=wrap;html=1;fontFamily=Times New Roman;" vertex="1" parent="PFNKDa208meKvQQs3WgB-3">
          <mxGeometry y="30" width="273.12" height="50" as="geometry" />
        </mxCell>
        <mxCell id="PFNKDa208meKvQQs3WgB-5" value="&lt;div&gt;&lt;div&gt;&lt;font style=&quot;font-size: 14px;&quot;&gt;output :&amp;nbsp;&lt;/font&gt;&lt;span style=&quot;caret-color: rgb(0, 0, 0); background-color: initial;&quot;&gt;CHEASE_out, profiles, shot_info, workdir&lt;/span&gt;&lt;/div&gt;&lt;/div&gt;&lt;div&gt;&lt;/div&gt;&lt;div&gt;&lt;/div&gt;" style="text;strokeColor=default;fillColor=none;align=left;verticalAlign=middle;spacingLeft=4;spacingRight=4;overflow=hidden;points=[[0,0.5],[1,0.5]];portConstraint=eastwest;rotatable=0;whiteSpace=wrap;html=1;fontFamily=Times New Roman;" vertex="1" parent="PFNKDa208meKvQQs3WgB-3">
          <mxGeometry y="80" width="273.12" height="50" as="geometry" />
        </mxCell>
        <mxCell id="PFNKDa208meKvQQs3WgB-6" value="&lt;div&gt;&lt;font style=&quot;font-size: 14px;&quot;&gt;function:&amp;nbsp; the main function to run CHEASE package for equilibrium profiles.&lt;/font&gt;&lt;/div&gt;" style="text;strokeColor=default;fillColor=none;align=left;verticalAlign=middle;spacingLeft=4;spacingRight=4;overflow=hidden;points=[[0,0.5],[1,0.5]];portConstraint=eastwest;rotatable=0;whiteSpace=wrap;html=1;fontFamily=Times New Roman;" vertex="1" parent="PFNKDa208meKvQQs3WgB-3">
          <mxGeometry y="130" width="273.12" height="50" as="geometry" />
        </mxCell>
        <mxCell id="PFNKDa208meKvQQs3WgB-17" value="&lt;font color=&quot;#ff0000&quot; style=&quot;font-size: 14px;&quot;&gt;Call&lt;/font&gt;" style="edgeStyle=orthogonalEdgeStyle;rounded=0;orthogonalLoop=1;jettySize=auto;html=1;entryX=1;entryY=0.5;entryDx=0;entryDy=0;strokeWidth=2;" edge="1" parent="PFNKDa208meKvQQs3WgB-1" source="PFNKDa208meKvQQs3WgB-14" target="PFNKDa208meKvQQs3WgB-79">
          <mxGeometry relative="1" as="geometry">
            <mxPoint x="1520" y="1481.1764705882347" as="targetPoint" />
          </mxGeometry>
        </mxCell>
        <mxCell id="PFNKDa208meKvQQs3WgB-7" value="&lt;font style=&quot;font-size: 22px;&quot;&gt;Second level&lt;/font&gt;" style="swimlane;html=1;startSize=40;fontFamily=Times New Roman;fontSize=22;" vertex="1" parent="PFNKDa208meKvQQs3WgB-1">
          <mxGeometry x="330" y="60" width="350" height="2380" as="geometry" />
        </mxCell>
        <mxCell id="PFNKDa208meKvQQs3WgB-8" value="&lt;div style=&quot;text-align: start;&quot;&gt;&lt;span style=&quot;background-color: initial; font-size: 16px;&quot;&gt;&lt;b&gt;tcv_high_res_edge_equil&lt;/b&gt;&lt;/span&gt;&lt;/div&gt;" style="swimlane;fontStyle=0;childLayout=stackLayout;horizontal=1;startSize=30;horizontalStack=0;resizeParent=1;resizeParentMax=0;resizeLast=0;collapsible=1;marginBottom=0;whiteSpace=wrap;html=1;fillColor=#e1d5e7;strokeColor=#9673a6;fontFamily=Times New Roman;" vertex="1" parent="PFNKDa208meKvQQs3WgB-7">
          <mxGeometry x="60" y="60" width="273.12" height="180" as="geometry" />
        </mxCell>
        <mxCell id="PFNKDa208meKvQQs3WgB-9" value="&lt;div&gt;&lt;font size=&quot;1&quot; color=&quot;#131300&quot;&gt;&lt;span style=&quot;caret-color: rgb(19, 19, 0); text-wrap: nowrap; font-size: 14px;&quot;&gt;input :&amp;nbsp;&lt;/span&gt;&lt;/font&gt;&lt;span style=&quot;background-color: initial; font-size: 14px; caret-color: rgb(19, 19, 0); text-wrap: nowrap;&quot;&gt;&lt;font color=&quot;#131300&quot;&gt;profiles, pedestal,workdir,shot_info&lt;/font&gt;&lt;/span&gt;&lt;/div&gt;" style="text;strokeColor=default;fillColor=none;align=left;verticalAlign=middle;spacingLeft=4;spacingRight=4;overflow=hidden;points=[[0,0.5],[1,0.5]];portConstraint=eastwest;rotatable=0;whiteSpace=wrap;html=1;fontFamily=Times New Roman;" vertex="1" parent="PFNKDa208meKvQQs3WgB-8">
          <mxGeometry y="30" width="273.12" height="50" as="geometry" />
        </mxCell>
        <mxCell id="PFNKDa208meKvQQs3WgB-10" value="&lt;div&gt;&lt;div&gt;&lt;font style=&quot;font-size: 14px;&quot;&gt;output :&amp;nbsp;&lt;/font&gt;&lt;span style=&quot;caret-color: rgb(0, 0, 0); background-color: initial;&quot;&gt;CHEASE_out, profiles&lt;/span&gt;&lt;/div&gt;&lt;/div&gt;&lt;div&gt;&lt;/div&gt;&lt;div&gt;&lt;/div&gt;" style="text;strokeColor=default;fillColor=none;align=left;verticalAlign=middle;spacingLeft=4;spacingRight=4;overflow=hidden;points=[[0,0.5],[1,0.5]];portConstraint=eastwest;rotatable=0;whiteSpace=wrap;html=1;fontFamily=Times New Roman;" vertex="1" parent="PFNKDa208meKvQQs3WgB-8">
          <mxGeometry y="80" width="273.12" height="50" as="geometry" />
        </mxCell>
        <mxCell id="PFNKDa208meKvQQs3WgB-11" value="&lt;div&gt;&lt;font style=&quot;font-size: 14px;&quot;&gt;function:&amp;nbsp;The first program running CHEASE for equilibrium profiles.&lt;/font&gt;&lt;/div&gt;" style="text;strokeColor=default;fillColor=none;align=left;verticalAlign=middle;spacingLeft=4;spacingRight=4;overflow=hidden;points=[[0,0.5],[1,0.5]];portConstraint=eastwest;rotatable=0;whiteSpace=wrap;html=1;fontFamily=Times New Roman;" vertex="1" parent="PFNKDa208meKvQQs3WgB-8">
          <mxGeometry y="130" width="273.12" height="50" as="geometry" />
        </mxCell>
        <mxCell id="PFNKDa208meKvQQs3WgB-12" value="&lt;div style=&quot;text-align: start;&quot;&gt;&lt;span style=&quot;background-color: initial; font-size: 16px;&quot;&gt;&lt;b&gt;rerun_chease&lt;/b&gt;&lt;/span&gt;&lt;/div&gt;" style="swimlane;fontStyle=0;childLayout=stackLayout;horizontal=1;startSize=30;horizontalStack=0;resizeParent=1;resizeParentMax=0;resizeLast=0;collapsible=1;marginBottom=0;whiteSpace=wrap;html=1;fillColor=#e1d5e7;strokeColor=#9673a6;fontFamily=Times New Roman;" vertex="1" parent="PFNKDa208meKvQQs3WgB-7">
          <mxGeometry x="60" y="410" width="273.12" height="190" as="geometry" />
        </mxCell>
        <mxCell id="PFNKDa208meKvQQs3WgB-13" value="&lt;div&gt;&lt;font size=&quot;1&quot; color=&quot;#131300&quot;&gt;&lt;span style=&quot;caret-color: rgb(19, 19, 0); text-wrap: nowrap; font-size: 14px;&quot;&gt;input :&amp;nbsp;&lt;/span&gt;&lt;/font&gt;&lt;span style=&quot;background-color: initial; font-size: 14px; caret-color: rgb(19, 19, 0); text-wrap: nowrap;&quot;&gt;&lt;font color=&quot;#131300&quot;&gt;workdir&lt;/font&gt;&lt;/span&gt;&lt;/div&gt;" style="text;strokeColor=default;fillColor=none;align=left;verticalAlign=middle;spacingLeft=4;spacingRight=4;overflow=hidden;points=[[0,0.5],[1,0.5]];portConstraint=eastwest;rotatable=0;whiteSpace=wrap;html=1;fontFamily=Times New Roman;" vertex="1" parent="PFNKDa208meKvQQs3WgB-12">
          <mxGeometry y="30" width="273.12" height="50" as="geometry" />
        </mxCell>
        <mxCell id="PFNKDa208meKvQQs3WgB-14" value="&lt;div&gt;&lt;div&gt;&lt;font style=&quot;font-size: 14px;&quot;&gt;output :&amp;nbsp;&lt;/font&gt;&lt;span style=&quot;background-color: initial;&quot;&gt;&lt;font style=&quot;font-size: 14px;&quot;&gt;fname_out, globalsvalues, namelist_struct, namelistfile_eff&lt;/font&gt;&lt;/span&gt;&lt;/div&gt;&lt;/div&gt;&lt;div&gt;&lt;/div&gt;&lt;div&gt;&lt;/div&gt;" style="text;strokeColor=default;fillColor=none;align=left;verticalAlign=middle;spacingLeft=4;spacingRight=4;overflow=hidden;points=[[0,0.5],[1,0.5]];portConstraint=eastwest;rotatable=0;whiteSpace=wrap;html=1;fontFamily=Times New Roman;" vertex="1" parent="PFNKDa208meKvQQs3WgB-12">
          <mxGeometry y="80" width="273.12" height="50" as="geometry" />
        </mxCell>
        <mxCell id="PFNKDa208meKvQQs3WgB-15" value="&lt;div&gt;&lt;font style=&quot;font-size: 14px;&quot;&gt;function:&amp;nbsp; Get a higer&amp;nbsp;&lt;/font&gt;&lt;span style=&quot;background-color: initial; font-size: 14px;&quot;&gt;resolution equilibrium result which will be used (Not here for KINX/BALM)&lt;/span&gt;&lt;/div&gt;" style="text;strokeColor=default;fillColor=none;align=left;verticalAlign=middle;spacingLeft=4;spacingRight=4;overflow=hidden;points=[[0,0.5],[1,0.5]];portConstraint=eastwest;rotatable=0;whiteSpace=wrap;html=1;fontFamily=Times New Roman;" vertex="1" parent="PFNKDa208meKvQQs3WgB-12">
          <mxGeometry y="130" width="273.12" height="60" as="geometry" />
        </mxCell>
        <mxCell id="PFNKDa208meKvQQs3WgB-16" value="" style="html=1;shadow=0;dashed=0;align=center;verticalAlign=middle;shape=mxgraph.arrows2.arrow;dy=0.6;dx=40;direction=south;notch=0;fillColor=#FFFF00;" vertex="1" parent="PFNKDa208meKvQQs3WgB-7">
          <mxGeometry x="33" y="50" width="20" height="760" as="geometry" />
        </mxCell>
        <mxCell id="PFNKDa208meKvQQs3WgB-18" value="&lt;font style=&quot;font-size: 22px;&quot;&gt;Third level&lt;/font&gt;" style="swimlane;html=1;startSize=40;fontFamily=Times New Roman;fontSize=22;" vertex="1" parent="PFNKDa208meKvQQs3WgB-1">
          <mxGeometry x="680" y="60" width="430" height="2380" as="geometry" />
        </mxCell>
        <mxCell id="PFNKDa208meKvQQs3WgB-19" value="&lt;div style=&quot;text-align: start;&quot;&gt;&lt;span style=&quot;background-color: initial; font-size: 16px;&quot;&gt;&lt;b&gt;physical_constants&lt;/b&gt;&lt;/span&gt;&lt;/div&gt;" style="swimlane;fontStyle=0;childLayout=stackLayout;horizontal=1;startSize=30;horizontalStack=0;resizeParent=1;resizeParentMax=0;resizeLast=0;collapsible=1;marginBottom=0;whiteSpace=wrap;html=1;fillColor=#ffe6cc;strokeColor=#d79b00;fontFamily=Times New Roman;" vertex="1" parent="PFNKDa208meKvQQs3WgB-18">
          <mxGeometry x="107" y="60" width="286.56" height="140" as="geometry" />
        </mxCell>
        <mxCell id="PFNKDa208meKvQQs3WgB-20" value="&lt;div style=&quot;font-size: 14px;&quot;&gt;&lt;font style=&quot;font-size: 14px;&quot; color=&quot;#131300&quot;&gt;&lt;span style=&quot;caret-color: rgb(19, 19, 0); text-wrap: nowrap; font-size: 14px;&quot;&gt;input :&amp;nbsp;&lt;/span&gt;&lt;/font&gt;&lt;span style=&quot;caret-color: rgb(0, 0, 0); background-color: initial;&quot;&gt;None&lt;/span&gt;&lt;/div&gt;" style="text;strokeColor=default;fillColor=none;align=left;verticalAlign=middle;spacingLeft=4;spacingRight=4;overflow=hidden;points=[[0,0.5],[1,0.5]];portConstraint=eastwest;rotatable=0;whiteSpace=wrap;html=1;fontFamily=Times New Roman;fontSize=14;" vertex="1" parent="PFNKDa208meKvQQs3WgB-19">
          <mxGeometry y="30" width="286.56" height="30" as="geometry" />
        </mxCell>
        <mxCell id="PFNKDa208meKvQQs3WgB-21" value="&lt;div&gt;&lt;div&gt;&lt;font style=&quot;font-size: 14px;&quot;&gt;output : phys&amp;nbsp;&lt;/font&gt;&lt;/div&gt;&lt;/div&gt;&lt;div&gt;&lt;/div&gt;&lt;div&gt;&lt;/div&gt;" style="text;strokeColor=default;fillColor=none;align=left;verticalAlign=middle;spacingLeft=4;spacingRight=4;overflow=hidden;points=[[0,0.5],[1,0.5]];portConstraint=eastwest;rotatable=0;whiteSpace=wrap;html=1;fontFamily=Times New Roman;" vertex="1" parent="PFNKDa208meKvQQs3WgB-19">
          <mxGeometry y="60" width="286.56" height="40" as="geometry" />
        </mxCell>
        <mxCell id="PFNKDa208meKvQQs3WgB-22" value="&lt;div style=&quot;&quot;&gt;&lt;font style=&quot;font-size: 14px;&quot; face=&quot;Times New Roman&quot;&gt;&lt;font style=&quot;font-size: 14px;&quot;&gt;function:&amp;nbsp;&lt;/font&gt;&lt;/font&gt;&lt;span style=&quot;background-color: initial; font-size: 14px;&quot;&gt;set physical constants&lt;/span&gt;&lt;/div&gt;" style="text;strokeColor=default;fillColor=none;align=left;verticalAlign=middle;spacingLeft=4;spacingRight=4;overflow=hidden;points=[[0,0.5],[1,0.5]];portConstraint=eastwest;rotatable=0;whiteSpace=wrap;html=1;fontFamily=Times New Roman;" vertex="1" parent="PFNKDa208meKvQQs3WgB-19">
          <mxGeometry y="100" width="286.56" height="40" as="geometry" />
        </mxCell>
        <mxCell id="PFNKDa208meKvQQs3WgB-23" value="&lt;div style=&quot;text-align: start;&quot;&gt;&lt;span style=&quot;background-color: initial; font-size: 16px;&quot;&gt;&lt;b&gt;conf2exptnz&lt;/b&gt;&lt;/span&gt;&lt;/div&gt;" style="swimlane;fontStyle=0;childLayout=stackLayout;horizontal=1;startSize=30;horizontalStack=0;resizeParent=1;resizeParentMax=0;resizeLast=0;collapsible=1;marginBottom=0;whiteSpace=wrap;html=1;fillColor=#ffe6cc;strokeColor=#d79b00;fontFamily=Times New Roman;" vertex="1" parent="PFNKDa208meKvQQs3WgB-18">
          <mxGeometry x="107" y="220" width="286.56" height="190" as="geometry" />
        </mxCell>
        <mxCell id="PFNKDa208meKvQQs3WgB-24" value="&lt;div style=&quot;&quot;&gt;&lt;font style=&quot;font-size: 14px;&quot; color=&quot;#131300&quot;&gt;&lt;span style=&quot;caret-color: rgb(19, 19, 0); text-wrap: nowrap; font-size: 14px;&quot;&gt;input :&amp;nbsp;&lt;/span&gt;&lt;/font&gt;&lt;span style=&quot;background-color: initial;&quot;&gt;shot,time,trialindx,workdir&lt;/span&gt;&lt;/div&gt;" style="text;strokeColor=default;fillColor=none;align=left;verticalAlign=middle;spacingLeft=4;spacingRight=4;overflow=hidden;points=[[0,0.5],[1,0.5]];portConstraint=eastwest;rotatable=0;whiteSpace=wrap;html=1;fontFamily=Times New Roman;fontSize=14;" vertex="1" parent="PFNKDa208meKvQQs3WgB-23">
          <mxGeometry y="30" width="286.56" height="50" as="geometry" />
        </mxCell>
        <mxCell id="PFNKDa208meKvQQs3WgB-25" value="&lt;div style=&quot;font-size: 14px;&quot;&gt;&lt;div style=&quot;font-size: 14px;&quot;&gt;output : exptnz&lt;/div&gt;&lt;/div&gt;&lt;div style=&quot;font-size: 14px;&quot;&gt;&lt;/div&gt;&lt;div style=&quot;font-size: 14px;&quot;&gt;&lt;/div&gt;" style="text;strokeColor=default;fillColor=none;align=left;verticalAlign=middle;spacingLeft=4;spacingRight=4;overflow=hidden;points=[[0,0.5],[1,0.5]];portConstraint=eastwest;rotatable=0;whiteSpace=wrap;html=1;fontFamily=Times New Roman;fontSize=14;" vertex="1" parent="PFNKDa208meKvQQs3WgB-23">
          <mxGeometry y="80" width="286.56" height="50" as="geometry" />
        </mxCell>
        <mxCell id="PFNKDa208meKvQQs3WgB-26" value="&lt;div style=&quot;font-size: 14px;&quot;&gt;function: read the EXPTNZ file from experiment to get the experimental parameters like Te, ne, Zeff, Ti, ni&amp;nbsp;&lt;/div&gt;" style="text;strokeColor=default;fillColor=none;align=left;verticalAlign=middle;spacingLeft=4;spacingRight=4;overflow=hidden;points=[[0,0.5],[1,0.5]];portConstraint=eastwest;rotatable=0;whiteSpace=wrap;html=1;fontFamily=Times New Roman;fontSize=14;" vertex="1" parent="PFNKDa208meKvQQs3WgB-23">
          <mxGeometry y="130" width="286.56" height="60" as="geometry" />
        </mxCell>
        <mxCell id="PFNKDa208meKvQQs3WgB-31" value="&lt;div style=&quot;text-align: start;&quot;&gt;&lt;span style=&quot;font-size: 16px;&quot;&gt;&lt;b&gt;read_results_for_chease&lt;/b&gt;&lt;/span&gt;&lt;br&gt;&lt;/div&gt;" style="swimlane;fontStyle=0;childLayout=stackLayout;horizontal=1;startSize=30;horizontalStack=0;resizeParent=1;resizeParentMax=0;resizeLast=0;collapsible=1;marginBottom=0;whiteSpace=wrap;html=1;fillColor=#ffe6cc;strokeColor=#d79b00;fontFamily=Times New Roman;" vertex="1" parent="PFNKDa208meKvQQs3WgB-18">
          <mxGeometry x="107.00000000000003" y="530" width="286.56" height="180" as="geometry" />
        </mxCell>
        <mxCell id="PFNKDa208meKvQQs3WgB-32" value="&lt;div style=&quot;&quot;&gt;&lt;font style=&quot;font-size: 14px;&quot; color=&quot;#131300&quot;&gt;&lt;span style=&quot;caret-color: rgb(19, 19, 0); text-wrap: nowrap; font-size: 14px;&quot;&gt;input :&amp;nbsp;&lt;/span&gt;&lt;/font&gt;&lt;span style=&quot;background-color: initial;&quot;&gt;shot, times, liuqe_version, outf, outdir, varargin&lt;/span&gt;&lt;/div&gt;" style="text;strokeColor=default;fillColor=none;align=left;verticalAlign=middle;spacingLeft=4;spacingRight=4;overflow=hidden;points=[[0,0.5],[1,0.5]];portConstraint=eastwest;rotatable=0;whiteSpace=wrap;html=1;fontFamily=Times New Roman;fontSize=14;" vertex="1" parent="PFNKDa208meKvQQs3WgB-31">
          <mxGeometry y="30" width="286.56" height="50" as="geometry" />
        </mxCell>
        <mxCell id="PFNKDa208meKvQQs3WgB-33" value="&lt;div style=&quot;font-size: 14px;&quot;&gt;&lt;div style=&quot;font-size: 14px;&quot;&gt;output : varargout&lt;/div&gt;&lt;/div&gt;&lt;div style=&quot;font-size: 14px;&quot;&gt;&lt;/div&gt;&lt;div style=&quot;font-size: 14px;&quot;&gt;&lt;/div&gt;" style="text;strokeColor=default;fillColor=none;align=left;verticalAlign=middle;spacingLeft=4;spacingRight=4;overflow=hidden;points=[[0,0.5],[1,0.5]];portConstraint=eastwest;rotatable=0;whiteSpace=wrap;html=1;fontFamily=Times New Roman;fontSize=14;" vertex="1" parent="PFNKDa208meKvQQs3WgB-31">
          <mxGeometry y="80" width="286.56" height="40" as="geometry" />
        </mxCell>
        <mxCell id="PFNKDa208meKvQQs3WgB-34" value="&lt;div style=&quot;&quot;&gt;function: read the EXPEQ file experiment to get the initial profiles like pp&#39;, TT&#39; and transform the coordinate system.&lt;/div&gt;" style="text;strokeColor=default;fillColor=none;align=left;verticalAlign=middle;spacingLeft=4;spacingRight=4;overflow=hidden;points=[[0,0.5],[1,0.5]];portConstraint=eastwest;rotatable=0;whiteSpace=wrap;html=1;fontFamily=Times New Roman;fontSize=14;" vertex="1" parent="PFNKDa208meKvQQs3WgB-31">
          <mxGeometry y="120" width="286.56" height="60" as="geometry" />
        </mxCell>
        <mxCell id="PFNKDa208meKvQQs3WgB-35" value="&lt;div style=&quot;text-align: start;&quot;&gt;&lt;span style=&quot;font-size: 16px;&quot;&gt;&lt;b&gt;read_expeq&lt;/b&gt;&lt;/span&gt;&lt;br&gt;&lt;/div&gt;" style="swimlane;fontStyle=0;childLayout=stackLayout;horizontal=1;startSize=30;horizontalStack=0;resizeParent=1;resizeParentMax=0;resizeLast=0;collapsible=1;marginBottom=0;whiteSpace=wrap;html=1;fillColor=#ffe6cc;strokeColor=#d79b00;fontFamily=Times New Roman;" vertex="1" parent="PFNKDa208meKvQQs3WgB-18">
          <mxGeometry x="107" y="730" width="286.56" height="150" as="geometry" />
        </mxCell>
        <mxCell id="PFNKDa208meKvQQs3WgB-36" value="&lt;div style=&quot;&quot;&gt;&lt;font style=&quot;font-size: 14px;&quot; color=&quot;#131300&quot;&gt;&lt;span style=&quot;caret-color: rgb(19, 19, 0); text-wrap: nowrap; font-size: 14px;&quot;&gt;input :&amp;nbsp;&lt;/span&gt;&lt;/font&gt;&lt;span style=&quot;background-color: initial;&quot;&gt;varargin&lt;/span&gt;&lt;/div&gt;" style="text;strokeColor=default;fillColor=none;align=left;verticalAlign=middle;spacingLeft=4;spacingRight=4;overflow=hidden;points=[[0,0.5],[1,0.5]];portConstraint=eastwest;rotatable=0;whiteSpace=wrap;html=1;fontFamily=Times New Roman;fontSize=14;" vertex="1" parent="PFNKDa208meKvQQs3WgB-35">
          <mxGeometry y="30" width="286.56" height="40" as="geometry" />
        </mxCell>
        <mxCell id="PFNKDa208meKvQQs3WgB-37" value="&lt;div style=&quot;font-size: 14px;&quot;&gt;&lt;div style=&quot;font-size: 14px;&quot;&gt;output : EXPEQdata&lt;/div&gt;&lt;/div&gt;&lt;div style=&quot;font-size: 14px;&quot;&gt;&lt;/div&gt;&lt;div style=&quot;font-size: 14px;&quot;&gt;&lt;/div&gt;" style="text;strokeColor=default;fillColor=none;align=left;verticalAlign=middle;spacingLeft=4;spacingRight=4;overflow=hidden;points=[[0,0.5],[1,0.5]];portConstraint=eastwest;rotatable=0;whiteSpace=wrap;html=1;fontFamily=Times New Roman;fontSize=14;" vertex="1" parent="PFNKDa208meKvQQs3WgB-35">
          <mxGeometry y="70" width="286.56" height="40" as="geometry" />
        </mxCell>
        <mxCell id="PFNKDa208meKvQQs3WgB-38" value="&lt;div style=&quot;font-size: 14px;&quot;&gt;function: read the file from last step into variable&lt;/div&gt;" style="text;strokeColor=default;fillColor=none;align=left;verticalAlign=middle;spacingLeft=4;spacingRight=4;overflow=hidden;points=[[0,0.5],[1,0.5]];portConstraint=eastwest;rotatable=0;whiteSpace=wrap;html=1;fontFamily=Times New Roman;fontSize=14;" vertex="1" parent="PFNKDa208meKvQQs3WgB-35">
          <mxGeometry y="110" width="286.56" height="40" as="geometry" />
        </mxCell>
        <mxCell id="PFNKDa208meKvQQs3WgB-39" value="&lt;div style=&quot;text-align: start;&quot;&gt;&lt;span style=&quot;font-size: 16px;&quot;&gt;&lt;b&gt;read_namelist_chease&lt;/b&gt;&lt;/span&gt;&lt;br&gt;&lt;/div&gt;" style="swimlane;fontStyle=0;childLayout=stackLayout;horizontal=1;startSize=30;horizontalStack=0;resizeParent=1;resizeParentMax=0;resizeLast=0;collapsible=1;marginBottom=0;whiteSpace=wrap;html=1;fillColor=#ffe6cc;strokeColor=#d79b00;fontFamily=Times New Roman;" vertex="1" parent="PFNKDa208meKvQQs3WgB-18">
          <mxGeometry x="107" y="910" width="286.56" height="170" as="geometry" />
        </mxCell>
        <mxCell id="PFNKDa208meKvQQs3WgB-40" value="&lt;div style=&quot;&quot;&gt;&lt;font style=&quot;font-size: 14px;&quot; color=&quot;#131300&quot;&gt;&lt;span style=&quot;caret-color: rgb(19, 19, 0); text-wrap: nowrap; font-size: 14px;&quot;&gt;input :&amp;nbsp;&lt;/span&gt;&lt;/font&gt;&lt;span style=&quot;background-color: initial;&quot;&gt;varargin&amp;nbsp;&lt;/span&gt;&lt;/div&gt;" style="text;strokeColor=default;fillColor=none;align=left;verticalAlign=middle;spacingLeft=4;spacingRight=4;overflow=hidden;points=[[0,0.5],[1,0.5]];portConstraint=eastwest;rotatable=0;whiteSpace=wrap;html=1;fontFamily=Times New Roman;fontSize=14;" vertex="1" parent="PFNKDa208meKvQQs3WgB-39">
          <mxGeometry y="30" width="286.56" height="40" as="geometry" />
        </mxCell>
        <mxCell id="PFNKDa208meKvQQs3WgB-41" value="&lt;div style=&quot;font-size: 14px;&quot;&gt;&lt;div style=&quot;font-size: 14px;&quot;&gt;output : EXPEQdata&lt;/div&gt;&lt;/div&gt;&lt;div style=&quot;font-size: 14px;&quot;&gt;&lt;/div&gt;&lt;div style=&quot;font-size: 14px;&quot;&gt;&lt;/div&gt;" style="text;strokeColor=default;fillColor=none;align=left;verticalAlign=middle;spacingLeft=4;spacingRight=4;overflow=hidden;points=[[0,0.5],[1,0.5]];portConstraint=eastwest;rotatable=0;whiteSpace=wrap;html=1;fontFamily=Times New Roman;fontSize=14;" vertex="1" parent="PFNKDa208meKvQQs3WgB-39">
          <mxGeometry y="70" width="286.56" height="40" as="geometry" />
        </mxCell>
        <mxCell id="PFNKDa208meKvQQs3WgB-42" value="&lt;div style=&quot;font-size: 14px;&quot;&gt;function: call the subfunction with matched input to read the namelist file as part of initial set for CHEASE calculation&lt;/div&gt;" style="text;strokeColor=default;fillColor=none;align=left;verticalAlign=middle;spacingLeft=4;spacingRight=4;overflow=hidden;points=[[0,0.5],[1,0.5]];portConstraint=eastwest;rotatable=0;whiteSpace=wrap;html=1;fontFamily=Times New Roman;fontSize=14;" vertex="1" parent="PFNKDa208meKvQQs3WgB-39">
          <mxGeometry y="110" width="286.56" height="60" as="geometry" />
        </mxCell>
        <mxCell id="PFNKDa208meKvQQs3WgB-43" value="&lt;div style=&quot;text-align: start;&quot;&gt;&lt;span style=&quot;font-size: 16px;&quot;&gt;&lt;b&gt;run_chease_expeq&lt;/b&gt;&lt;/span&gt;&lt;br&gt;&lt;/div&gt;" style="swimlane;fontStyle=0;childLayout=stackLayout;horizontal=1;startSize=30;horizontalStack=0;resizeParent=1;resizeParentMax=0;resizeLast=0;collapsible=1;marginBottom=0;whiteSpace=wrap;html=1;fillColor=#ffe6cc;strokeColor=#d79b00;fontFamily=Times New Roman;" vertex="1" parent="PFNKDa208meKvQQs3WgB-18">
          <mxGeometry x="107.00000000000003" y="1110" width="286.56" height="160" as="geometry" />
        </mxCell>
        <mxCell id="PFNKDa208meKvQQs3WgB-44" value="&lt;div style=&quot;&quot;&gt;&lt;font style=&quot;font-size: 14px;&quot; color=&quot;#131300&quot;&gt;&lt;span style=&quot;caret-color: rgb(19, 19, 0); text-wrap: nowrap; font-size: 14px;&quot;&gt;input :&amp;nbsp;&lt;/span&gt;&lt;/font&gt;&lt;span style=&quot;background-color: initial;&quot;&gt;namelistfile,expeqfile,varargin&lt;/span&gt;&lt;/div&gt;" style="text;strokeColor=default;fillColor=none;align=left;verticalAlign=middle;spacingLeft=4;spacingRight=4;overflow=hidden;points=[[0,0.5],[1,0.5]];portConstraint=eastwest;rotatable=0;whiteSpace=wrap;html=1;fontFamily=Times New Roman;fontSize=14;" vertex="1" parent="PFNKDa208meKvQQs3WgB-43">
          <mxGeometry y="30" width="286.56" height="40" as="geometry" />
        </mxCell>
        <mxCell id="PFNKDa208meKvQQs3WgB-45" value="&lt;div style=&quot;font-size: 14px;&quot;&gt;&lt;div style=&quot;font-size: 14px;&quot;&gt;output : fname_out，globalsvalues&lt;/div&gt;&lt;/div&gt;&lt;div style=&quot;font-size: 14px;&quot;&gt;&lt;/div&gt;&lt;div style=&quot;font-size: 14px;&quot;&gt;&lt;/div&gt;" style="text;strokeColor=default;fillColor=none;align=left;verticalAlign=middle;spacingLeft=4;spacingRight=4;overflow=hidden;points=[[0,0.5],[1,0.5]];portConstraint=eastwest;rotatable=0;whiteSpace=wrap;html=1;fontFamily=Times New Roman;fontSize=14;" vertex="1" parent="PFNKDa208meKvQQs3WgB-43">
          <mxGeometry y="70" width="286.56" height="40" as="geometry" />
        </mxCell>
        <mxCell id="PFNKDa208meKvQQs3WgB-46" value="&lt;div style=&quot;font-size: 14px;&quot;&gt;function: set the input of the subfunction to run first CHEASE for getting the coarse mesh result&lt;/div&gt;" style="text;strokeColor=default;fillColor=none;align=left;verticalAlign=middle;spacingLeft=4;spacingRight=4;overflow=hidden;points=[[0,0.5],[1,0.5]];portConstraint=eastwest;rotatable=0;whiteSpace=wrap;html=1;fontFamily=Times New Roman;fontSize=14;" vertex="1" parent="PFNKDa208meKvQQs3WgB-43">
          <mxGeometry y="110" width="286.56" height="50" as="geometry" />
        </mxCell>
        <mxCell id="PFNKDa208meKvQQs3WgB-47" value="&lt;div style=&quot;text-align: start;&quot;&gt;&lt;span style=&quot;font-size: 16px;&quot;&gt;&lt;b&gt;profiles_edgeeq&lt;/b&gt;&lt;/span&gt;&lt;br&gt;&lt;/div&gt;" style="swimlane;fontStyle=0;childLayout=stackLayout;horizontal=1;startSize=30;horizontalStack=0;resizeParent=1;resizeParentMax=0;resizeLast=0;collapsible=1;marginBottom=0;whiteSpace=wrap;html=1;fillColor=#ffe6cc;strokeColor=#d79b00;fontFamily=Times New Roman;" vertex="1" parent="PFNKDa208meKvQQs3WgB-18">
          <mxGeometry x="107" y="1309" width="286.56" height="170" as="geometry" />
        </mxCell>
        <mxCell id="PFNKDa208meKvQQs3WgB-48" value="&lt;div style=&quot;&quot;&gt;&lt;font style=&quot;font-size: 14px;&quot; color=&quot;#131300&quot;&gt;&lt;span style=&quot;caret-color: rgb(19, 19, 0); text-wrap: nowrap; font-size: 14px;&quot;&gt;input :&amp;nbsp;&lt;/span&gt;&lt;/font&gt;&lt;span style=&quot;background-color: initial;&quot;&gt;varargin&lt;/span&gt;&lt;/div&gt;" style="text;strokeColor=default;fillColor=none;align=left;verticalAlign=middle;spacingLeft=4;spacingRight=4;overflow=hidden;points=[[0,0.5],[1,0.5]];portConstraint=eastwest;rotatable=0;whiteSpace=wrap;html=1;fontFamily=Times New Roman;fontSize=14;" vertex="1" parent="PFNKDa208meKvQQs3WgB-47">
          <mxGeometry y="30" width="286.56" height="40" as="geometry" />
        </mxCell>
        <mxCell id="PFNKDa208meKvQQs3WgB-49" value="&lt;div style=&quot;font-size: 14px;&quot;&gt;&lt;div style=&quot;font-size: 14px;&quot;&gt;output : profile class&lt;/div&gt;&lt;/div&gt;&lt;div style=&quot;font-size: 14px;&quot;&gt;&lt;/div&gt;&lt;div style=&quot;font-size: 14px;&quot;&gt;&lt;/div&gt;" style="text;strokeColor=default;fillColor=none;align=left;verticalAlign=middle;spacingLeft=4;spacingRight=4;overflow=hidden;points=[[0,0.5],[1,0.5]];portConstraint=eastwest;rotatable=0;whiteSpace=wrap;html=1;fontFamily=Times New Roman;fontSize=14;" vertex="1" parent="PFNKDa208meKvQQs3WgB-47">
          <mxGeometry y="70" width="286.56" height="40" as="geometry" />
        </mxCell>
        <mxCell id="PFNKDa208meKvQQs3WgB-50" value="&lt;div style=&quot;font-size: 14px;&quot;&gt;function: combine the experimental edge profile with the pedestal fitting profile in a initial class for the CHEASE later&lt;/div&gt;" style="text;strokeColor=default;fillColor=none;align=left;verticalAlign=middle;spacingLeft=4;spacingRight=4;overflow=hidden;points=[[0,0.5],[1,0.5]];portConstraint=eastwest;rotatable=0;whiteSpace=wrap;html=1;fontFamily=Times New Roman;fontSize=14;" vertex="1" parent="PFNKDa208meKvQQs3WgB-47">
          <mxGeometry y="110" width="286.56" height="60" as="geometry" />
        </mxCell>
        <mxCell id="PFNKDa208meKvQQs3WgB-51" value="&lt;div style=&quot;text-align: start;&quot;&gt;&lt;span style=&quot;font-size: 16px;&quot;&gt;&lt;b&gt;default_parameter_set&lt;/b&gt;&lt;/span&gt;&lt;br&gt;&lt;/div&gt;" style="swimlane;fontStyle=0;childLayout=stackLayout;horizontal=1;startSize=30;horizontalStack=0;resizeParent=1;resizeParentMax=0;resizeLast=0;collapsible=1;marginBottom=0;whiteSpace=wrap;html=1;fillColor=#ffe6cc;strokeColor=#d79b00;fontFamily=Times New Roman;" vertex="1" parent="PFNKDa208meKvQQs3WgB-18">
          <mxGeometry x="107.00000000000003" y="1500" width="286.56" height="170" as="geometry" />
        </mxCell>
        <mxCell id="PFNKDa208meKvQQs3WgB-52" value="&lt;div style=&quot;&quot;&gt;&lt;font style=&quot;font-size: 14px;&quot; color=&quot;#131300&quot;&gt;&lt;span style=&quot;caret-color: rgb(19, 19, 0); text-wrap: nowrap; font-size: 14px;&quot;&gt;input :&amp;nbsp;&lt;/span&gt;&lt;/font&gt;&lt;span style=&quot;background-color: initial;&quot;&gt;driver_type&lt;/span&gt;&lt;/div&gt;" style="text;strokeColor=default;fillColor=none;align=left;verticalAlign=middle;spacingLeft=4;spacingRight=4;overflow=hidden;points=[[0,0.5],[1,0.5]];portConstraint=eastwest;rotatable=0;whiteSpace=wrap;html=1;fontFamily=Times New Roman;fontSize=14;" vertex="1" parent="PFNKDa208meKvQQs3WgB-51">
          <mxGeometry y="30" width="286.56" height="40" as="geometry" />
        </mxCell>
        <mxCell id="PFNKDa208meKvQQs3WgB-53" value="&lt;div style=&quot;font-size: 14px;&quot;&gt;&lt;div style=&quot;font-size: 14px;&quot;&gt;output :&amp;nbsp;&lt;span style=&quot;caret-color: rgb(0, 0, 0); background-color: initial;&quot;&gt;simul&lt;/span&gt;&lt;/div&gt;&lt;/div&gt;&lt;div style=&quot;font-size: 14px;&quot;&gt;&lt;/div&gt;&lt;div style=&quot;font-size: 14px;&quot;&gt;&lt;/div&gt;" style="text;strokeColor=default;fillColor=none;align=left;verticalAlign=middle;spacingLeft=4;spacingRight=4;overflow=hidden;points=[[0,0.5],[1,0.5]];portConstraint=eastwest;rotatable=0;whiteSpace=wrap;html=1;fontFamily=Times New Roman;fontSize=14;" vertex="1" parent="PFNKDa208meKvQQs3WgB-51">
          <mxGeometry y="70" width="286.56" height="40" as="geometry" />
        </mxCell>
        <mxCell id="PFNKDa208meKvQQs3WgB-54" value="&lt;div style=&quot;font-size: 14px;&quot;&gt;function: set the initial parameter and namelist for the calculation for the EPED-CH &lt;font color=&quot;#ff0000&quot;&gt;like&lt;/font&gt; CHEASE&lt;/div&gt;" style="text;strokeColor=default;fillColor=none;align=left;verticalAlign=middle;spacingLeft=4;spacingRight=4;overflow=hidden;points=[[0,0.5],[1,0.5]];portConstraint=eastwest;rotatable=0;whiteSpace=wrap;html=1;fontFamily=Times New Roman;fontSize=14;" vertex="1" parent="PFNKDa208meKvQQs3WgB-51">
          <mxGeometry y="110" width="286.56" height="60" as="geometry" />
        </mxCell>
        <mxCell id="PFNKDa208meKvQQs3WgB-55" value="&lt;div style=&quot;text-align: start;&quot;&gt;&lt;span style=&quot;font-size: 16px;&quot;&gt;&lt;b&gt;parameter_check&lt;/b&gt;&lt;/span&gt;&lt;br&gt;&lt;/div&gt;" style="swimlane;fontStyle=0;childLayout=stackLayout;horizontal=1;startSize=30;horizontalStack=0;resizeParent=1;resizeParentMax=0;resizeLast=0;collapsible=1;marginBottom=0;whiteSpace=wrap;html=1;fillColor=#ffe6cc;strokeColor=#d79b00;fontFamily=Times New Roman;" vertex="1" parent="PFNKDa208meKvQQs3WgB-18">
          <mxGeometry x="107.00000000000003" y="1900" width="286.56" height="170" as="geometry" />
        </mxCell>
        <mxCell id="PFNKDa208meKvQQs3WgB-56" value="&lt;div style=&quot;&quot;&gt;&lt;font style=&quot;font-size: 14px;&quot; color=&quot;#131300&quot;&gt;&lt;span style=&quot;caret-color: rgb(19, 19, 0); text-wrap: nowrap; font-size: 14px;&quot;&gt;input :&amp;nbsp;&lt;/span&gt;&lt;/font&gt;&lt;span style=&quot;background-color: initial;&quot;&gt;simul&lt;/span&gt;&lt;/div&gt;" style="text;strokeColor=default;fillColor=none;align=left;verticalAlign=middle;spacingLeft=4;spacingRight=4;overflow=hidden;points=[[0,0.5],[1,0.5]];portConstraint=eastwest;rotatable=0;whiteSpace=wrap;html=1;fontFamily=Times New Roman;fontSize=14;" vertex="1" parent="PFNKDa208meKvQQs3WgB-55">
          <mxGeometry y="30" width="286.56" height="40" as="geometry" />
        </mxCell>
        <mxCell id="PFNKDa208meKvQQs3WgB-57" value="&lt;div style=&quot;font-size: 14px;&quot;&gt;&lt;div style=&quot;font-size: 14px;&quot;&gt;output : simul&lt;/div&gt;&lt;/div&gt;&lt;div style=&quot;font-size: 14px;&quot;&gt;&lt;/div&gt;&lt;div style=&quot;font-size: 14px;&quot;&gt;&lt;/div&gt;" style="text;strokeColor=default;fillColor=none;align=left;verticalAlign=middle;spacingLeft=4;spacingRight=4;overflow=hidden;points=[[0,0.5],[1,0.5]];portConstraint=eastwest;rotatable=0;whiteSpace=wrap;html=1;fontFamily=Times New Roman;fontSize=14;" vertex="1" parent="PFNKDa208meKvQQs3WgB-55">
          <mxGeometry y="70" width="286.56" height="40" as="geometry" />
        </mxCell>
        <mxCell id="PFNKDa208meKvQQs3WgB-58" value="&lt;div style=&quot;font-size: 14px;&quot;&gt;function: check if these simul parameter has the right unit and been set rightly&lt;/div&gt;" style="text;strokeColor=default;fillColor=none;align=left;verticalAlign=middle;spacingLeft=4;spacingRight=4;overflow=hidden;points=[[0,0.5],[1,0.5]];portConstraint=eastwest;rotatable=0;whiteSpace=wrap;html=1;fontFamily=Times New Roman;fontSize=14;" vertex="1" parent="PFNKDa208meKvQQs3WgB-55">
          <mxGeometry y="110" width="286.56" height="60" as="geometry" />
        </mxCell>
        <mxCell id="PFNKDa208meKvQQs3WgB-59" value="&lt;div style=&quot;text-align: start;&quot;&gt;&lt;span style=&quot;font-size: 16px;&quot;&gt;&lt;b&gt;chease_loop_for_target_equil&lt;/b&gt;&lt;/span&gt;&lt;br&gt;&lt;/div&gt;" style="swimlane;fontStyle=0;childLayout=stackLayout;horizontal=1;startSize=30;horizontalStack=0;resizeParent=1;resizeParentMax=0;resizeLast=0;collapsible=1;marginBottom=0;whiteSpace=wrap;html=1;fillColor=#ffe6cc;strokeColor=#d79b00;fontFamily=Times New Roman;" vertex="1" parent="PFNKDa208meKvQQs3WgB-18">
          <mxGeometry x="107.00000000000003" y="2191" width="286.56" height="170" as="geometry" />
        </mxCell>
        <mxCell id="PFNKDa208meKvQQs3WgB-60" value="&lt;div style=&quot;&quot;&gt;&lt;font style=&quot;font-size: 14px;&quot; color=&quot;#131300&quot;&gt;&lt;span style=&quot;caret-color: rgb(19, 19, 0); text-wrap: nowrap; font-size: 14px;&quot;&gt;input :&amp;nbsp;&lt;/span&gt;&lt;/font&gt;&lt;span style=&quot;background-color: initial;&quot;&gt;inputs, params, options, profiles, savedir&lt;/span&gt;&lt;/div&gt;" style="text;strokeColor=default;fillColor=none;align=left;verticalAlign=middle;spacingLeft=4;spacingRight=4;overflow=hidden;points=[[0,0.5],[1,0.5]];portConstraint=eastwest;rotatable=0;whiteSpace=wrap;html=1;fontFamily=Times New Roman;fontSize=14;" vertex="1" parent="PFNKDa208meKvQQs3WgB-59">
          <mxGeometry y="30" width="286.56" height="40" as="geometry" />
        </mxCell>
        <mxCell id="PFNKDa208meKvQQs3WgB-61" value="&lt;div style=&quot;font-size: 14px;&quot;&gt;&lt;div style=&quot;font-size: 14px;&quot;&gt;output : CHEASE_out, profiles&lt;/div&gt;&lt;/div&gt;&lt;div style=&quot;font-size: 14px;&quot;&gt;&lt;/div&gt;&lt;div style=&quot;font-size: 14px;&quot;&gt;&lt;/div&gt;" style="text;strokeColor=default;fillColor=none;align=left;verticalAlign=middle;spacingLeft=4;spacingRight=4;overflow=hidden;points=[[0,0.5],[1,0.5]];portConstraint=eastwest;rotatable=0;whiteSpace=wrap;html=1;fontFamily=Times New Roman;fontSize=14;" vertex="1" parent="PFNKDa208meKvQQs3WgB-59">
          <mxGeometry y="70" width="286.56" height="40" as="geometry" />
        </mxCell>
        <mxCell id="PFNKDa208meKvQQs3WgB-62" value="&lt;div style=&quot;font-size: 14px;&quot;&gt;function: do the loop to make the equilibrium fit the experimental and pedestal fitting result&lt;/div&gt;" style="text;strokeColor=default;fillColor=none;align=left;verticalAlign=middle;spacingLeft=4;spacingRight=4;overflow=hidden;points=[[0,0.5],[1,0.5]];portConstraint=eastwest;rotatable=0;whiteSpace=wrap;html=1;fontFamily=Times New Roman;fontSize=14;" vertex="1" parent="PFNKDa208meKvQQs3WgB-59">
          <mxGeometry y="110" width="286.56" height="60" as="geometry" />
        </mxCell>
        <mxCell id="PFNKDa208meKvQQs3WgB-63" value="&lt;div style=&quot;text-align: start;&quot;&gt;&lt;span style=&quot;font-size: 16px;&quot;&gt;&lt;b&gt;get_eped_parameters_tcv&lt;/b&gt;&lt;/span&gt;&lt;br&gt;&lt;/div&gt;" style="swimlane;fontStyle=0;childLayout=stackLayout;horizontal=1;startSize=30;horizontalStack=0;resizeParent=1;resizeParentMax=0;resizeLast=0;collapsible=1;marginBottom=0;whiteSpace=wrap;html=1;fillColor=#ffe6cc;strokeColor=#d79b00;fontFamily=Times New Roman;" vertex="1" parent="PFNKDa208meKvQQs3WgB-18">
          <mxGeometry x="107.00000000000003" y="1700" width="286.56" height="170" as="geometry" />
        </mxCell>
        <mxCell id="PFNKDa208meKvQQs3WgB-64" value="&lt;div style=&quot;&quot;&gt;&lt;font style=&quot;font-size: 14px;&quot; color=&quot;#131300&quot;&gt;&lt;span style=&quot;caret-color: rgb(19, 19, 0); text-wrap: nowrap; font-size: 14px;&quot;&gt;input :&amp;nbsp;&lt;/span&gt;&lt;/font&gt;&lt;span style=&quot;background-color: initial;&quot;&gt;shot,time,delta,tped,nped,nverbose&lt;/span&gt;&lt;/div&gt;" style="text;strokeColor=default;fillColor=none;align=left;verticalAlign=middle;spacingLeft=4;spacingRight=4;overflow=hidden;points=[[0,0.5],[1,0.5]];portConstraint=eastwest;rotatable=0;whiteSpace=wrap;html=1;fontFamily=Times New Roman;fontSize=14;" vertex="1" parent="PFNKDa208meKvQQs3WgB-63">
          <mxGeometry y="30" width="286.56" height="40" as="geometry" />
        </mxCell>
        <mxCell id="PFNKDa208meKvQQs3WgB-65" value="&lt;div style=&quot;font-size: 14px;&quot;&gt;&lt;div style=&quot;font-size: 14px;&quot;&gt;output :&amp;nbsp;&lt;span style=&quot;caret-color: rgb(0, 0, 0); background-color: initial;&quot;&gt;inputs&lt;/span&gt;&lt;/div&gt;&lt;/div&gt;&lt;div style=&quot;font-size: 14px;&quot;&gt;&lt;/div&gt;&lt;div style=&quot;font-size: 14px;&quot;&gt;&lt;/div&gt;" style="text;strokeColor=default;fillColor=none;align=left;verticalAlign=middle;spacingLeft=4;spacingRight=4;overflow=hidden;points=[[0,0.5],[1,0.5]];portConstraint=eastwest;rotatable=0;whiteSpace=wrap;html=1;fontFamily=Times New Roman;fontSize=14;" vertex="1" parent="PFNKDa208meKvQQs3WgB-63">
          <mxGeometry y="70" width="286.56" height="40" as="geometry" />
        </mxCell>
        <mxCell id="PFNKDa208meKvQQs3WgB-66" value="&lt;div style=&quot;font-size: 14px;&quot;&gt;function: provides initial experimental parameters as input to EPED-CH like calculate from TCV nodes&lt;/div&gt;" style="text;strokeColor=default;fillColor=none;align=left;verticalAlign=middle;spacingLeft=4;spacingRight=4;overflow=hidden;points=[[0,0.5],[1,0.5]];portConstraint=eastwest;rotatable=0;whiteSpace=wrap;html=1;fontFamily=Times New Roman;fontSize=14;" vertex="1" parent="PFNKDa208meKvQQs3WgB-63">
          <mxGeometry y="110" width="286.56" height="60" as="geometry" />
        </mxCell>
        <mxCell id="PFNKDa208meKvQQs3WgB-67" value="" style="html=1;shadow=0;dashed=0;align=center;verticalAlign=middle;shape=mxgraph.arrows2.arrow;dy=0.6;dx=40;direction=south;notch=0;fillColor=#FFFF00;" vertex="1" parent="PFNKDa208meKvQQs3WgB-18">
          <mxGeometry x="37" y="50" width="20" height="2310" as="geometry" />
        </mxCell>
        <mxCell id="PFNKDa208meKvQQs3WgB-68" value="&lt;font style=&quot;font-size: 14px;&quot; color=&quot;#ff0000&quot;&gt;Re-call&lt;/font&gt;" style="edgeStyle=orthogonalEdgeStyle;rounded=1;orthogonalLoop=1;jettySize=auto;html=1;exitX=-0.007;exitY=0.109;exitDx=0;exitDy=0;exitPerimeter=0;entryX=-0.007;entryY=0.133;entryDx=0;entryDy=0;entryPerimeter=0;strokeColor=#000000;curved=0;shape=flexArrow;strokeWidth=1;startSize=6;targetPerimeterSpacing=0;endWidth=17.77777777777778;endSize=1.6666666666666665;width=8.88888888888889;fillColor=#FFFF00;" edge="1" parent="PFNKDa208meKvQQs3WgB-18" source="PFNKDa208meKvQQs3WgB-43" target="PFNKDa208meKvQQs3WgB-35">
          <mxGeometry relative="1" as="geometry">
            <mxPoint x="72" y="910" as="targetPoint" />
            <Array as="points">
              <mxPoint x="80" y="1128" />
              <mxPoint x="80" y="750" />
            </Array>
          </mxGeometry>
        </mxCell>
        <mxCell id="PFNKDa208meKvQQs3WgB-69" style="edgeStyle=orthogonalEdgeStyle;rounded=1;orthogonalLoop=1;jettySize=auto;html=1;curved=0;shape=flexArrow;strokeWidth=1;endWidth=29.598506069094302;endSize=3.4134453781512604;width=8.88888888888889;fillColor=#FFFF00;exitX=1.008;exitY=0.139;exitDx=0;exitDy=0;exitPerimeter=0;entryX=0.514;entryY=-0.005;entryDx=0;entryDy=0;entryPerimeter=0;" edge="1" parent="PFNKDa208meKvQQs3WgB-18" target="PFNKDa208meKvQQs3WgB-47">
          <mxGeometry relative="1" as="geometry">
            <Array as="points">
              <mxPoint x="410" y="751" />
              <mxPoint x="410" y="1280" />
              <mxPoint x="254" y="1280" />
            </Array>
            <mxPoint x="394.85248" y="750.8499999999999" as="sourcePoint" />
            <mxPoint x="254.27999999999975" y="1469" as="targetPoint" />
          </mxGeometry>
        </mxCell>
        <mxCell id="PFNKDa208meKvQQs3WgB-88" value="" style="endArrow=classic;html=1;rounded=0;shape=flexArrow;strokeWidth=1;width=11.11111111111111;endSize=3.6888888888888887;endWidth=15.308641975308642;fillColor=#FFFF00;" edge="1" parent="PFNKDa208meKvQQs3WgB-18">
          <mxGeometry width="50" height="50" relative="1" as="geometry">
            <mxPoint x="252" y="2080" as="sourcePoint" />
            <mxPoint x="500" y="2112" as="targetPoint" />
            <Array as="points">
              <mxPoint x="252" y="2112" />
            </Array>
          </mxGeometry>
        </mxCell>
        <mxCell id="PFNKDa208meKvQQs3WgB-90" value="" style="endArrow=classic;html=1;rounded=0;shape=flexArrow;strokeWidth=1;width=11.11111111111111;endSize=6.0285714285714285;endWidth=15.555555555555557;fillColor=#FFFF00;" edge="1" parent="PFNKDa208meKvQQs3WgB-18">
          <mxGeometry width="50" height="50" relative="1" as="geometry">
            <mxPoint x="498" y="2140" as="sourcePoint" />
            <mxPoint x="252" y="2181" as="targetPoint" />
            <Array as="points">
              <mxPoint x="252" y="2140" />
            </Array>
          </mxGeometry>
        </mxCell>
        <mxCell id="PFNKDa208meKvQQs3WgB-95" value="" style="endArrow=classic;html=1;rounded=0;shape=flexArrow;strokeWidth=1;width=11.11111111111111;endSize=6.0285714285714285;endWidth=15.555555555555557;fillColor=#FFFF00;" edge="1" parent="PFNKDa208meKvQQs3WgB-18">
          <mxGeometry width="50" height="50" relative="1" as="geometry">
            <mxPoint x="468" y="470" as="sourcePoint" />
            <mxPoint x="242" y="530" as="targetPoint" />
            <Array as="points">
              <mxPoint x="242" y="470" />
            </Array>
          </mxGeometry>
        </mxCell>
        <mxCell id="PFNKDa208meKvQQs3WgB-94" value="" style="endArrow=classic;html=1;rounded=0;shape=flexArrow;strokeWidth=1;width=11.11111111111111;endSize=3.6888888888888887;endWidth=15.308641975308642;fillColor=#FFFF00;" edge="1" parent="PFNKDa208meKvQQs3WgB-18">
          <mxGeometry width="50" height="50" relative="1" as="geometry">
            <mxPoint x="242" y="410" as="sourcePoint" />
            <mxPoint x="470" y="442" as="targetPoint" />
            <Array as="points">
              <mxPoint x="242" y="442" />
            </Array>
          </mxGeometry>
        </mxCell>
        <mxCell id="PFNKDa208meKvQQs3WgB-70" value="&lt;font style=&quot;font-size: 15px;&quot; color=&quot;#ff0000&quot;&gt;Call&lt;/font&gt;" style="edgeStyle=orthogonalEdgeStyle;rounded=0;orthogonalLoop=1;jettySize=auto;html=1;strokeColor=#000000;strokeWidth=2;" edge="1" parent="PFNKDa208meKvQQs3WgB-1" source="PFNKDa208meKvQQs3WgB-5">
          <mxGeometry relative="1" as="geometry">
            <mxPoint x="370" y="225" as="targetPoint" />
          </mxGeometry>
        </mxCell>
        <mxCell id="PFNKDa208meKvQQs3WgB-71" value="&lt;font style=&quot;font-size: 14px;&quot; color=&quot;#ff0000&quot;&gt;Call&lt;/font&gt;" style="edgeStyle=orthogonalEdgeStyle;rounded=0;orthogonalLoop=1;jettySize=auto;html=1;strokeWidth=2;" edge="1" parent="PFNKDa208meKvQQs3WgB-1" source="PFNKDa208meKvQQs3WgB-10">
          <mxGeometry relative="1" as="geometry">
            <mxPoint x="720" y="226" as="targetPoint" />
          </mxGeometry>
        </mxCell>
        <mxCell id="PFNKDa208meKvQQs3WgB-89" value="&lt;font color=&quot;#ff0000&quot; style=&quot;font-size: 14px;&quot;&gt;Call&lt;/font&gt;" style="edgeStyle=orthogonalEdgeStyle;rounded=0;orthogonalLoop=1;jettySize=auto;html=1;entryX=0;entryY=0.5;entryDx=0;entryDy=0;strokeWidth=2;" edge="1" parent="PFNKDa208meKvQQs3WgB-1" source="PFNKDa208meKvQQs3WgB-45" target="PFNKDa208meKvQQs3WgB-79">
          <mxGeometry relative="1" as="geometry" />
        </mxCell>
        <mxCell id="PFNKDa208meKvQQs3WgB-91" value="&lt;font color=&quot;#ff0000&quot; style=&quot;font-size: 14px;&quot;&gt;Call&lt;/font&gt;" style="edgeStyle=orthogonalEdgeStyle;rounded=0;orthogonalLoop=1;jettySize=auto;html=1;entryX=0;entryY=0.5;entryDx=0;entryDy=0;strokeWidth=2;exitX=1;exitY=0.5;exitDx=0;exitDy=0;" edge="1" parent="PFNKDa208meKvQQs3WgB-1" source="PFNKDa208meKvQQs3WgB-49" target="PFNKDa208meKvQQs3WgB-85">
          <mxGeometry relative="1" as="geometry">
            <Array as="points">
              <mxPoint x="1090" y="1459" />
              <mxPoint x="1090" y="1660" />
            </Array>
          </mxGeometry>
        </mxCell>
        <mxCell id="PFNKDa208meKvQQs3WgB-92" value="&lt;font color=&quot;#ff0000&quot; style=&quot;font-size: 14px;&quot;&gt;Call&lt;/font&gt;" style="edgeStyle=orthogonalEdgeStyle;rounded=0;orthogonalLoop=1;jettySize=auto;html=1;entryX=0;entryY=0.5;entryDx=0;entryDy=0;exitX=1;exitY=0.5;exitDx=0;exitDy=0;strokeWidth=2;" edge="1" parent="PFNKDa208meKvQQs3WgB-1" source="PFNKDa208meKvQQs3WgB-41" target="PFNKDa208meKvQQs3WgB-75">
          <mxGeometry relative="1" as="geometry">
            <Array as="points">
              <mxPoint x="1120" y="1060" />
              <mxPoint x="1120" y="870" />
            </Array>
          </mxGeometry>
        </mxCell>
        <mxCell id="PFNKDa208meKvQQs3WgB-97" value="&lt;font color=&quot;#ff0000&quot; style=&quot;font-size: 14px;&quot;&gt;Call&lt;/font&gt;" style="edgeStyle=orthogonalEdgeStyle;rounded=0;orthogonalLoop=1;jettySize=auto;html=1;entryX=-0.005;entryY=0.082;entryDx=0;entryDy=0;entryPerimeter=0;strokeWidth=2;" edge="1" parent="PFNKDa208meKvQQs3WgB-1" source="PFNKDa208meKvQQs3WgB-25" target="PFNKDa208meKvQQs3WgB-27">
          <mxGeometry relative="1" as="geometry" />
        </mxCell>
        <mxCell id="PFNKDa208meKvQQs3WgB-72" value="&lt;font style=&quot;font-size: 22px;&quot;&gt;Fourth level&lt;/font&gt;" style="swimlane;html=1;startSize=40;fontFamily=Times New Roman;fontSize=22;" vertex="1" parent="PFNKDa208meKvQQs3WgB-1">
          <mxGeometry x="1110" y="60" width="410" height="2380" as="geometry" />
        </mxCell>
        <mxCell id="PFNKDa208meKvQQs3WgB-73" value="&lt;div style=&quot;text-align: start;&quot;&gt;&lt;b style=&quot;font-size: 16px;&quot;&gt;read_namelist&lt;/b&gt;&lt;br&gt;&lt;/div&gt;" style="swimlane;fontStyle=0;childLayout=stackLayout;horizontal=1;startSize=30;horizontalStack=0;resizeParent=1;resizeParentMax=0;resizeLast=0;collapsible=1;marginBottom=0;whiteSpace=wrap;html=1;fillColor=#f8cecc;strokeColor=#b85450;fontFamily=Times New Roman;" vertex="1" parent="PFNKDa208meKvQQs3WgB-72">
          <mxGeometry x="40.00000000000003" y="710" width="330" height="230" as="geometry" />
        </mxCell>
        <mxCell id="PFNKDa208meKvQQs3WgB-74" value="&lt;div style=&quot;&quot;&gt;&lt;font style=&quot;font-size: 14px;&quot; color=&quot;#131300&quot;&gt;&lt;span style=&quot;caret-color: rgb(19, 19, 0); text-wrap: nowrap; font-size: 14px;&quot;&gt;input :&amp;nbsp;&lt;/span&gt;&lt;/font&gt;&lt;span style=&quot;background-color: initial; caret-color: rgb(19, 19, 0); text-wrap: nowrap;&quot;&gt;&lt;font color=&quot;#131300&quot;&gt;filename, namelist&lt;/font&gt;&lt;/span&gt;&lt;/div&gt;" style="text;strokeColor=default;fillColor=none;align=left;verticalAlign=middle;spacingLeft=4;spacingRight=4;overflow=hidden;points=[[0,0.5],[1,0.5]];portConstraint=eastwest;rotatable=0;whiteSpace=wrap;html=1;fontFamily=Times New Roman;fontSize=14;" vertex="1" parent="PFNKDa208meKvQQs3WgB-73">
          <mxGeometry y="30" width="330" height="50" as="geometry" />
        </mxCell>
        <mxCell id="PFNKDa208meKvQQs3WgB-75" value="&lt;div style=&quot;font-size: 14px;&quot;&gt;&lt;div style=&quot;font-size: 14px;&quot;&gt;output : data&lt;/div&gt;&lt;/div&gt;&lt;div style=&quot;font-size: 14px;&quot;&gt;&lt;/div&gt;&lt;div style=&quot;font-size: 14px;&quot;&gt;&lt;/div&gt;" style="text;strokeColor=default;fillColor=none;align=left;verticalAlign=middle;spacingLeft=4;spacingRight=4;overflow=hidden;points=[[0,0.5],[1,0.5]];portConstraint=eastwest;rotatable=0;whiteSpace=wrap;html=1;fontFamily=Times New Roman;fontSize=14;" vertex="1" parent="PFNKDa208meKvQQs3WgB-73">
          <mxGeometry y="80" width="330" height="40" as="geometry" />
        </mxCell>
        <mxCell id="PFNKDa208meKvQQs3WgB-76" value="&lt;div style=&quot;&quot;&gt;function:&amp;nbsp;&lt;span style=&quot;background-color: initial;&quot;&gt;This function reads a FORTRAN input namelist and returns the values as&amp;nbsp;&lt;/span&gt;&lt;span style=&quot;background-color: initial;&quot;&gt;the fields of a structure. Multidimensional arrays have their indicies&amp;nbsp;&lt;/span&gt;&lt;span style=&quot;background-color: initial;&quot;&gt;scaled and shifted to fit the matlab numbering scheme.&lt;/span&gt;&lt;/div&gt;" style="text;strokeColor=default;fillColor=none;align=left;verticalAlign=middle;spacingLeft=4;spacingRight=4;overflow=hidden;points=[[0,0.5],[1,0.5]];portConstraint=eastwest;rotatable=0;whiteSpace=wrap;html=1;fontFamily=Times New Roman;fontSize=14;" vertex="1" parent="PFNKDa208meKvQQs3WgB-73">
          <mxGeometry y="120" width="330" height="110" as="geometry" />
        </mxCell>
        <mxCell id="PFNKDa208meKvQQs3WgB-77" value="&lt;div style=&quot;text-align: start;&quot;&gt;&lt;span style=&quot;font-size: 16px;&quot;&gt;&lt;b&gt;run_chease&lt;/b&gt;&lt;/span&gt;&lt;br&gt;&lt;/div&gt;" style="swimlane;fontStyle=0;childLayout=stackLayout;horizontal=1;startSize=30;horizontalStack=0;resizeParent=1;resizeParentMax=0;resizeLast=0;collapsible=1;marginBottom=0;whiteSpace=wrap;html=1;fillColor=#f8cecc;strokeColor=#b85450;fontFamily=Times New Roman;" vertex="1" parent="PFNKDa208meKvQQs3WgB-72">
          <mxGeometry x="36.56" y="1090" width="330" height="200" as="geometry" />
        </mxCell>
        <mxCell id="PFNKDa208meKvQQs3WgB-78" value="&lt;div style=&quot;&quot;&gt;&lt;font style=&quot;font-size: 14px;&quot; color=&quot;#131300&quot;&gt;&lt;span style=&quot;caret-color: rgb(19, 19, 0); text-wrap: nowrap; font-size: 14px;&quot;&gt;input :&amp;nbsp;&lt;/span&gt;&lt;/font&gt;&lt;span style=&quot;background-color: initial; caret-color: rgb(19, 19, 0); text-wrap: nowrap;&quot;&gt;&lt;font color=&quot;#131300&quot;&gt;namelistfile, inputfile, cocos_in, varargin&lt;/font&gt;&lt;/span&gt;&lt;/div&gt;" style="text;strokeColor=default;fillColor=none;align=left;verticalAlign=middle;spacingLeft=4;spacingRight=4;overflow=hidden;points=[[0,0.5],[1,0.5]];portConstraint=eastwest;rotatable=0;whiteSpace=wrap;html=1;fontFamily=Times New Roman;fontSize=14;" vertex="1" parent="PFNKDa208meKvQQs3WgB-77">
          <mxGeometry y="30" width="330" height="50" as="geometry" />
        </mxCell>
        <mxCell id="PFNKDa208meKvQQs3WgB-79" value="&lt;div style=&quot;font-size: 14px;&quot;&gt;&lt;div style=&quot;font-size: 14px;&quot;&gt;output : fname_out, globalsvalues, namelist_struct, namelistfile_eff&lt;/div&gt;&lt;/div&gt;&lt;div style=&quot;font-size: 14px;&quot;&gt;&lt;/div&gt;&lt;div style=&quot;font-size: 14px;&quot;&gt;&lt;/div&gt;" style="text;strokeColor=default;fillColor=none;align=left;verticalAlign=middle;spacingLeft=4;spacingRight=4;overflow=hidden;points=[[0,0.5],[1,0.5]];portConstraint=eastwest;rotatable=0;whiteSpace=wrap;html=1;fontFamily=Times New Roman;fontSize=14;" vertex="1" parent="PFNKDa208meKvQQs3WgB-77">
          <mxGeometry y="80" width="330" height="60" as="geometry" />
        </mxCell>
        <mxCell id="PFNKDa208meKvQQs3WgB-80" value="&lt;div style=&quot;&quot;&gt;function: run CHEASE code to calculate the equilibrium&lt;/div&gt;" style="text;strokeColor=default;fillColor=none;align=left;verticalAlign=middle;spacingLeft=4;spacingRight=4;overflow=hidden;points=[[0,0.5],[1,0.5]];portConstraint=eastwest;rotatable=0;whiteSpace=wrap;html=1;fontFamily=Times New Roman;fontSize=14;" vertex="1" parent="PFNKDa208meKvQQs3WgB-77">
          <mxGeometry y="140" width="330" height="60" as="geometry" />
        </mxCell>
        <mxCell id="PFNKDa208meKvQQs3WgB-81" style="edgeStyle=orthogonalEdgeStyle;rounded=0;orthogonalLoop=1;jettySize=auto;html=1;entryX=0.5;entryY=0;entryDx=0;entryDy=0;strokeWidth=2;" edge="1" parent="PFNKDa208meKvQQs3WgB-72" source="PFNKDa208meKvQQs3WgB-83" target="PFNKDa208meKvQQs3WgB-87">
          <mxGeometry relative="1" as="geometry" />
        </mxCell>
        <mxCell id="PFNKDa208meKvQQs3WgB-82" value="&lt;font style=&quot;font-size: 14px;&quot; color=&quot;#ff0000&quot;&gt;Define a class method&lt;/font&gt;" style="edgeLabel;html=1;align=center;verticalAlign=middle;resizable=0;points=[];" vertex="1" connectable="0" parent="PFNKDa208meKvQQs3WgB-81">
          <mxGeometry x="0.0889" y="2" relative="1" as="geometry">
            <mxPoint as="offset" />
          </mxGeometry>
        </mxCell>
        <mxCell id="PFNKDa208meKvQQs3WgB-83" value="&lt;div style=&quot;text-align: start;&quot;&gt;&lt;span style=&quot;font-size: 16px;&quot;&gt;&lt;b&gt;profiles_abstract&lt;/b&gt;&lt;/span&gt;&lt;br&gt;&lt;/div&gt;" style="swimlane;fontStyle=0;childLayout=stackLayout;horizontal=1;startSize=30;horizontalStack=0;resizeParent=1;resizeParentMax=0;resizeLast=0;collapsible=1;marginBottom=0;whiteSpace=wrap;html=1;fillColor=#f8cecc;strokeColor=#b85450;fontFamily=Times New Roman;" vertex="1" parent="PFNKDa208meKvQQs3WgB-72">
          <mxGeometry x="40" y="1490" width="330" height="200" as="geometry" />
        </mxCell>
        <mxCell id="PFNKDa208meKvQQs3WgB-84" value="&lt;div style=&quot;&quot;&gt;input: None&lt;/div&gt;" style="text;strokeColor=default;fillColor=none;align=left;verticalAlign=middle;spacingLeft=4;spacingRight=4;overflow=hidden;points=[[0,0.5],[1,0.5]];portConstraint=eastwest;rotatable=0;whiteSpace=wrap;html=1;fontFamily=Times New Roman;fontSize=14;" vertex="1" parent="PFNKDa208meKvQQs3WgB-83">
          <mxGeometry y="30" width="330" height="50" as="geometry" />
        </mxCell>
        <mxCell id="PFNKDa208meKvQQs3WgB-85" value="&lt;div style=&quot;font-size: 14px;&quot;&gt;&lt;div style=&quot;font-size: 14px;&quot;&gt;output : basic abstract class for profiles definition&lt;/div&gt;&lt;/div&gt;&lt;div style=&quot;font-size: 14px;&quot;&gt;&lt;/div&gt;&lt;div style=&quot;font-size: 14px;&quot;&gt;&lt;/div&gt;" style="text;strokeColor=default;fillColor=none;align=left;verticalAlign=middle;spacingLeft=4;spacingRight=4;overflow=hidden;points=[[0,0.5],[1,0.5]];portConstraint=eastwest;rotatable=0;whiteSpace=wrap;html=1;fontFamily=Times New Roman;fontSize=14;" vertex="1" parent="PFNKDa208meKvQQs3WgB-83">
          <mxGeometry y="80" width="330" height="60" as="geometry" />
        </mxCell>
        <mxCell id="PFNKDa208meKvQQs3WgB-86" value="&lt;div style=&quot;&quot;&gt;function: define some function and properties for the initial profile class defination&lt;/div&gt;" style="text;strokeColor=default;fillColor=none;align=left;verticalAlign=middle;spacingLeft=4;spacingRight=4;overflow=hidden;points=[[0,0.5],[1,0.5]];portConstraint=eastwest;rotatable=0;whiteSpace=wrap;html=1;fontFamily=Times New Roman;fontSize=14;" vertex="1" parent="PFNKDa208meKvQQs3WgB-83">
          <mxGeometry y="140" width="330" height="60" as="geometry" />
        </mxCell>
        <mxCell id="PFNKDa208meKvQQs3WgB-87" value="&lt;span style=&quot;color: rgb(0, 4, 102); text-align: left; white-space-collapse: break-spaces;&quot;&gt;&lt;font style=&quot;&quot; face=&quot;Times New Roman&quot;&gt;&lt;b style=&quot;&quot;&gt;&lt;font style=&quot;font-size: 16px;&quot;&gt;set_ion_parameters&lt;/font&gt;&lt;/b&gt;&lt;/font&gt;&lt;/span&gt;&lt;div&gt;&lt;span style=&quot;color: rgb(0, 4, 102); text-align: left; white-space-collapse: break-spaces;&quot;&gt;&lt;font style=&quot;&quot; face=&quot;Times New Roman&quot;&gt;&lt;span style=&quot;font-size: 16px;&quot;&gt;&lt;b&gt;&lt;br&gt;&lt;/b&gt;&lt;/span&gt;&lt;span style=&quot;font-size: 14px;&quot;&gt;function: modify the ion parameters&lt;/span&gt;&lt;/font&gt;&lt;/span&gt;&lt;/div&gt;" style="whiteSpace=wrap;html=1;fillColor=#dae8fc;strokeColor=#6c8ebf;" vertex="1" parent="PFNKDa208meKvQQs3WgB-72">
          <mxGeometry x="80" y="2090" width="250" height="90" as="geometry" />
        </mxCell>
        <mxCell id="PFNKDa208meKvQQs3WgB-27" value="&lt;div style=&quot;text-align: start;&quot;&gt;&lt;span style=&quot;font-size: 16px;&quot;&gt;&lt;b&gt;write_exptnz&lt;/b&gt;&lt;/span&gt;&lt;br&gt;&lt;/div&gt;" style="swimlane;fontStyle=0;childLayout=stackLayout;horizontal=1;startSize=30;horizontalStack=0;resizeParent=1;resizeParentMax=0;resizeLast=0;collapsible=1;marginBottom=0;whiteSpace=wrap;html=1;fillColor=#f8cecc;strokeColor=#b85450;fontFamily=Times New Roman;" vertex="1" parent="PFNKDa208meKvQQs3WgB-72">
          <mxGeometry x="41.72" y="310" width="328.28" height="190" as="geometry" />
        </mxCell>
        <mxCell id="PFNKDa208meKvQQs3WgB-28" value="&lt;div style=&quot;&quot;&gt;&lt;font style=&quot;font-size: 14px;&quot; color=&quot;#131300&quot;&gt;&lt;span style=&quot;caret-color: rgb(19, 19, 0); text-wrap: nowrap; font-size: 14px;&quot;&gt;input :&amp;nbsp;&lt;/span&gt;&lt;/font&gt;&lt;span style=&quot;background-color: initial;&quot;&gt;EXPTNZdata,fnamefull,varargin&lt;/span&gt;&lt;/div&gt;" style="text;strokeColor=default;fillColor=none;align=left;verticalAlign=middle;spacingLeft=4;spacingRight=4;overflow=hidden;points=[[0,0.5],[1,0.5]];portConstraint=eastwest;rotatable=0;whiteSpace=wrap;html=1;fontFamily=Times New Roman;fontSize=14;" vertex="1" parent="PFNKDa208meKvQQs3WgB-27">
          <mxGeometry y="30" width="328.28" height="40" as="geometry" />
        </mxCell>
        <mxCell id="PFNKDa208meKvQQs3WgB-29" value="&lt;div style=&quot;font-size: 14px;&quot;&gt;&lt;div style=&quot;font-size: 14px;&quot;&gt;output : EXPTNZdataout, fclose_out&lt;/div&gt;&lt;/div&gt;&lt;div style=&quot;font-size: 14px;&quot;&gt;&lt;/div&gt;&lt;div style=&quot;font-size: 14px;&quot;&gt;&lt;/div&gt;" style="text;strokeColor=default;fillColor=none;align=left;verticalAlign=middle;spacingLeft=4;spacingRight=4;overflow=hidden;points=[[0,0.5],[1,0.5]];portConstraint=eastwest;rotatable=0;whiteSpace=wrap;html=1;fontFamily=Times New Roman;fontSize=14;" vertex="1" parent="PFNKDa208meKvQQs3WgB-27">
          <mxGeometry y="70" width="328.28" height="50" as="geometry" />
        </mxCell>
        <mxCell id="PFNKDa208meKvQQs3WgB-30" value="&lt;div style=&quot;font-size: 14px;&quot;&gt;function:&amp;nbsp;&lt;span style=&quot;background-color: initial;&quot;&gt;write EXPTNZ file from structure, creates EXPTNZ file in current&amp;nbsp;&lt;/span&gt;&lt;span style=&quot;background-color: initial;&quot;&gt;directory.&lt;/span&gt;&lt;/div&gt;" style="text;strokeColor=default;fillColor=none;align=left;verticalAlign=middle;spacingLeft=4;spacingRight=4;overflow=hidden;points=[[0,0.5],[1,0.5]];portConstraint=eastwest;rotatable=0;whiteSpace=wrap;html=1;fontFamily=Times New Roman;fontSize=14;" vertex="1" parent="PFNKDa208meKvQQs3WgB-27">
          <mxGeometry y="120" width="328.28" height="70" as="geometry" />
        </mxCell>
      </root>
    </mxGraphModel>
  </diagram>
</mxfile>
